<svg xmlns="http://www.w3.org/2000/svg" xmlns:xlink="http://www.w3.org/1999/xlink" width="500" zoomAndPan="magnify" viewBox="0 0 375 374.999991" height="500" preserveAspectRatio="xMidYMid meet" version="1.0"><defs><clipPath id="4ac71a1f18"><path d="M 45.226562 9.625 L 262 9.625 L 262 226 L 45.226562 226 Z M 45.226562 9.625 " clip-rule="nonzero"/></clipPath><clipPath id="bd335343ac"><path d="M 135 170 L 345.976562 170 L 345.976562 365 L 135 365 Z M 135 170 " clip-rule="nonzero"/></clipPath><clipPath id="8c84e4b6a9"><path d="M 113.292969 76.441406 L 195.792969 76.441406 L 195.792969 158.941406 L 113.292969 158.941406 Z M 113.292969 76.441406 " clip-rule="nonzero"/></clipPath><clipPath id="de7ca38512"><path d="M 285.15625 197.816406 L 318.90625 197.816406 L 318.90625 231.566406 L 285.15625 231.566406 Z M 285.15625 197.816406 " clip-rule="nonzero"/></clipPath><clipPath id="8cf8814db1"><path d="M 170.445312 291.75 L 209.445312 291.75 L 209.445312 330.75 L 170.445312 330.75 Z M 170.445312 291.75 " clip-rule="nonzero"/></clipPath></defs><g clip-path="url(#4ac71a1f18)"><path fill="#22b4db" d="M 249.347656 75.761719 L 195.265625 75.761719 L 195.265625 21.679688 C 195.265625 15.105469 189.945312 9.78125 183.371094 9.78125 L 123.105469 9.78125 C 116.527344 9.78125 111.207031 15.105469 111.207031 21.679688 L 111.207031 75.761719 L 57.125 75.761719 C 50.550781 75.761719 45.226562 81.082031 45.226562 87.65625 L 45.226562 147.925781 C 45.226562 154.5 50.550781 159.820312 57.125 159.820312 L 111.207031 159.820312 L 111.207031 213.902344 C 111.207031 220.476562 116.527344 225.800781 123.105469 225.800781 L 183.371094 225.800781 C 189.945312 225.800781 195.265625 220.476562 195.265625 213.902344 L 195.265625 159.820312 L 249.347656 159.820312 C 255.921875 159.820312 261.246094 154.5 261.246094 147.925781 L 261.246094 87.65625 C 261.246094 81.082031 255.921875 75.761719 249.347656 75.761719 Z M 249.347656 75.761719 " fill-opacity="1" fill-rule="nonzero"/></g><g clip-path="url(#bd335343ac)"><path fill="#73c7de" d="M 243.636719 295.691406 L 243.636719 325.824219 C 243.636719 329.113281 240.972656 331.773438 237.6875 331.773438 L 210.605469 331.773438 L 210.605469 358.855469 C 210.605469 362.140625 207.945312 364.804688 204.65625 364.804688 L 174.523438 364.804688 C 171.238281 364.804688 168.578125 362.140625 168.578125 358.855469 L 168.578125 331.773438 L 141.496094 331.773438 C 138.210938 331.773438 135.546875 329.113281 135.546875 325.824219 L 135.546875 295.691406 C 135.546875 292.40625 138.210938 289.746094 141.496094 289.746094 L 168.578125 289.746094 L 168.578125 262.664062 C 168.578125 259.375 171.238281 256.714844 174.523438 256.714844 L 204.660156 256.714844 C 207.945312 256.714844 210.605469 259.375 210.605469 262.664062 L 210.605469 289.746094 L 237.6875 289.746094 C 240.894531 289.746094 243.636719 292.40625 243.636719 295.691406 Z M 341 197.859375 L 318.851562 197.859375 L 318.851562 175.707031 C 318.851562 173.046875 316.660156 170.855469 313.996094 170.855469 L 289.34375 170.855469 C 286.683594 170.855469 284.492188 173.046875 284.492188 175.707031 L 284.492188 197.859375 L 262.339844 197.859375 C 259.679688 197.859375 257.488281 200.050781 257.488281 202.710938 L 257.488281 227.367188 C 257.488281 230.027344 259.679688 232.21875 262.339844 232.21875 L 284.492188 232.21875 L 284.492188 254.367188 C 284.492188 257.027344 286.683594 259.21875 289.34375 259.21875 L 313.996094 259.21875 C 316.660156 259.21875 318.851562 257.027344 318.851562 254.367188 L 318.851562 232.21875 L 341 232.21875 C 343.660156 232.21875 345.851562 230.027344 345.851562 227.367188 L 345.851562 202.710938 C 345.929688 200.050781 343.738281 197.859375 341 197.859375 Z M 341 197.859375 " fill-opacity="1" fill-rule="nonzero"/></g><g clip-path="url(#8c84e4b6a9)"><path fill="#22b4db" d="M 195.582031 117.585938 C 195.582031 140.3125 177.164062 158.730469 154.4375 158.730469 C 131.707031 158.730469 113.292969 140.3125 113.292969 117.585938 C 113.292969 94.855469 131.707031 76.441406 154.4375 76.441406 C 177.164062 76.441406 195.582031 94.855469 195.582031 117.585938 Z M 195.582031 117.585938 " fill-opacity="1" fill-rule="nonzero"/></g><path fill="#ffffff" d="M 180.421875 112.550781 C 180.421875 127.210938 159.585938 139.390625 155.226562 141.792969 C 154.730469 142.074219 154.121094 142.074219 153.628906 141.792969 C 149.269531 139.40625 128.433594 127.230469 128.433594 112.550781 C 128.433594 112.449219 128.433594 112.335938 128.433594 112.234375 C 128.433594 112.171875 128.433594 112.089844 128.433594 112.023438 C 128.433594 111.644531 128.449219 111.265625 128.464844 110.886719 C 128.992188 103.464844 134.585938 97.621094 141.417969 97.621094 C 148.59375 97.621094 154.417969 104.074219 154.417969 112.023438 C 154.417969 104.074219 160.246094 97.621094 167.421875 97.621094 C 174.316406 97.621094 179.960938 103.5625 180.390625 111.085938 C 180.40625 111.398438 180.421875 111.710938 180.421875 112.023438 L 180.421875 112.039062 C 180.421875 112.21875 180.421875 112.382812 180.421875 112.550781 Z M 180.421875 112.550781 " fill-opacity="1" fill-rule="nonzero"/><g clip-path="url(#de7ca38512)"><path fill="#73c7de" d="M 319.257812 214.867188 C 319.257812 224.285156 311.628906 231.917969 302.207031 231.917969 C 292.789062 231.917969 285.15625 224.285156 285.15625 214.867188 C 285.15625 205.449219 292.789062 197.816406 302.207031 197.816406 C 311.628906 197.816406 319.257812 205.449219 319.257812 214.867188 Z M 319.257812 214.867188 " fill-opacity="1" fill-rule="nonzero"/></g><path fill="#ffffff" d="M 312.976562 212.78125 C 312.976562 218.859375 304.34375 223.90625 302.535156 224.902344 C 302.332031 225.015625 302.078125 225.015625 301.875 224.902344 C 300.066406 223.910156 291.433594 218.863281 291.433594 212.78125 C 291.433594 212.738281 291.433594 212.691406 291.433594 212.652344 C 291.433594 212.625 291.433594 212.589844 291.433594 212.5625 C 291.433594 212.40625 291.4375 212.25 291.445312 212.09375 C 291.664062 209.015625 293.984375 206.59375 296.8125 206.59375 C 299.789062 206.59375 302.203125 209.269531 302.203125 212.5625 C 302.203125 209.269531 304.617188 206.59375 307.589844 206.59375 C 310.449219 206.59375 312.785156 209.058594 312.964844 212.171875 C 312.972656 212.304688 312.976562 212.433594 312.976562 212.5625 L 312.976562 212.570312 C 312.976562 212.644531 312.976562 212.710938 312.976562 212.78125 Z M 312.976562 212.78125 " fill-opacity="1" fill-rule="nonzero"/><g clip-path="url(#8cf8814db1)"><path fill="#73c7de" d="M 209.761719 311.410156 C 209.761719 322.269531 200.960938 331.066406 190.101562 331.066406 C 179.242188 331.066406 170.445312 322.269531 170.445312 311.410156 C 170.445312 300.550781 179.242188 291.75 190.101562 291.75 C 200.960938 291.75 209.761719 300.550781 209.761719 311.410156 Z M 209.761719 311.410156 " fill-opacity="1" fill-rule="nonzero"/></g><path fill="#ffffff" d="M 202.519531 309.003906 C 202.519531 316.007812 192.5625 321.828125 190.480469 322.976562 C 190.242188 323.109375 189.953125 323.109375 189.714844 322.976562 C 187.632812 321.835938 177.679688 316.015625 177.679688 309.003906 C 177.679688 308.957031 177.679688 308.898438 177.679688 308.851562 C 177.679688 308.820312 177.679688 308.78125 177.679688 308.75 C 177.679688 308.570312 177.6875 308.390625 177.695312 308.207031 C 177.945312 304.660156 180.617188 301.871094 183.882812 301.871094 C 187.308594 301.871094 190.09375 304.953125 190.09375 308.75 C 190.09375 304.953125 192.878906 301.871094 196.304688 301.871094 C 199.601562 301.871094 202.296875 304.710938 202.503906 308.300781 C 202.511719 308.453125 202.519531 308.601562 202.519531 308.75 L 202.519531 308.757812 C 202.519531 308.84375 202.519531 308.925781 202.519531 309.003906 Z M 202.519531 309.003906 " fill-opacity="1" fill-rule="nonzero"/></svg>