<svg xmlns="http://www.w3.org/2000/svg" xmlns:xlink="http://www.w3.org/1999/xlink" width="1080" zoomAndPan="magnify" viewBox="0 0 810 374.999991" height="500" preserveAspectRatio="xMidYMid meet" version="1.0"><defs><g/><clipPath id="bef52d3b31"><path d="M 239.363281 53 L 777.574219 53 L 777.574219 345.742188 L 239.363281 345.742188 Z M 239.363281 53 " clip-rule="nonzero"/></clipPath><clipPath id="64f576c598"><path d="M 239.363281 26.230469 L 777.574219 26.230469 L 777.574219 319 L 239.363281 319 Z M 239.363281 26.230469 " clip-rule="nonzero"/></clipPath><clipPath id="3459356260"><path d="M 40 7 L 365 7 L 365 368.59375 L 40 368.59375 Z M 40 7 " clip-rule="nonzero"/></clipPath></defs><g clip-path="url(#bef52d3b31)"><path fill="#333333" d="M 258.035156 53.417969 L 758.769531 53.417969 C 759.375 53.417969 759.984375 53.445312 760.585938 53.507812 C 761.191406 53.566406 761.789062 53.65625 762.386719 53.773438 C 762.980469 53.890625 763.570312 54.039062 764.148438 54.214844 C 764.730469 54.390625 765.300781 54.59375 765.863281 54.828125 C 766.421875 55.058594 766.972656 55.320312 767.507812 55.605469 C 768.042969 55.890625 768.5625 56.203125 769.066406 56.539062 C 769.570312 56.878906 770.058594 57.238281 770.527344 57.625 C 770.996094 58.007812 771.445312 58.414062 771.875 58.84375 C 772.304688 59.273438 772.710938 59.722656 773.097656 60.191406 C 773.480469 60.660156 773.84375 61.148438 774.179688 61.652344 C 774.515625 62.15625 774.828125 62.679688 775.113281 63.214844 C 775.402344 63.75 775.660156 64.296875 775.890625 64.855469 C 776.125 65.417969 776.328125 65.988281 776.503906 66.570312 C 776.679688 67.152344 776.828125 67.738281 776.945312 68.332031 C 777.066406 68.929688 777.152344 69.527344 777.214844 70.132812 C 777.273438 70.738281 777.300781 71.34375 777.300781 71.949219 L 777.300781 327.179688 C 777.300781 327.785156 777.273438 328.390625 777.214844 328.996094 C 777.152344 329.601562 777.066406 330.199219 776.945312 330.796875 C 776.828125 331.390625 776.679688 331.976562 776.503906 332.558594 C 776.328125 333.140625 776.125 333.710938 775.890625 334.273438 C 775.660156 334.832031 775.402344 335.378906 775.113281 335.914062 C 774.828125 336.449219 774.515625 336.972656 774.179688 337.476562 C 773.84375 337.980469 773.480469 338.46875 773.097656 338.9375 C 772.710938 339.40625 772.304688 339.855469 771.875 340.285156 C 771.445312 340.714844 770.996094 341.121094 770.527344 341.503906 C 770.058594 341.890625 769.570312 342.25 769.066406 342.589844 C 768.5625 342.925781 768.042969 343.238281 767.507812 343.523438 C 766.972656 343.808594 766.421875 344.070312 765.863281 344.300781 C 765.300781 344.535156 764.730469 344.738281 764.148438 344.914062 C 763.570312 345.089844 762.980469 345.238281 762.386719 345.355469 C 761.789062 345.472656 761.191406 345.5625 760.585938 345.621094 C 759.984375 345.683594 759.375 345.710938 758.769531 345.710938 L 258.035156 345.710938 C 257.425781 345.710938 256.820312 345.683594 256.21875 345.621094 C 255.613281 345.5625 255.011719 345.472656 254.417969 345.355469 C 253.824219 345.238281 253.234375 345.089844 252.652344 344.914062 C 252.074219 344.738281 251.503906 344.535156 250.941406 344.300781 C 250.378906 344.070312 249.832031 343.808594 249.296875 343.523438 C 248.761719 343.238281 248.242188 342.925781 247.738281 342.589844 C 247.234375 342.25 246.746094 341.890625 246.277344 341.503906 C 245.808594 341.121094 245.359375 340.714844 244.929688 340.285156 C 244.5 339.855469 244.09375 339.40625 243.707031 338.9375 C 243.324219 338.46875 242.960938 337.980469 242.625 337.476562 C 242.285156 336.972656 241.976562 336.449219 241.6875 335.914062 C 241.402344 335.378906 241.144531 334.832031 240.910156 334.273438 C 240.679688 333.710938 240.476562 333.140625 240.300781 332.558594 C 240.121094 331.976562 239.976562 331.390625 239.855469 330.796875 C 239.738281 330.199219 239.648438 329.601562 239.589844 328.996094 C 239.53125 328.390625 239.5 327.785156 239.5 327.179688 L 239.5 71.949219 C 239.5 71.34375 239.53125 70.738281 239.589844 70.132812 C 239.648438 69.527344 239.738281 68.929688 239.855469 68.332031 C 239.976562 67.738281 240.121094 67.152344 240.300781 66.570312 C 240.476562 65.988281 240.679688 65.417969 240.910156 64.855469 C 241.144531 64.296875 241.402344 63.75 241.6875 63.214844 C 241.976562 62.679688 242.285156 62.15625 242.625 61.652344 C 242.960938 61.148438 243.324219 60.660156 243.707031 60.191406 C 244.09375 59.722656 244.5 59.273438 244.929688 58.84375 C 245.359375 58.414062 245.808594 58.007812 246.277344 57.625 C 246.746094 57.238281 247.234375 56.878906 247.738281 56.539062 C 248.242188 56.203125 248.761719 55.890625 249.296875 55.605469 C 249.832031 55.320312 250.378906 55.058594 250.941406 54.828125 C 251.503906 54.59375 252.074219 54.390625 252.652344 54.214844 C 253.234375 54.039062 253.824219 53.890625 254.417969 53.773438 C 255.011719 53.65625 255.613281 53.566406 256.21875 53.507812 C 256.820312 53.445312 257.425781 53.417969 258.035156 53.417969 Z M 258.035156 53.417969 " fill-opacity="1" fill-rule="nonzero"/></g><g clip-path="url(#64f576c598)"><path fill="#2694e7" d="M 258.035156 26.207031 L 758.769531 26.207031 C 759.375 26.207031 759.984375 26.234375 760.585938 26.296875 C 761.191406 26.355469 761.789062 26.445312 762.386719 26.5625 C 762.980469 26.679688 763.570312 26.828125 764.148438 27.003906 C 764.730469 27.179688 765.300781 27.382812 765.863281 27.617188 C 766.421875 27.847656 766.972656 28.109375 767.507812 28.394531 C 768.042969 28.679688 768.5625 28.992188 769.066406 29.328125 C 769.570312 29.667969 770.058594 30.027344 770.527344 30.414062 C 770.996094 30.796875 771.445312 31.203125 771.875 31.632812 C 772.304688 32.0625 772.710938 32.511719 773.097656 32.980469 C 773.480469 33.449219 773.84375 33.9375 774.179688 34.441406 C 774.515625 34.945312 774.828125 35.46875 775.113281 36.003906 C 775.402344 36.539062 775.660156 37.085938 775.890625 37.644531 C 776.125 38.207031 776.328125 38.777344 776.503906 39.359375 C 776.679688 39.941406 776.828125 40.527344 776.945312 41.121094 C 777.066406 41.71875 777.152344 42.316406 777.214844 42.921875 C 777.273438 43.527344 777.300781 44.132812 777.300781 44.738281 L 777.300781 299.96875 C 777.300781 300.574219 777.273438 301.179688 777.214844 301.785156 C 777.152344 302.390625 777.066406 302.988281 776.945312 303.585938 C 776.828125 304.179688 776.679688 304.765625 776.503906 305.347656 C 776.328125 305.929688 776.125 306.5 775.890625 307.0625 C 775.660156 307.621094 775.402344 308.167969 775.113281 308.703125 C 774.828125 309.238281 774.515625 309.761719 774.179688 310.265625 C 773.84375 310.769531 773.480469 311.257812 773.097656 311.726562 C 772.710938 312.195312 772.304688 312.644531 771.875 313.074219 C 771.445312 313.503906 770.996094 313.910156 770.527344 314.292969 C 770.058594 314.679688 769.570312 315.039062 769.066406 315.378906 C 768.5625 315.714844 768.042969 316.027344 767.507812 316.3125 C 766.972656 316.597656 766.421875 316.859375 765.863281 317.089844 C 765.300781 317.324219 764.730469 317.527344 764.148438 317.703125 C 763.570312 317.878906 762.980469 318.027344 762.386719 318.144531 C 761.789062 318.261719 761.191406 318.351562 760.585938 318.410156 C 759.984375 318.472656 759.375 318.5 758.769531 318.5 L 258.035156 318.5 C 257.425781 318.5 256.820312 318.472656 256.21875 318.410156 C 255.613281 318.351562 255.011719 318.261719 254.417969 318.144531 C 253.824219 318.027344 253.234375 317.878906 252.652344 317.703125 C 252.074219 317.527344 251.503906 317.324219 250.941406 317.089844 C 250.378906 316.859375 249.832031 316.597656 249.296875 316.3125 C 248.761719 316.027344 248.242188 315.714844 247.738281 315.378906 C 247.234375 315.039062 246.746094 314.679688 246.277344 314.292969 C 245.808594 313.910156 245.359375 313.503906 244.929688 313.074219 C 244.5 312.644531 244.09375 312.195312 243.707031 311.726562 C 243.324219 311.257812 242.960938 310.769531 242.625 310.265625 C 242.285156 309.761719 241.976562 309.238281 241.6875 308.703125 C 241.402344 308.167969 241.144531 307.621094 240.910156 307.0625 C 240.679688 306.5 240.476562 305.929688 240.300781 305.347656 C 240.121094 304.765625 239.976562 304.179688 239.855469 303.585938 C 239.738281 302.988281 239.648438 302.390625 239.589844 301.785156 C 239.53125 301.179688 239.5 300.574219 239.5 299.96875 L 239.5 44.738281 C 239.5 44.132812 239.53125 43.527344 239.589844 42.921875 C 239.648438 42.316406 239.738281 41.71875 239.855469 41.121094 C 239.976562 40.527344 240.121094 39.941406 240.300781 39.359375 C 240.476562 38.777344 240.679688 38.207031 240.910156 37.644531 C 241.144531 37.085938 241.402344 36.539062 241.6875 36.003906 C 241.976562 35.46875 242.285156 34.945312 242.625 34.441406 C 242.960938 33.9375 243.324219 33.449219 243.707031 32.980469 C 244.09375 32.511719 244.5 32.0625 244.929688 31.632812 C 245.359375 31.203125 245.808594 30.796875 246.277344 30.414062 C 246.746094 30.027344 247.234375 29.667969 247.738281 29.328125 C 248.242188 28.992188 248.761719 28.679688 249.296875 28.394531 C 249.832031 28.109375 250.378906 27.847656 250.941406 27.617188 C 251.503906 27.382812 252.074219 27.179688 252.652344 27.003906 C 253.234375 26.828125 253.824219 26.679688 254.417969 26.5625 C 255.011719 26.445312 255.613281 26.355469 256.21875 26.296875 C 256.820312 26.234375 257.425781 26.207031 258.035156 26.207031 Z M 258.035156 26.207031 " fill-opacity="1" fill-rule="nonzero"/></g><path fill="#ffffff" d="M 746.539062 55.867188 L 746.539062 288.847656 L 270.269531 288.847656 L 270.269531 55.867188 L 746.539062 55.867188 M 748.632812 45.824219 L 268.210938 45.824219 C 267.6875 45.820312 267.171875 45.871094 266.660156 45.96875 C 266.144531 46.070312 265.648438 46.21875 265.164062 46.417969 C 264.683594 46.613281 264.222656 46.859375 263.789062 47.144531 C 263.351562 47.433594 262.949219 47.761719 262.578125 48.132812 C 262.207031 48.5 261.878906 48.898438 261.585938 49.332031 C 261.292969 49.765625 261.046875 50.222656 260.847656 50.707031 C 260.644531 51.1875 260.492188 51.683594 260.390625 52.195312 C 260.285156 52.707031 260.234375 53.226562 260.230469 53.746094 L 260.230469 290.9375 C 260.230469 291.457031 260.28125 291.976562 260.382812 292.488281 C 260.488281 293 260.636719 293.496094 260.835938 293.976562 C 261.035156 294.460938 261.28125 294.917969 261.570312 295.351562 C 261.863281 295.785156 262.191406 296.1875 262.558594 296.558594 C 262.929688 296.925781 263.332031 297.253906 263.765625 297.546875 C 264.199219 297.835938 264.65625 298.078125 265.136719 298.28125 C 265.621094 298.480469 266.117188 298.628906 266.628906 298.730469 C 267.140625 298.832031 267.660156 298.882812 268.179688 298.882812 L 748.601562 298.882812 C 749.121094 298.882812 749.640625 298.832031 750.152344 298.730469 C 750.664062 298.628906 751.160156 298.480469 751.640625 298.28125 C 752.125 298.078125 752.582031 297.835938 753.015625 297.546875 C 753.449219 297.253906 753.851562 296.925781 754.21875 296.558594 C 754.589844 296.1875 754.917969 295.785156 755.207031 295.351562 C 755.5 294.917969 755.742188 294.460938 755.945312 293.976562 C 756.144531 293.496094 756.292969 293 756.394531 292.488281 C 756.496094 291.976562 756.546875 291.457031 756.546875 290.9375 L 756.546875 53.746094 C 756.550781 53.226562 756.5 52.707031 756.398438 52.195312 C 756.296875 51.683594 756.144531 51.1875 755.945312 50.703125 C 755.746094 50.222656 755.5 49.761719 755.210938 49.328125 C 754.921875 48.894531 754.59375 48.492188 754.222656 48.121094 C 753.855469 47.753906 753.453125 47.421875 753.019531 47.132812 C 752.585938 46.84375 752.125 46.597656 751.644531 46.398438 C 751.160156 46.199219 750.664062 46.046875 750.152344 45.945312 C 749.640625 45.84375 749.121094 45.792969 748.601562 45.792969 Z M 748.632812 45.824219 " fill-opacity="1" fill-rule="nonzero"/><g fill="#004aad" fill-opacity="0.4"><g transform="translate(387.475191, 169.920864)"><g><path d="M 6.890625 0 C 5.578125 0 4.921875 -0.65625 4.921875 -1.96875 L 4.921875 -81.75 C 4.921875 -83.0625 5.578125 -83.71875 6.890625 -83.71875 L 49.046875 -83.71875 C 53.648438 -83.71875 57.753906 -82.679688 61.359375 -80.609375 C 64.972656 -78.546875 67.832031 -75.707031 69.9375 -72.09375 C 72.039062 -68.488281 73.09375 -64.421875 73.09375 -59.890625 C 73.09375 -56.535156 72.484375 -53.445312 71.265625 -50.625 C 70.046875 -47.800781 68.390625 -45.335938 66.296875 -43.234375 C 65.828125 -42.648438 65.59375 -42.191406 65.59375 -41.859375 C 65.59375 -41.535156 65.828125 -41.078125 66.296875 -40.484375 C 68.390625 -38.453125 70.046875 -35.988281 71.265625 -33.09375 C 72.484375 -30.207031 73.09375 -27.085938 73.09375 -23.734375 C 73.09375 -19.273438 72.039062 -15.238281 69.9375 -11.625 C 67.832031 -8.007812 64.972656 -5.164062 61.359375 -3.09375 C 57.753906 -1.03125 53.648438 0 49.046875 0 Z M 18.21875 -47.28125 L 49.046875 -47.28125 C 52.796875 -47.28125 55.851562 -48.476562 58.21875 -50.875 C 60.582031 -53.269531 61.765625 -56.273438 61.765625 -59.890625 C 61.765625 -63.566406 60.582031 -66.648438 58.21875 -69.140625 C 55.851562 -71.640625 52.796875 -72.890625 49.046875 -72.890625 L 18.21875 -72.890625 C 16.90625 -72.890625 16.25 -72.234375 16.25 -70.921875 L 16.25 -49.25 C 16.25 -47.9375 16.90625 -47.28125 18.21875 -47.28125 Z M 18.21875 -10.734375 L 49.046875 -10.734375 C 52.722656 -10.734375 55.757812 -11.945312 58.15625 -14.375 C 60.5625 -16.8125 61.765625 -19.929688 61.765625 -23.734375 C 61.765625 -27.410156 60.5625 -30.445312 58.15625 -32.84375 C 55.757812 -35.238281 52.722656 -36.4375 49.046875 -36.4375 L 18.21875 -36.4375 C 16.90625 -36.4375 16.25 -35.78125 16.25 -34.46875 L 16.25 -12.703125 C 16.25 -11.390625 16.90625 -10.734375 18.21875 -10.734375 Z M 18.21875 -10.734375 "/></g></g></g><g fill="#004aad" fill-opacity="0.4"><g transform="translate(471.292751, 169.920864)"><g><path d="M 32.5 0 C 27.25 0 22.535156 -1.195312 18.359375 -3.59375 C 14.191406 -5.988281 10.910156 -9.269531 8.515625 -13.4375 C 6.117188 -17.613281 4.921875 -22.328125 4.921875 -27.578125 L 4.921875 -81.75 C 4.921875 -83.0625 5.578125 -83.71875 6.890625 -83.71875 L 13.796875 -83.71875 C 15.109375 -83.71875 15.765625 -83.0625 15.765625 -81.75 L 15.765625 -27.578125 C 15.765625 -24.296875 16.484375 -21.390625 17.921875 -18.859375 C 19.367188 -16.335938 21.351562 -14.367188 23.875 -12.953125 C 26.40625 -11.535156 29.28125 -10.828125 32.5 -10.828125 L 42.359375 -10.828125 C 45.640625 -10.828125 48.539062 -11.535156 51.0625 -12.953125 C 53.59375 -14.367188 55.5625 -16.335938 56.96875 -18.859375 C 58.382812 -21.390625 59.09375 -24.296875 59.09375 -27.578125 L 59.09375 -81.75 C 59.09375 -83.0625 59.75 -83.71875 61.0625 -83.71875 L 67.96875 -83.71875 C 69.28125 -83.71875 69.9375 -83.0625 69.9375 -81.75 L 69.9375 -27.578125 C 69.9375 -22.328125 68.738281 -17.613281 66.34375 -13.4375 C 63.945312 -9.269531 60.675781 -5.988281 56.53125 -3.59375 C 52.394531 -1.195312 47.671875 0 42.359375 0 Z M 32.5 0 "/></g></g></g><g fill="#004aad" fill-opacity="0.4"><g transform="translate(553.435972, 169.920864)"><g><path d="M 6.890625 0 C 6.367188 0 5.910156 -0.195312 5.515625 -0.59375 C 5.117188 -0.988281 4.921875 -1.445312 4.921875 -1.96875 L 4.921875 -81.75 C 4.921875 -82.28125 5.117188 -82.738281 5.515625 -83.125 C 5.910156 -83.519531 6.367188 -83.71875 6.890625 -83.71875 L 62.546875 -83.71875 C 63.066406 -83.71875 63.523438 -83.519531 63.921875 -83.125 C 64.316406 -82.738281 64.515625 -82.28125 64.515625 -81.75 L 64.515625 -74.859375 C 64.515625 -74.335938 64.316406 -73.878906 63.921875 -73.484375 C 63.523438 -73.085938 63.066406 -72.890625 62.546875 -72.890625 L 17.734375 -72.890625 C 17.203125 -72.890625 16.738281 -72.691406 16.34375 -72.296875 C 15.957031 -71.898438 15.765625 -71.441406 15.765625 -70.921875 L 15.765625 -49.25 C 15.765625 -48.726562 15.957031 -48.269531 16.34375 -47.875 C 16.738281 -47.476562 17.203125 -47.28125 17.734375 -47.28125 L 59.59375 -47.28125 C 60.113281 -47.28125 60.570312 -47.082031 60.96875 -46.6875 C 61.363281 -46.289062 61.5625 -45.832031 61.5625 -45.3125 L 61.5625 -38.421875 C 61.5625 -37.890625 61.363281 -37.425781 60.96875 -37.03125 C 60.570312 -36.632812 60.113281 -36.4375 59.59375 -36.4375 L 17.734375 -36.4375 C 17.203125 -36.4375 16.738281 -36.238281 16.34375 -35.84375 C 15.957031 -35.457031 15.765625 -35 15.765625 -34.46875 L 15.765625 -12.8125 C 15.765625 -12.28125 15.957031 -11.816406 16.34375 -11.421875 C 16.738281 -11.023438 17.203125 -10.828125 17.734375 -10.828125 L 62.546875 -10.828125 C 63.066406 -10.828125 63.523438 -10.628906 63.921875 -10.234375 C 64.316406 -9.847656 64.515625 -9.390625 64.515625 -8.859375 L 64.515625 -1.96875 C 64.515625 -1.445312 64.316406 -0.988281 63.921875 -0.59375 C 63.523438 -0.195312 63.066406 0 62.546875 0 Z M 6.890625 0 "/></g></g></g><g fill="#004aad" fill-opacity="0.4"><g transform="translate(628.684849, 169.920864)"><g><path d="M 6.890625 0 C 5.578125 0 4.921875 -0.65625 4.921875 -1.96875 L 4.921875 -81.75 C 4.921875 -83.0625 5.578125 -83.71875 6.890625 -83.71875 L 15.65625 -83.71875 C 16.707031 -83.71875 17.5 -83.289062 18.03125 -82.4375 L 56.734375 -21.46875 C 57.128906 -20.8125 57.554688 -20.484375 58.015625 -20.484375 C 58.734375 -20.484375 59.09375 -21.039062 59.09375 -22.15625 L 59.09375 -81.75 C 59.09375 -83.0625 59.75 -83.71875 61.0625 -83.71875 L 67.96875 -83.71875 C 69.28125 -83.71875 69.9375 -83.0625 69.9375 -81.75 L 69.9375 -1.96875 C 69.9375 -0.65625 69.28125 0 67.96875 0 L 59.09375 0 C 58.050781 0 57.265625 -0.425781 56.734375 -1.28125 L 18.125 -62.25 C 17.726562 -62.90625 17.300781 -63.234375 16.84375 -63.234375 C 16.125 -63.234375 15.765625 -62.675781 15.765625 -61.5625 L 15.765625 -1.96875 C 15.765625 -0.65625 15.109375 0 13.796875 0 Z M 6.890625 0 "/></g></g></g><g fill="#ffffff" fill-opacity="1"><g transform="translate(383.121222, 165.566895)"><g><path d="M 6.890625 0 C 5.578125 0 4.921875 -0.65625 4.921875 -1.96875 L 4.921875 -81.75 C 4.921875 -83.0625 5.578125 -83.71875 6.890625 -83.71875 L 49.046875 -83.71875 C 53.648438 -83.71875 57.753906 -82.679688 61.359375 -80.609375 C 64.972656 -78.546875 67.832031 -75.707031 69.9375 -72.09375 C 72.039062 -68.488281 73.09375 -64.421875 73.09375 -59.890625 C 73.09375 -56.535156 72.484375 -53.445312 71.265625 -50.625 C 70.046875 -47.800781 68.390625 -45.335938 66.296875 -43.234375 C 65.828125 -42.648438 65.59375 -42.191406 65.59375 -41.859375 C 65.59375 -41.535156 65.828125 -41.078125 66.296875 -40.484375 C 68.390625 -38.453125 70.046875 -35.988281 71.265625 -33.09375 C 72.484375 -30.207031 73.09375 -27.085938 73.09375 -23.734375 C 73.09375 -19.273438 72.039062 -15.238281 69.9375 -11.625 C 67.832031 -8.007812 64.972656 -5.164062 61.359375 -3.09375 C 57.753906 -1.03125 53.648438 0 49.046875 0 Z M 18.21875 -47.28125 L 49.046875 -47.28125 C 52.796875 -47.28125 55.851562 -48.476562 58.21875 -50.875 C 60.582031 -53.269531 61.765625 -56.273438 61.765625 -59.890625 C 61.765625 -63.566406 60.582031 -66.648438 58.21875 -69.140625 C 55.851562 -71.640625 52.796875 -72.890625 49.046875 -72.890625 L 18.21875 -72.890625 C 16.90625 -72.890625 16.25 -72.234375 16.25 -70.921875 L 16.25 -49.25 C 16.25 -47.9375 16.90625 -47.28125 18.21875 -47.28125 Z M 18.21875 -10.734375 L 49.046875 -10.734375 C 52.722656 -10.734375 55.757812 -11.945312 58.15625 -14.375 C 60.5625 -16.8125 61.765625 -19.929688 61.765625 -23.734375 C 61.765625 -27.410156 60.5625 -30.445312 58.15625 -32.84375 C 55.757812 -35.238281 52.722656 -36.4375 49.046875 -36.4375 L 18.21875 -36.4375 C 16.90625 -36.4375 16.25 -35.78125 16.25 -34.46875 L 16.25 -12.703125 C 16.25 -11.390625 16.90625 -10.734375 18.21875 -10.734375 Z M 18.21875 -10.734375 "/></g></g></g><g fill="#ffffff" fill-opacity="1"><g transform="translate(466.938782, 165.566895)"><g><path d="M 32.5 0 C 27.25 0 22.535156 -1.195312 18.359375 -3.59375 C 14.191406 -5.988281 10.910156 -9.269531 8.515625 -13.4375 C 6.117188 -17.613281 4.921875 -22.328125 4.921875 -27.578125 L 4.921875 -81.75 C 4.921875 -83.0625 5.578125 -83.71875 6.890625 -83.71875 L 13.796875 -83.71875 C 15.109375 -83.71875 15.765625 -83.0625 15.765625 -81.75 L 15.765625 -27.578125 C 15.765625 -24.296875 16.484375 -21.390625 17.921875 -18.859375 C 19.367188 -16.335938 21.351562 -14.367188 23.875 -12.953125 C 26.40625 -11.535156 29.28125 -10.828125 32.5 -10.828125 L 42.359375 -10.828125 C 45.640625 -10.828125 48.539062 -11.535156 51.0625 -12.953125 C 53.59375 -14.367188 55.5625 -16.335938 56.96875 -18.859375 C 58.382812 -21.390625 59.09375 -24.296875 59.09375 -27.578125 L 59.09375 -81.75 C 59.09375 -83.0625 59.75 -83.71875 61.0625 -83.71875 L 67.96875 -83.71875 C 69.28125 -83.71875 69.9375 -83.0625 69.9375 -81.75 L 69.9375 -27.578125 C 69.9375 -22.328125 68.738281 -17.613281 66.34375 -13.4375 C 63.945312 -9.269531 60.675781 -5.988281 56.53125 -3.59375 C 52.394531 -1.195312 47.671875 0 42.359375 0 Z M 32.5 0 "/></g></g></g><g fill="#ffffff" fill-opacity="1"><g transform="translate(549.082003, 165.566895)"><g><path d="M 6.890625 0 C 6.367188 0 5.910156 -0.195312 5.515625 -0.59375 C 5.117188 -0.988281 4.921875 -1.445312 4.921875 -1.96875 L 4.921875 -81.75 C 4.921875 -82.28125 5.117188 -82.738281 5.515625 -83.125 C 5.910156 -83.519531 6.367188 -83.71875 6.890625 -83.71875 L 62.546875 -83.71875 C 63.066406 -83.71875 63.523438 -83.519531 63.921875 -83.125 C 64.316406 -82.738281 64.515625 -82.28125 64.515625 -81.75 L 64.515625 -74.859375 C 64.515625 -74.335938 64.316406 -73.878906 63.921875 -73.484375 C 63.523438 -73.085938 63.066406 -72.890625 62.546875 -72.890625 L 17.734375 -72.890625 C 17.203125 -72.890625 16.738281 -72.691406 16.34375 -72.296875 C 15.957031 -71.898438 15.765625 -71.441406 15.765625 -70.921875 L 15.765625 -49.25 C 15.765625 -48.726562 15.957031 -48.269531 16.34375 -47.875 C 16.738281 -47.476562 17.203125 -47.28125 17.734375 -47.28125 L 59.59375 -47.28125 C 60.113281 -47.28125 60.570312 -47.082031 60.96875 -46.6875 C 61.363281 -46.289062 61.5625 -45.832031 61.5625 -45.3125 L 61.5625 -38.421875 C 61.5625 -37.890625 61.363281 -37.425781 60.96875 -37.03125 C 60.570312 -36.632812 60.113281 -36.4375 59.59375 -36.4375 L 17.734375 -36.4375 C 17.203125 -36.4375 16.738281 -36.238281 16.34375 -35.84375 C 15.957031 -35.457031 15.765625 -35 15.765625 -34.46875 L 15.765625 -12.8125 C 15.765625 -12.28125 15.957031 -11.816406 16.34375 -11.421875 C 16.738281 -11.023438 17.203125 -10.828125 17.734375 -10.828125 L 62.546875 -10.828125 C 63.066406 -10.828125 63.523438 -10.628906 63.921875 -10.234375 C 64.316406 -9.847656 64.515625 -9.390625 64.515625 -8.859375 L 64.515625 -1.96875 C 64.515625 -1.445312 64.316406 -0.988281 63.921875 -0.59375 C 63.523438 -0.195312 63.066406 0 62.546875 0 Z M 6.890625 0 "/></g></g></g><g fill="#ffffff" fill-opacity="1"><g transform="translate(624.33088, 165.566895)"><g><path d="M 6.890625 0 C 5.578125 0 4.921875 -0.65625 4.921875 -1.96875 L 4.921875 -81.75 C 4.921875 -83.0625 5.578125 -83.71875 6.890625 -83.71875 L 15.65625 -83.71875 C 16.707031 -83.71875 17.5 -83.289062 18.03125 -82.4375 L 56.734375 -21.46875 C 57.128906 -20.8125 57.554688 -20.484375 58.015625 -20.484375 C 58.734375 -20.484375 59.09375 -21.039062 59.09375 -22.15625 L 59.09375 -81.75 C 59.09375 -83.0625 59.75 -83.71875 61.0625 -83.71875 L 67.96875 -83.71875 C 69.28125 -83.71875 69.9375 -83.0625 69.9375 -81.75 L 69.9375 -1.96875 C 69.9375 -0.65625 69.28125 0 67.96875 0 L 59.09375 0 C 58.050781 0 57.265625 -0.425781 56.734375 -1.28125 L 18.125 -62.25 C 17.726562 -62.90625 17.300781 -63.234375 16.84375 -63.234375 C 16.125 -63.234375 15.765625 -62.675781 15.765625 -61.5625 L 15.765625 -1.96875 C 15.765625 -0.65625 15.109375 0 13.796875 0 Z M 6.890625 0 "/></g></g></g><g fill="#004aad" fill-opacity="0.4"><g transform="translate(710.841508, 169.920864)"><g/></g></g><g fill="#ffffff" fill-opacity="1"><g transform="translate(706.487539, 165.566895)"><g/></g></g><g fill="#004aad" fill-opacity="0.4"><g transform="translate(395.351535, 274.805815)"><g><path d="M 6.890625 0 C 6.367188 0 5.910156 -0.195312 5.515625 -0.59375 C 5.117188 -0.988281 4.921875 -1.445312 4.921875 -1.96875 L 4.921875 -81.75 C 4.921875 -82.28125 5.117188 -82.738281 5.515625 -83.125 C 5.910156 -83.519531 6.367188 -83.71875 6.890625 -83.71875 L 46.984375 -83.71875 C 51.378906 -83.71875 55.300781 -82.71875 58.75 -80.71875 C 62.195312 -78.71875 64.921875 -75.992188 66.921875 -72.546875 C 68.929688 -69.097656 69.9375 -65.175781 69.9375 -60.78125 L 69.9375 -56.4375 C 69.9375 -52.039062 68.929688 -48.117188 66.921875 -44.671875 C 64.921875 -41.222656 62.195312 -38.492188 58.75 -36.484375 C 55.300781 -34.484375 51.378906 -33.484375 46.984375 -33.484375 L 17.734375 -33.484375 C 17.203125 -33.484375 16.738281 -33.285156 16.34375 -32.890625 C 15.957031 -32.503906 15.765625 -32.046875 15.765625 -31.515625 L 15.765625 -1.96875 C 15.765625 -1.445312 15.566406 -0.988281 15.171875 -0.59375 C 14.773438 -0.195312 14.316406 0 13.796875 0 Z M 17.734375 -44.328125 L 46.984375 -44.328125 C 50.597656 -44.328125 53.519531 -45.441406 55.75 -47.671875 C 57.976562 -49.898438 59.09375 -52.820312 59.09375 -56.4375 L 59.09375 -60.78125 C 59.09375 -64.382812 57.976562 -67.300781 55.75 -69.53125 C 53.519531 -71.769531 50.597656 -72.890625 46.984375 -72.890625 L 17.734375 -72.890625 C 17.203125 -72.890625 16.738281 -72.691406 16.34375 -72.296875 C 15.957031 -71.898438 15.765625 -71.441406 15.765625 -70.921875 L 15.765625 -46.296875 C 15.765625 -45.765625 15.957031 -45.300781 16.34375 -44.90625 C 16.738281 -44.519531 17.203125 -44.328125 17.734375 -44.328125 Z M 17.734375 -44.328125 "/></g></g></g><g fill="#004aad" fill-opacity="0.4"><g transform="translate(474.540038, 274.805815)"><g><path d="M 6.890625 0 C 6.367188 0 5.910156 -0.195312 5.515625 -0.59375 C 5.117188 -0.988281 4.921875 -1.445312 4.921875 -1.96875 L 4.921875 -81.75 C 4.921875 -82.28125 5.117188 -82.738281 5.515625 -83.125 C 5.910156 -83.519531 6.367188 -83.71875 6.890625 -83.71875 L 13.796875 -83.71875 C 14.316406 -83.71875 14.773438 -83.519531 15.171875 -83.125 C 15.566406 -82.738281 15.765625 -82.28125 15.765625 -81.75 L 15.765625 -12.8125 C 15.765625 -12.28125 15.957031 -11.816406 16.34375 -11.421875 C 16.738281 -11.023438 17.203125 -10.828125 17.734375 -10.828125 L 49.453125 -10.828125 C 49.972656 -10.828125 50.429688 -10.628906 50.828125 -10.234375 C 51.222656 -9.847656 51.421875 -9.390625 51.421875 -8.859375 L 51.421875 -1.96875 C 51.421875 -1.445312 51.222656 -0.988281 50.828125 -0.59375 C 50.429688 -0.195312 49.972656 0 49.453125 0 Z M 6.890625 0 "/></g></g></g><g fill="#004aad" fill-opacity="0.4"><g transform="translate(534.719857, 274.805815)"><g><path d="M 2.359375 0 C 1.179688 0 0.59375 -0.457031 0.59375 -1.375 C 0.59375 -1.570312 0.65625 -1.867188 0.78125 -2.265625 L 32.203125 -82.15625 C 32.597656 -83.195312 33.351562 -83.71875 34.46875 -83.71875 L 44.328125 -83.71875 C 45.441406 -83.71875 46.195312 -83.195312 46.59375 -82.15625 L 78.015625 -2.265625 C 78.140625 -1.867188 78.203125 -1.570312 78.203125 -1.375 C 78.203125 -0.457031 77.613281 0 76.4375 0 L 68.953125 0 C 67.835938 0 67.082031 -0.523438 66.6875 -1.578125 L 60.78125 -16.546875 C 60.382812 -17.597656 59.628906 -18.125 58.515625 -18.125 L 20.296875 -18.125 C 19.171875 -18.125 18.414062 -17.597656 18.03125 -16.546875 L 12.109375 -1.578125 C 11.722656 -0.523438 10.96875 0 9.84375 0 Z M 25.3125 -28.953125 L 53.484375 -28.953125 C 54.671875 -28.953125 55.265625 -29.414062 55.265625 -30.34375 C 55.265625 -30.539062 55.195312 -30.832031 55.0625 -31.21875 L 40.6875 -67.765625 C 40.414062 -68.617188 39.988281 -69.046875 39.40625 -69.046875 C 38.9375 -69.046875 38.507812 -68.617188 38.125 -67.765625 L 23.734375 -31.21875 C 23.609375 -30.832031 23.546875 -30.539062 23.546875 -30.34375 C 23.546875 -29.414062 24.132812 -28.953125 25.3125 -28.953125 Z M 25.3125 -28.953125 "/></g></g></g><g fill="#004aad" fill-opacity="0.4"><g transform="translate(620.802682, 274.805815)"><g><path d="M 6.890625 0 C 5.578125 0 4.921875 -0.65625 4.921875 -1.96875 L 4.921875 -81.75 C 4.921875 -83.0625 5.578125 -83.71875 6.890625 -83.71875 L 15.65625 -83.71875 C 16.707031 -83.71875 17.5 -83.289062 18.03125 -82.4375 L 56.734375 -21.46875 C 57.128906 -20.8125 57.554688 -20.484375 58.015625 -20.484375 C 58.734375 -20.484375 59.09375 -21.039062 59.09375 -22.15625 L 59.09375 -81.75 C 59.09375 -83.0625 59.75 -83.71875 61.0625 -83.71875 L 67.96875 -83.71875 C 69.28125 -83.71875 69.9375 -83.0625 69.9375 -81.75 L 69.9375 -1.96875 C 69.9375 -0.65625 69.28125 0 67.96875 0 L 59.09375 0 C 58.050781 0 57.265625 -0.425781 56.734375 -1.28125 L 18.125 -62.25 C 17.726562 -62.90625 17.300781 -63.234375 16.84375 -63.234375 C 16.125 -63.234375 15.765625 -62.675781 15.765625 -61.5625 L 15.765625 -1.96875 C 15.765625 -0.65625 15.109375 0 13.796875 0 Z M 6.890625 0 "/></g></g></g><g fill="#ffffff" fill-opacity="1"><g transform="translate(390.997565, 270.451846)"><g><path d="M 6.890625 0 C 6.367188 0 5.910156 -0.195312 5.515625 -0.59375 C 5.117188 -0.988281 4.921875 -1.445312 4.921875 -1.96875 L 4.921875 -81.75 C 4.921875 -82.28125 5.117188 -82.738281 5.515625 -83.125 C 5.910156 -83.519531 6.367188 -83.71875 6.890625 -83.71875 L 46.984375 -83.71875 C 51.378906 -83.71875 55.300781 -82.71875 58.75 -80.71875 C 62.195312 -78.71875 64.921875 -75.992188 66.921875 -72.546875 C 68.929688 -69.097656 69.9375 -65.175781 69.9375 -60.78125 L 69.9375 -56.4375 C 69.9375 -52.039062 68.929688 -48.117188 66.921875 -44.671875 C 64.921875 -41.222656 62.195312 -38.492188 58.75 -36.484375 C 55.300781 -34.484375 51.378906 -33.484375 46.984375 -33.484375 L 17.734375 -33.484375 C 17.203125 -33.484375 16.738281 -33.285156 16.34375 -32.890625 C 15.957031 -32.503906 15.765625 -32.046875 15.765625 -31.515625 L 15.765625 -1.96875 C 15.765625 -1.445312 15.566406 -0.988281 15.171875 -0.59375 C 14.773438 -0.195312 14.316406 0 13.796875 0 Z M 17.734375 -44.328125 L 46.984375 -44.328125 C 50.597656 -44.328125 53.519531 -45.441406 55.75 -47.671875 C 57.976562 -49.898438 59.09375 -52.820312 59.09375 -56.4375 L 59.09375 -60.78125 C 59.09375 -64.382812 57.976562 -67.300781 55.75 -69.53125 C 53.519531 -71.769531 50.597656 -72.890625 46.984375 -72.890625 L 17.734375 -72.890625 C 17.203125 -72.890625 16.738281 -72.691406 16.34375 -72.296875 C 15.957031 -71.898438 15.765625 -71.441406 15.765625 -70.921875 L 15.765625 -46.296875 C 15.765625 -45.765625 15.957031 -45.300781 16.34375 -44.90625 C 16.738281 -44.519531 17.203125 -44.328125 17.734375 -44.328125 Z M 17.734375 -44.328125 "/></g></g></g><g fill="#ffffff" fill-opacity="1"><g transform="translate(470.186068, 270.451846)"><g><path d="M 6.890625 0 C 6.367188 0 5.910156 -0.195312 5.515625 -0.59375 C 5.117188 -0.988281 4.921875 -1.445312 4.921875 -1.96875 L 4.921875 -81.75 C 4.921875 -82.28125 5.117188 -82.738281 5.515625 -83.125 C 5.910156 -83.519531 6.367188 -83.71875 6.890625 -83.71875 L 13.796875 -83.71875 C 14.316406 -83.71875 14.773438 -83.519531 15.171875 -83.125 C 15.566406 -82.738281 15.765625 -82.28125 15.765625 -81.75 L 15.765625 -12.8125 C 15.765625 -12.28125 15.957031 -11.816406 16.34375 -11.421875 C 16.738281 -11.023438 17.203125 -10.828125 17.734375 -10.828125 L 49.453125 -10.828125 C 49.972656 -10.828125 50.429688 -10.628906 50.828125 -10.234375 C 51.222656 -9.847656 51.421875 -9.390625 51.421875 -8.859375 L 51.421875 -1.96875 C 51.421875 -1.445312 51.222656 -0.988281 50.828125 -0.59375 C 50.429688 -0.195312 49.972656 0 49.453125 0 Z M 6.890625 0 "/></g></g></g><g fill="#ffffff" fill-opacity="1"><g transform="translate(530.365888, 270.451846)"><g><path d="M 2.359375 0 C 1.179688 0 0.59375 -0.457031 0.59375 -1.375 C 0.59375 -1.570312 0.65625 -1.867188 0.78125 -2.265625 L 32.203125 -82.15625 C 32.597656 -83.195312 33.351562 -83.71875 34.46875 -83.71875 L 44.328125 -83.71875 C 45.441406 -83.71875 46.195312 -83.195312 46.59375 -82.15625 L 78.015625 -2.265625 C 78.140625 -1.867188 78.203125 -1.570312 78.203125 -1.375 C 78.203125 -0.457031 77.613281 0 76.4375 0 L 68.953125 0 C 67.835938 0 67.082031 -0.523438 66.6875 -1.578125 L 60.78125 -16.546875 C 60.382812 -17.597656 59.628906 -18.125 58.515625 -18.125 L 20.296875 -18.125 C 19.171875 -18.125 18.414062 -17.597656 18.03125 -16.546875 L 12.109375 -1.578125 C 11.722656 -0.523438 10.96875 0 9.84375 0 Z M 25.3125 -28.953125 L 53.484375 -28.953125 C 54.671875 -28.953125 55.265625 -29.414062 55.265625 -30.34375 C 55.265625 -30.539062 55.195312 -30.832031 55.0625 -31.21875 L 40.6875 -67.765625 C 40.414062 -68.617188 39.988281 -69.046875 39.40625 -69.046875 C 38.9375 -69.046875 38.507812 -68.617188 38.125 -67.765625 L 23.734375 -31.21875 C 23.609375 -30.832031 23.546875 -30.539062 23.546875 -30.34375 C 23.546875 -29.414062 24.132812 -28.953125 25.3125 -28.953125 Z M 25.3125 -28.953125 "/></g></g></g><g fill="#ffffff" fill-opacity="1"><g transform="translate(616.448713, 270.451846)"><g><path d="M 6.890625 0 C 5.578125 0 4.921875 -0.65625 4.921875 -1.96875 L 4.921875 -81.75 C 4.921875 -83.0625 5.578125 -83.71875 6.890625 -83.71875 L 15.65625 -83.71875 C 16.707031 -83.71875 17.5 -83.289062 18.03125 -82.4375 L 56.734375 -21.46875 C 57.128906 -20.8125 57.554688 -20.484375 58.015625 -20.484375 C 58.734375 -20.484375 59.09375 -21.039062 59.09375 -22.15625 L 59.09375 -81.75 C 59.09375 -83.0625 59.75 -83.71875 61.0625 -83.71875 L 67.96875 -83.71875 C 69.28125 -83.71875 69.9375 -83.0625 69.9375 -81.75 L 69.9375 -1.96875 C 69.9375 -0.65625 69.28125 0 67.96875 0 L 59.09375 0 C 58.050781 0 57.265625 -0.425781 56.734375 -1.28125 L 18.125 -62.25 C 17.726562 -62.90625 17.300781 -63.234375 16.84375 -63.234375 C 16.125 -63.234375 15.765625 -62.675781 15.765625 -61.5625 L 15.765625 -1.96875 C 15.765625 -0.65625 15.109375 0 13.796875 0 Z M 6.890625 0 "/></g></g></g><g fill="#004aad" fill-opacity="0.4"><g transform="translate(702.965157, 274.805815)"><g/></g></g><g fill="#ffffff" fill-opacity="1"><g transform="translate(698.611188, 270.451846)"><g/></g></g><g clip-path="url(#3459356260)"><path fill="#2694e7" d="M 41.378906 65.746094 C 96.253906 49.382812 149.96875 29.847656 202.53125 7.136719 C 255.097656 29.847656 308.8125 49.382812 363.6875 65.746094 C 363.6875 65.746094 389.6875 306.121094 202.53125 368.21875 C 15.378906 306.121094 41.378906 65.746094 41.378906 65.746094 Z M 41.378906 65.746094 " fill-opacity="1" fill-rule="nonzero"/></g><path fill="#e7ffff" d="M 202.53125 337.460938 C 264.554688 313.667969 305.664062 263.507812 324.800781 188.21875 C 332.910156 155.113281 336.589844 121.527344 335.84375 87.453125 C 271.820312 67.199219 223.78125 47.742188 202.53125 38.726562 C 181.285156 47.742188 133.246094 67.199219 69.222656 87.453125 C 68.476562 121.527344 72.15625 155.113281 80.261719 188.21875 C 99.402344 263.507812 140.511719 313.667969 202.53125 337.460938 Z M 202.53125 337.460938 " fill-opacity="1" fill-rule="nonzero"/><path fill="#b5e0f8" d="M 202.53125 310.007812 L 202.53125 66.207031 C 179.71875 75.621094 142.277344 90.25 94.648438 105.890625 C 95.292969 131.617188 98.6875 156.976562 104.832031 181.972656 C 120.839844 244.949219 153.683594 287.96875 202.53125 310.007812 Z M 202.53125 310.007812 " fill-opacity="1" fill-rule="nonzero"/><path fill="#004aad" d="M 130.105469 155.085938 L 180.804688 155.085938 L 180.804688 104.386719 L 224.261719 104.386719 L 224.261719 155.085938 L 274.960938 155.085938 L 274.960938 198.542969 L 224.261719 198.542969 L 224.261719 249.242188 L 180.804688 249.242188 L 180.804688 198.542969 L 130.105469 198.542969 Z M 130.105469 155.085938 " fill-opacity="1" fill-rule="nonzero"/></svg>