<svg xmlns="http://www.w3.org/2000/svg" xmlns:xlink="http://www.w3.org/1999/xlink" width="500" zoomAndPan="magnify" viewBox="0 0 375 374.999991" height="500" preserveAspectRatio="xMidYMid meet" version="1.0"><defs><g/><clipPath id="93d8808139"><path d="M 108 123 L 368.230469 123 L 368.230469 264.742188 L 108 264.742188 Z M 108 123 " clip-rule="nonzero"/></clipPath><clipPath id="9290faa8c7"><path d="M 108 110.242188 L 368.230469 110.242188 L 368.230469 252 L 108 252 Z M 108 110.242188 " clip-rule="nonzero"/></clipPath></defs><g clip-path="url(#93d8808139)"><path fill="#333333" d="M 117.007812 123.390625 L 359.136719 123.390625 C 359.726562 123.390625 360.308594 123.445312 360.886719 123.5625 C 361.464844 123.675781 362.023438 123.847656 362.566406 124.070312 C 363.109375 124.296875 363.628906 124.574219 364.117188 124.898438 C 364.605469 125.226562 365.058594 125.597656 365.476562 126.015625 C 365.890625 126.429688 366.261719 126.882812 366.589844 127.371094 C 366.917969 127.863281 367.191406 128.378906 367.417969 128.921875 C 367.644531 129.464844 367.8125 130.027344 367.925781 130.601562 C 368.042969 131.179688 368.097656 131.761719 368.097656 132.351562 L 368.097656 255.765625 C 368.097656 256.355469 368.042969 256.9375 367.925781 257.515625 C 367.8125 258.09375 367.640625 258.652344 367.417969 259.195312 C 367.191406 259.738281 366.917969 260.257812 366.589844 260.746094 C 366.261719 261.234375 365.890625 261.6875 365.476562 262.105469 C 365.058594 262.519531 364.605469 262.890625 364.117188 263.21875 C 363.628906 263.546875 363.109375 263.820312 362.566406 264.046875 C 362.023438 264.273438 361.464844 264.441406 360.886719 264.554688 C 360.308594 264.671875 359.726562 264.730469 359.136719 264.730469 L 117.007812 264.730469 C 116.417969 264.730469 115.835938 264.671875 115.257812 264.554688 C 114.683594 264.441406 114.121094 264.273438 113.578125 264.046875 C 113.035156 263.820312 112.519531 263.546875 112.027344 263.21875 C 111.539062 262.890625 111.085938 262.519531 110.671875 262.105469 C 110.253906 261.6875 109.882812 261.234375 109.554688 260.746094 C 109.230469 260.257812 108.953125 259.738281 108.726562 259.195312 C 108.503906 258.652344 108.332031 258.09375 108.21875 257.515625 C 108.105469 256.9375 108.046875 256.355469 108.046875 255.765625 L 108.046875 132.351562 C 108.046875 131.761719 108.105469 131.179688 108.21875 130.601562 C 108.332031 130.027344 108.503906 129.464844 108.726562 128.921875 C 108.953125 128.378906 109.230469 127.863281 109.554688 127.371094 C 109.882812 126.882812 110.253906 126.429688 110.671875 126.015625 C 111.085938 125.597656 111.539062 125.226562 112.027344 124.898438 C 112.519531 124.574219 113.035156 124.296875 113.578125 124.070312 C 114.121094 123.847656 114.683594 123.675781 115.257812 123.5625 C 115.835938 123.445312 116.417969 123.390625 117.007812 123.390625 Z M 117.007812 123.390625 " fill-opacity="1" fill-rule="nonzero"/></g><g clip-path="url(#9290faa8c7)"><path fill="#2694e7" d="M 117.007812 110.230469 L 359.136719 110.230469 C 359.726562 110.230469 360.308594 110.289062 360.886719 110.402344 C 361.464844 110.519531 362.023438 110.6875 362.566406 110.914062 C 363.109375 111.140625 363.628906 111.414062 364.117188 111.742188 C 364.605469 112.070312 365.058594 112.441406 365.476562 112.855469 C 365.890625 113.273438 366.261719 113.726562 366.589844 114.214844 C 366.917969 114.703125 367.191406 115.21875 367.417969 115.765625 C 367.644531 116.308594 367.8125 116.867188 367.925781 117.445312 C 368.042969 118.023438 368.097656 118.605469 368.097656 119.191406 L 368.097656 242.609375 C 368.097656 243.199219 368.042969 243.78125 367.925781 244.359375 C 367.8125 244.933594 367.640625 245.496094 367.417969 246.039062 C 367.191406 246.582031 366.917969 247.097656 366.589844 247.589844 C 366.261719 248.078125 365.890625 248.53125 365.476562 248.945312 C 365.058594 249.363281 364.605469 249.734375 364.117188 250.058594 C 363.628906 250.386719 363.109375 250.664062 362.566406 250.886719 C 362.023438 251.113281 361.464844 251.285156 360.886719 251.398438 C 360.308594 251.511719 359.726562 251.570312 359.136719 251.570312 L 117.007812 251.570312 C 116.417969 251.570312 115.835938 251.511719 115.257812 251.398438 C 114.683594 251.285156 114.121094 251.113281 113.578125 250.886719 C 113.035156 250.664062 112.519531 250.386719 112.027344 250.058594 C 111.539062 249.734375 111.085938 249.363281 110.671875 248.945312 C 110.253906 248.53125 109.882812 248.078125 109.554688 247.589844 C 109.230469 247.097656 108.953125 246.582031 108.726562 246.039062 C 108.503906 245.496094 108.332031 244.933594 108.21875 244.359375 C 108.105469 243.78125 108.046875 243.199219 108.046875 242.609375 L 108.046875 119.191406 C 108.046875 118.605469 108.105469 118.023438 108.21875 117.445312 C 108.332031 116.867188 108.503906 116.308594 108.726562 115.765625 C 108.953125 115.21875 109.230469 114.703125 109.554688 114.214844 C 109.882812 113.726562 110.253906 113.273438 110.671875 112.855469 C 111.085938 112.441406 111.539062 112.070312 112.027344 111.742188 C 112.519531 111.414062 113.035156 111.140625 113.578125 110.914062 C 114.121094 110.6875 114.683594 110.519531 115.257812 110.402344 C 115.835938 110.289062 116.417969 110.230469 117.007812 110.230469 Z M 117.007812 110.230469 " fill-opacity="1" fill-rule="nonzero"/></g><path fill="#ffffff" d="M 353.222656 124.574219 L 353.222656 237.230469 L 122.925781 237.230469 L 122.925781 124.574219 L 353.222656 124.574219 M 354.234375 119.71875 L 121.929688 119.71875 C 121.417969 119.714844 120.929688 119.8125 120.457031 120.003906 C 119.984375 120.199219 119.566406 120.472656 119.207031 120.832031 C 118.84375 121.191406 118.566406 121.609375 118.367188 122.078125 C 118.171875 122.550781 118.074219 123.039062 118.070312 123.550781 L 118.070312 238.242188 C 118.070312 238.75 118.167969 239.242188 118.363281 239.710938 C 118.558594 240.183594 118.835938 240.597656 119.195312 240.960938 C 119.558594 241.320312 119.972656 241.597656 120.445312 241.792969 C 120.914062 241.988281 121.40625 242.085938 121.914062 242.085938 L 354.21875 242.085938 C 354.730469 242.085938 355.21875 241.988281 355.691406 241.792969 C 356.164062 241.597656 356.578125 241.320312 356.9375 240.960938 C 357.296875 240.597656 357.578125 240.183594 357.769531 239.710938 C 357.964844 239.242188 358.0625 238.75 358.0625 238.242188 L 358.0625 123.550781 C 358.0625 123.039062 357.96875 122.546875 357.773438 122.078125 C 357.578125 121.605469 357.300781 121.191406 356.941406 120.828125 C 356.578125 120.46875 356.164062 120.191406 355.691406 119.996094 C 355.222656 119.800781 354.730469 119.703125 354.21875 119.703125 Z M 354.234375 119.71875 " fill-opacity="1" fill-rule="nonzero"/><path fill="#2694e7" d="M 12.609375 128.625 C 39.140625 120.714844 65.117188 111.265625 90.53125 100.285156 C 115.949219 111.265625 141.925781 120.714844 168.457031 128.625 C 168.457031 128.625 181.03125 244.859375 90.53125 274.886719 C 0.0351562 244.859375 12.609375 128.625 12.609375 128.625 Z M 12.609375 128.625 " fill-opacity="1" fill-rule="nonzero"/><path fill="#e7ffff" d="M 90.53125 260.011719 C 120.523438 248.507812 140.402344 224.253906 149.65625 187.847656 C 153.578125 171.839844 155.355469 155.597656 154.996094 139.121094 C 124.039062 129.328125 100.808594 119.921875 90.53125 115.5625 C 80.257812 119.921875 57.027344 129.328125 26.070312 139.121094 C 25.710938 155.597656 27.492188 171.839844 31.410156 187.847656 C 40.664062 224.253906 60.542969 248.507812 90.53125 260.011719 Z M 90.53125 260.011719 " fill-opacity="1" fill-rule="nonzero"/><path fill="#b5e0f8" d="M 90.53125 246.738281 L 90.53125 128.847656 C 79.5 133.402344 61.394531 140.472656 38.367188 148.039062 C 38.675781 160.476562 40.320312 172.742188 43.289062 184.828125 C 51.03125 215.277344 66.914062 236.082031 90.53125 246.738281 Z M 90.53125 246.738281 " fill-opacity="1" fill-rule="nonzero"/><path fill="#004aad" d="M 55.511719 171.824219 L 80.027344 171.824219 L 80.027344 147.308594 L 101.039062 147.308594 L 101.039062 171.824219 L 125.554688 171.824219 L 125.554688 192.839844 L 101.039062 192.839844 L 101.039062 217.355469 L 80.027344 217.355469 L 80.027344 192.839844 L 55.511719 192.839844 Z M 55.511719 171.824219 " fill-opacity="1" fill-rule="nonzero"/><g fill="#004aad" fill-opacity="0.4"><g transform="translate(179.599087, 179.724948)"><g><path d="M 3.328125 0 C 2.691406 0 2.375 -0.316406 2.375 -0.953125 L 2.375 -39.53125 C 2.375 -40.164062 2.691406 -40.484375 3.328125 -40.484375 L 23.71875 -40.484375 C 25.9375 -40.484375 27.921875 -39.984375 29.671875 -38.984375 C 31.421875 -37.984375 32.800781 -36.609375 33.8125 -34.859375 C 34.832031 -33.109375 35.34375 -31.140625 35.34375 -28.953125 C 35.34375 -27.335938 35.046875 -25.847656 34.453125 -24.484375 C 33.867188 -23.117188 33.066406 -21.925781 32.046875 -20.90625 C 31.828125 -20.625 31.71875 -20.398438 31.71875 -20.234375 C 31.71875 -20.078125 31.828125 -19.859375 32.046875 -19.578125 C 33.066406 -18.585938 33.867188 -17.394531 34.453125 -16 C 35.046875 -14.601562 35.34375 -13.097656 35.34375 -11.484375 C 35.34375 -9.316406 34.832031 -7.359375 33.8125 -5.609375 C 32.800781 -3.867188 31.421875 -2.5 29.671875 -1.5 C 27.921875 -0.5 25.9375 0 23.71875 0 Z M 8.8125 -22.859375 L 23.71875 -22.859375 C 25.53125 -22.859375 27.003906 -23.4375 28.140625 -24.59375 C 29.285156 -25.757812 29.859375 -27.210938 29.859375 -28.953125 C 29.859375 -30.734375 29.285156 -32.226562 28.140625 -33.4375 C 27.003906 -34.644531 25.53125 -35.25 23.71875 -35.25 L 8.8125 -35.25 C 8.175781 -35.25 7.859375 -34.929688 7.859375 -34.296875 L 7.859375 -23.8125 C 7.859375 -23.175781 8.175781 -22.859375 8.8125 -22.859375 Z M 8.8125 -5.1875 L 23.71875 -5.1875 C 25.5 -5.1875 26.96875 -5.773438 28.125 -6.953125 C 29.28125 -8.128906 29.859375 -9.640625 29.859375 -11.484375 C 29.859375 -13.253906 29.28125 -14.71875 28.125 -15.875 C 26.96875 -17.039062 25.5 -17.625 23.71875 -17.625 L 8.8125 -17.625 C 8.175781 -17.625 7.859375 -17.304688 7.859375 -16.671875 L 7.859375 -6.140625 C 7.859375 -5.503906 8.175781 -5.1875 8.8125 -5.1875 Z M 8.8125 -5.1875 "/></g></g></g><g fill="#004aad" fill-opacity="0.4"><g transform="translate(220.128936, 179.724948)"><g><path d="M 15.71875 0 C 13.175781 0 10.894531 -0.578125 8.875 -1.734375 C 6.863281 -2.898438 5.273438 -4.488281 4.109375 -6.5 C 2.953125 -8.519531 2.375 -10.796875 2.375 -13.328125 L 2.375 -39.53125 C 2.375 -40.164062 2.691406 -40.484375 3.328125 -40.484375 L 6.671875 -40.484375 C 7.304688 -40.484375 7.625 -40.164062 7.625 -39.53125 L 7.625 -13.328125 C 7.625 -11.742188 7.972656 -10.335938 8.671875 -9.109375 C 9.367188 -7.890625 10.328125 -6.9375 11.546875 -6.25 C 12.765625 -5.570312 14.15625 -5.234375 15.71875 -5.234375 L 20.484375 -5.234375 C 22.066406 -5.234375 23.46875 -5.570312 24.6875 -6.25 C 25.914062 -6.9375 26.867188 -7.890625 27.546875 -9.109375 C 28.234375 -10.335938 28.578125 -11.742188 28.578125 -13.328125 L 28.578125 -39.53125 C 28.578125 -40.164062 28.894531 -40.484375 29.53125 -40.484375 L 32.859375 -40.484375 C 33.492188 -40.484375 33.8125 -40.164062 33.8125 -39.53125 L 33.8125 -13.328125 C 33.8125 -10.796875 33.234375 -8.519531 32.078125 -6.5 C 30.921875 -4.488281 29.34375 -2.898438 27.34375 -1.734375 C 25.34375 -0.578125 23.054688 0 20.484375 0 Z M 15.71875 0 "/></g></g></g><g fill="#004aad" fill-opacity="0.4"><g transform="translate(259.849162, 179.724948)"><g><path d="M 3.328125 0 C 3.078125 0 2.851562 -0.09375 2.65625 -0.28125 C 2.46875 -0.476562 2.375 -0.703125 2.375 -0.953125 L 2.375 -39.53125 C 2.375 -39.78125 2.46875 -40 2.65625 -40.1875 C 2.851562 -40.382812 3.078125 -40.484375 3.328125 -40.484375 L 30.234375 -40.484375 C 30.492188 -40.484375 30.71875 -40.382812 30.90625 -40.1875 C 31.09375 -40 31.1875 -39.78125 31.1875 -39.53125 L 31.1875 -36.1875 C 31.1875 -35.9375 31.09375 -35.71875 30.90625 -35.53125 C 30.71875 -35.34375 30.492188 -35.25 30.234375 -35.25 L 8.578125 -35.25 C 8.316406 -35.25 8.09375 -35.148438 7.90625 -34.953125 C 7.71875 -34.765625 7.625 -34.546875 7.625 -34.296875 L 7.625 -23.8125 C 7.625 -23.5625 7.71875 -23.335938 7.90625 -23.140625 C 8.09375 -22.953125 8.316406 -22.859375 8.578125 -22.859375 L 28.8125 -22.859375 C 29.0625 -22.859375 29.28125 -22.757812 29.46875 -22.5625 C 29.664062 -22.375 29.765625 -22.15625 29.765625 -21.90625 L 29.765625 -18.578125 C 29.765625 -18.316406 29.664062 -18.09375 29.46875 -17.90625 C 29.28125 -17.71875 29.0625 -17.625 28.8125 -17.625 L 8.578125 -17.625 C 8.316406 -17.625 8.09375 -17.523438 7.90625 -17.328125 C 7.71875 -17.140625 7.625 -16.921875 7.625 -16.671875 L 7.625 -6.1875 C 7.625 -5.9375 7.71875 -5.710938 7.90625 -5.515625 C 8.09375 -5.328125 8.316406 -5.234375 8.578125 -5.234375 L 30.234375 -5.234375 C 30.492188 -5.234375 30.71875 -5.140625 30.90625 -4.953125 C 31.09375 -4.765625 31.1875 -4.539062 31.1875 -4.28125 L 31.1875 -0.953125 C 31.1875 -0.703125 31.09375 -0.476562 30.90625 -0.28125 C 30.71875 -0.09375 30.492188 0 30.234375 0 Z M 3.328125 0 "/></g></g></g><g fill="#004aad" fill-opacity="0.4"><g transform="translate(296.235638, 179.724948)"><g><path d="M 3.328125 0 C 2.691406 0 2.375 -0.316406 2.375 -0.953125 L 2.375 -39.53125 C 2.375 -40.164062 2.691406 -40.484375 3.328125 -40.484375 L 7.578125 -40.484375 C 8.078125 -40.484375 8.457031 -40.273438 8.71875 -39.859375 L 27.4375 -10.375 C 27.625 -10.0625 27.828125 -9.90625 28.046875 -9.90625 C 28.398438 -9.90625 28.578125 -10.175781 28.578125 -10.71875 L 28.578125 -39.53125 C 28.578125 -40.164062 28.894531 -40.484375 29.53125 -40.484375 L 32.859375 -40.484375 C 33.492188 -40.484375 33.8125 -40.164062 33.8125 -39.53125 L 33.8125 -0.953125 C 33.8125 -0.316406 33.492188 0 32.859375 0 L 28.578125 0 C 28.066406 0 27.6875 -0.207031 27.4375 -0.625 L 8.765625 -30.09375 C 8.578125 -30.414062 8.367188 -30.578125 8.140625 -30.578125 C 7.796875 -30.578125 7.625 -30.304688 7.625 -29.765625 L 7.625 -0.953125 C 7.625 -0.316406 7.304688 0 6.671875 0 Z M 3.328125 0 "/></g></g></g><g fill="#ffffff" fill-opacity="1"><g transform="translate(177.493733, 177.619604)"><g><path d="M 3.328125 0 C 2.691406 0 2.375 -0.316406 2.375 -0.953125 L 2.375 -39.53125 C 2.375 -40.164062 2.691406 -40.484375 3.328125 -40.484375 L 23.71875 -40.484375 C 25.9375 -40.484375 27.921875 -39.984375 29.671875 -38.984375 C 31.421875 -37.984375 32.800781 -36.609375 33.8125 -34.859375 C 34.832031 -33.109375 35.34375 -31.140625 35.34375 -28.953125 C 35.34375 -27.335938 35.046875 -25.847656 34.453125 -24.484375 C 33.867188 -23.117188 33.066406 -21.925781 32.046875 -20.90625 C 31.828125 -20.625 31.71875 -20.398438 31.71875 -20.234375 C 31.71875 -20.078125 31.828125 -19.859375 32.046875 -19.578125 C 33.066406 -18.585938 33.867188 -17.394531 34.453125 -16 C 35.046875 -14.601562 35.34375 -13.097656 35.34375 -11.484375 C 35.34375 -9.316406 34.832031 -7.359375 33.8125 -5.609375 C 32.800781 -3.867188 31.421875 -2.5 29.671875 -1.5 C 27.921875 -0.5 25.9375 0 23.71875 0 Z M 8.8125 -22.859375 L 23.71875 -22.859375 C 25.53125 -22.859375 27.003906 -23.4375 28.140625 -24.59375 C 29.285156 -25.757812 29.859375 -27.210938 29.859375 -28.953125 C 29.859375 -30.734375 29.285156 -32.226562 28.140625 -33.4375 C 27.003906 -34.644531 25.53125 -35.25 23.71875 -35.25 L 8.8125 -35.25 C 8.175781 -35.25 7.859375 -34.929688 7.859375 -34.296875 L 7.859375 -23.8125 C 7.859375 -23.175781 8.175781 -22.859375 8.8125 -22.859375 Z M 8.8125 -5.1875 L 23.71875 -5.1875 C 25.5 -5.1875 26.96875 -5.773438 28.125 -6.953125 C 29.28125 -8.128906 29.859375 -9.640625 29.859375 -11.484375 C 29.859375 -13.253906 29.28125 -14.71875 28.125 -15.875 C 26.96875 -17.039062 25.5 -17.625 23.71875 -17.625 L 8.8125 -17.625 C 8.175781 -17.625 7.859375 -17.304688 7.859375 -16.671875 L 7.859375 -6.140625 C 7.859375 -5.503906 8.175781 -5.1875 8.8125 -5.1875 Z M 8.8125 -5.1875 "/></g></g></g><g fill="#ffffff" fill-opacity="1"><g transform="translate(218.023582, 177.619604)"><g><path d="M 15.71875 0 C 13.175781 0 10.894531 -0.578125 8.875 -1.734375 C 6.863281 -2.898438 5.273438 -4.488281 4.109375 -6.5 C 2.953125 -8.519531 2.375 -10.796875 2.375 -13.328125 L 2.375 -39.53125 C 2.375 -40.164062 2.691406 -40.484375 3.328125 -40.484375 L 6.671875 -40.484375 C 7.304688 -40.484375 7.625 -40.164062 7.625 -39.53125 L 7.625 -13.328125 C 7.625 -11.742188 7.972656 -10.335938 8.671875 -9.109375 C 9.367188 -7.890625 10.328125 -6.9375 11.546875 -6.25 C 12.765625 -5.570312 14.15625 -5.234375 15.71875 -5.234375 L 20.484375 -5.234375 C 22.066406 -5.234375 23.46875 -5.570312 24.6875 -6.25 C 25.914062 -6.9375 26.867188 -7.890625 27.546875 -9.109375 C 28.234375 -10.335938 28.578125 -11.742188 28.578125 -13.328125 L 28.578125 -39.53125 C 28.578125 -40.164062 28.894531 -40.484375 29.53125 -40.484375 L 32.859375 -40.484375 C 33.492188 -40.484375 33.8125 -40.164062 33.8125 -39.53125 L 33.8125 -13.328125 C 33.8125 -10.796875 33.234375 -8.519531 32.078125 -6.5 C 30.921875 -4.488281 29.34375 -2.898438 27.34375 -1.734375 C 25.34375 -0.578125 23.054688 0 20.484375 0 Z M 15.71875 0 "/></g></g></g><g fill="#ffffff" fill-opacity="1"><g transform="translate(257.743808, 177.619604)"><g><path d="M 3.328125 0 C 3.078125 0 2.851562 -0.09375 2.65625 -0.28125 C 2.46875 -0.476562 2.375 -0.703125 2.375 -0.953125 L 2.375 -39.53125 C 2.375 -39.78125 2.46875 -40 2.65625 -40.1875 C 2.851562 -40.382812 3.078125 -40.484375 3.328125 -40.484375 L 30.234375 -40.484375 C 30.492188 -40.484375 30.71875 -40.382812 30.90625 -40.1875 C 31.09375 -40 31.1875 -39.78125 31.1875 -39.53125 L 31.1875 -36.1875 C 31.1875 -35.9375 31.09375 -35.71875 30.90625 -35.53125 C 30.71875 -35.34375 30.492188 -35.25 30.234375 -35.25 L 8.578125 -35.25 C 8.316406 -35.25 8.09375 -35.148438 7.90625 -34.953125 C 7.71875 -34.765625 7.625 -34.546875 7.625 -34.296875 L 7.625 -23.8125 C 7.625 -23.5625 7.71875 -23.335938 7.90625 -23.140625 C 8.09375 -22.953125 8.316406 -22.859375 8.578125 -22.859375 L 28.8125 -22.859375 C 29.0625 -22.859375 29.28125 -22.757812 29.46875 -22.5625 C 29.664062 -22.375 29.765625 -22.15625 29.765625 -21.90625 L 29.765625 -18.578125 C 29.765625 -18.316406 29.664062 -18.09375 29.46875 -17.90625 C 29.28125 -17.71875 29.0625 -17.625 28.8125 -17.625 L 8.578125 -17.625 C 8.316406 -17.625 8.09375 -17.523438 7.90625 -17.328125 C 7.71875 -17.140625 7.625 -16.921875 7.625 -16.671875 L 7.625 -6.1875 C 7.625 -5.9375 7.71875 -5.710938 7.90625 -5.515625 C 8.09375 -5.328125 8.316406 -5.234375 8.578125 -5.234375 L 30.234375 -5.234375 C 30.492188 -5.234375 30.71875 -5.140625 30.90625 -4.953125 C 31.09375 -4.765625 31.1875 -4.539062 31.1875 -4.28125 L 31.1875 -0.953125 C 31.1875 -0.703125 31.09375 -0.476562 30.90625 -0.28125 C 30.71875 -0.09375 30.492188 0 30.234375 0 Z M 3.328125 0 "/></g></g></g><g fill="#ffffff" fill-opacity="1"><g transform="translate(294.130284, 177.619604)"><g><path d="M 3.328125 0 C 2.691406 0 2.375 -0.316406 2.375 -0.953125 L 2.375 -39.53125 C 2.375 -40.164062 2.691406 -40.484375 3.328125 -40.484375 L 7.578125 -40.484375 C 8.078125 -40.484375 8.457031 -40.273438 8.71875 -39.859375 L 27.4375 -10.375 C 27.625 -10.0625 27.828125 -9.90625 28.046875 -9.90625 C 28.398438 -9.90625 28.578125 -10.175781 28.578125 -10.71875 L 28.578125 -39.53125 C 28.578125 -40.164062 28.894531 -40.484375 29.53125 -40.484375 L 32.859375 -40.484375 C 33.492188 -40.484375 33.8125 -40.164062 33.8125 -39.53125 L 33.8125 -0.953125 C 33.8125 -0.316406 33.492188 0 32.859375 0 L 28.578125 0 C 28.066406 0 27.6875 -0.207031 27.4375 -0.625 L 8.765625 -30.09375 C 8.578125 -30.414062 8.367188 -30.578125 8.140625 -30.578125 C 7.796875 -30.578125 7.625 -30.304688 7.625 -29.765625 L 7.625 -0.953125 C 7.625 -0.316406 7.304688 0 6.671875 0 Z M 3.328125 0 "/></g></g></g><g fill="#004aad" fill-opacity="0.4"><g transform="translate(335.962362, 179.724948)"><g/></g></g><g fill="#ffffff" fill-opacity="1"><g transform="translate(333.857007, 177.619604)"><g/></g></g><g fill="#004aad" fill-opacity="0.4"><g transform="translate(183.40768, 230.441908)"><g><path d="M 3.328125 0 C 3.078125 0 2.851562 -0.09375 2.65625 -0.28125 C 2.46875 -0.476562 2.375 -0.703125 2.375 -0.953125 L 2.375 -39.53125 C 2.375 -39.78125 2.46875 -40 2.65625 -40.1875 C 2.851562 -40.382812 3.078125 -40.484375 3.328125 -40.484375 L 22.71875 -40.484375 C 24.84375 -40.484375 26.738281 -40 28.40625 -39.03125 C 30.070312 -38.0625 31.390625 -36.742188 32.359375 -35.078125 C 33.328125 -33.410156 33.8125 -31.515625 33.8125 -29.390625 L 33.8125 -27.296875 C 33.8125 -25.160156 33.328125 -23.257812 32.359375 -21.59375 C 31.390625 -19.925781 30.070312 -18.609375 28.40625 -17.640625 C 26.738281 -16.671875 24.84375 -16.1875 22.71875 -16.1875 L 8.578125 -16.1875 C 8.316406 -16.1875 8.09375 -16.09375 7.90625 -15.90625 C 7.71875 -15.71875 7.625 -15.492188 7.625 -15.234375 L 7.625 -0.953125 C 7.625 -0.703125 7.523438 -0.476562 7.328125 -0.28125 C 7.140625 -0.09375 6.921875 0 6.671875 0 Z M 8.578125 -21.4375 L 22.71875 -21.4375 C 24.46875 -21.4375 25.878906 -21.972656 26.953125 -23.046875 C 28.035156 -24.128906 28.578125 -25.546875 28.578125 -27.296875 L 28.578125 -29.390625 C 28.578125 -31.128906 28.035156 -32.539062 26.953125 -33.625 C 25.878906 -34.707031 24.46875 -35.25 22.71875 -35.25 L 8.578125 -35.25 C 8.316406 -35.25 8.09375 -35.148438 7.90625 -34.953125 C 7.71875 -34.765625 7.625 -34.546875 7.625 -34.296875 L 7.625 -22.390625 C 7.625 -22.128906 7.71875 -21.90625 7.90625 -21.71875 C 8.09375 -21.53125 8.316406 -21.4375 8.578125 -21.4375 Z M 8.578125 -21.4375 "/></g></g></g><g fill="#004aad" fill-opacity="0.4"><g transform="translate(221.699157, 230.441908)"><g><path d="M 3.328125 0 C 3.078125 0 2.851562 -0.09375 2.65625 -0.28125 C 2.46875 -0.476562 2.375 -0.703125 2.375 -0.953125 L 2.375 -39.53125 C 2.375 -39.78125 2.46875 -40 2.65625 -40.1875 C 2.851562 -40.382812 3.078125 -40.484375 3.328125 -40.484375 L 6.671875 -40.484375 C 6.921875 -40.484375 7.140625 -40.382812 7.328125 -40.1875 C 7.523438 -40 7.625 -39.78125 7.625 -39.53125 L 7.625 -6.1875 C 7.625 -5.9375 7.71875 -5.710938 7.90625 -5.515625 C 8.09375 -5.328125 8.316406 -5.234375 8.578125 -5.234375 L 23.90625 -5.234375 C 24.15625 -5.234375 24.375 -5.140625 24.5625 -4.953125 C 24.757812 -4.765625 24.859375 -4.539062 24.859375 -4.28125 L 24.859375 -0.953125 C 24.859375 -0.703125 24.757812 -0.476562 24.5625 -0.28125 C 24.375 -0.09375 24.15625 0 23.90625 0 Z M 3.328125 0 "/></g></g></g><g fill="#004aad" fill-opacity="0.4"><g transform="translate(250.799014, 230.441908)"><g><path d="M 1.140625 0 C 0.566406 0 0.28125 -0.222656 0.28125 -0.671875 C 0.28125 -0.765625 0.3125 -0.90625 0.375 -1.09375 L 15.578125 -39.71875 C 15.765625 -40.226562 16.128906 -40.484375 16.671875 -40.484375 L 21.4375 -40.484375 C 21.96875 -40.484375 22.332031 -40.226562 22.53125 -39.71875 L 37.71875 -1.09375 C 37.78125 -0.90625 37.8125 -0.765625 37.8125 -0.671875 C 37.8125 -0.222656 37.523438 0 36.953125 0 L 33.34375 0 C 32.800781 0 32.429688 -0.253906 32.234375 -0.765625 L 29.390625 -8 C 29.191406 -8.507812 28.828125 -8.765625 28.296875 -8.765625 L 9.8125 -8.765625 C 9.269531 -8.765625 8.90625 -8.507812 8.71875 -8 L 5.859375 -0.765625 C 5.671875 -0.253906 5.304688 0 4.765625 0 Z M 12.234375 -14 L 25.859375 -14 C 26.429688 -14 26.71875 -14.222656 26.71875 -14.671875 C 26.71875 -14.765625 26.6875 -14.90625 26.625 -15.09375 L 19.671875 -32.765625 C 19.546875 -33.179688 19.335938 -33.390625 19.046875 -33.390625 C 18.828125 -33.390625 18.625 -33.179688 18.4375 -32.765625 L 11.484375 -15.09375 C 11.410156 -14.90625 11.375 -14.765625 11.375 -14.671875 C 11.375 -14.222656 11.660156 -14 12.234375 -14 Z M 12.234375 -14 "/></g></g></g><g fill="#004aad" fill-opacity="0.4"><g transform="translate(292.424228, 230.441908)"><g><path d="M 3.328125 0 C 2.691406 0 2.375 -0.316406 2.375 -0.953125 L 2.375 -39.53125 C 2.375 -40.164062 2.691406 -40.484375 3.328125 -40.484375 L 7.578125 -40.484375 C 8.078125 -40.484375 8.457031 -40.273438 8.71875 -39.859375 L 27.4375 -10.375 C 27.625 -10.0625 27.828125 -9.90625 28.046875 -9.90625 C 28.398438 -9.90625 28.578125 -10.175781 28.578125 -10.71875 L 28.578125 -39.53125 C 28.578125 -40.164062 28.894531 -40.484375 29.53125 -40.484375 L 32.859375 -40.484375 C 33.492188 -40.484375 33.8125 -40.164062 33.8125 -39.53125 L 33.8125 -0.953125 C 33.8125 -0.316406 33.492188 0 32.859375 0 L 28.578125 0 C 28.066406 0 27.6875 -0.207031 27.4375 -0.625 L 8.765625 -30.09375 C 8.578125 -30.414062 8.367188 -30.578125 8.140625 -30.578125 C 7.796875 -30.578125 7.625 -30.304688 7.625 -29.765625 L 7.625 -0.953125 C 7.625 -0.316406 7.304688 0 6.671875 0 Z M 3.328125 0 "/></g></g></g><g fill="#ffffff" fill-opacity="1"><g transform="translate(181.302326, 228.336561)"><g><path d="M 3.328125 0 C 3.078125 0 2.851562 -0.09375 2.65625 -0.28125 C 2.46875 -0.476562 2.375 -0.703125 2.375 -0.953125 L 2.375 -39.53125 C 2.375 -39.78125 2.46875 -40 2.65625 -40.1875 C 2.851562 -40.382812 3.078125 -40.484375 3.328125 -40.484375 L 22.71875 -40.484375 C 24.84375 -40.484375 26.738281 -40 28.40625 -39.03125 C 30.070312 -38.0625 31.390625 -36.742188 32.359375 -35.078125 C 33.328125 -33.410156 33.8125 -31.515625 33.8125 -29.390625 L 33.8125 -27.296875 C 33.8125 -25.160156 33.328125 -23.257812 32.359375 -21.59375 C 31.390625 -19.925781 30.070312 -18.609375 28.40625 -17.640625 C 26.738281 -16.671875 24.84375 -16.1875 22.71875 -16.1875 L 8.578125 -16.1875 C 8.316406 -16.1875 8.09375 -16.09375 7.90625 -15.90625 C 7.71875 -15.71875 7.625 -15.492188 7.625 -15.234375 L 7.625 -0.953125 C 7.625 -0.703125 7.523438 -0.476562 7.328125 -0.28125 C 7.140625 -0.09375 6.921875 0 6.671875 0 Z M 8.578125 -21.4375 L 22.71875 -21.4375 C 24.46875 -21.4375 25.878906 -21.972656 26.953125 -23.046875 C 28.035156 -24.128906 28.578125 -25.546875 28.578125 -27.296875 L 28.578125 -29.390625 C 28.578125 -31.128906 28.035156 -32.539062 26.953125 -33.625 C 25.878906 -34.707031 24.46875 -35.25 22.71875 -35.25 L 8.578125 -35.25 C 8.316406 -35.25 8.09375 -35.148438 7.90625 -34.953125 C 7.71875 -34.765625 7.625 -34.546875 7.625 -34.296875 L 7.625 -22.390625 C 7.625 -22.128906 7.71875 -21.90625 7.90625 -21.71875 C 8.09375 -21.53125 8.316406 -21.4375 8.578125 -21.4375 Z M 8.578125 -21.4375 "/></g></g></g><g fill="#ffffff" fill-opacity="1"><g transform="translate(219.593802, 228.336561)"><g><path d="M 3.328125 0 C 3.078125 0 2.851562 -0.09375 2.65625 -0.28125 C 2.46875 -0.476562 2.375 -0.703125 2.375 -0.953125 L 2.375 -39.53125 C 2.375 -39.78125 2.46875 -40 2.65625 -40.1875 C 2.851562 -40.382812 3.078125 -40.484375 3.328125 -40.484375 L 6.671875 -40.484375 C 6.921875 -40.484375 7.140625 -40.382812 7.328125 -40.1875 C 7.523438 -40 7.625 -39.78125 7.625 -39.53125 L 7.625 -6.1875 C 7.625 -5.9375 7.71875 -5.710938 7.90625 -5.515625 C 8.09375 -5.328125 8.316406 -5.234375 8.578125 -5.234375 L 23.90625 -5.234375 C 24.15625 -5.234375 24.375 -5.140625 24.5625 -4.953125 C 24.757812 -4.765625 24.859375 -4.539062 24.859375 -4.28125 L 24.859375 -0.953125 C 24.859375 -0.703125 24.757812 -0.476562 24.5625 -0.28125 C 24.375 -0.09375 24.15625 0 23.90625 0 Z M 3.328125 0 "/></g></g></g><g fill="#ffffff" fill-opacity="1"><g transform="translate(248.693659, 228.336561)"><g><path d="M 1.140625 0 C 0.566406 0 0.28125 -0.222656 0.28125 -0.671875 C 0.28125 -0.765625 0.3125 -0.90625 0.375 -1.09375 L 15.578125 -39.71875 C 15.765625 -40.226562 16.128906 -40.484375 16.671875 -40.484375 L 21.4375 -40.484375 C 21.96875 -40.484375 22.332031 -40.226562 22.53125 -39.71875 L 37.71875 -1.09375 C 37.78125 -0.90625 37.8125 -0.765625 37.8125 -0.671875 C 37.8125 -0.222656 37.523438 0 36.953125 0 L 33.34375 0 C 32.800781 0 32.429688 -0.253906 32.234375 -0.765625 L 29.390625 -8 C 29.191406 -8.507812 28.828125 -8.765625 28.296875 -8.765625 L 9.8125 -8.765625 C 9.269531 -8.765625 8.90625 -8.507812 8.71875 -8 L 5.859375 -0.765625 C 5.671875 -0.253906 5.304688 0 4.765625 0 Z M 12.234375 -14 L 25.859375 -14 C 26.429688 -14 26.71875 -14.222656 26.71875 -14.671875 C 26.71875 -14.765625 26.6875 -14.90625 26.625 -15.09375 L 19.671875 -32.765625 C 19.546875 -33.179688 19.335938 -33.390625 19.046875 -33.390625 C 18.828125 -33.390625 18.625 -33.179688 18.4375 -32.765625 L 11.484375 -15.09375 C 11.410156 -14.90625 11.375 -14.765625 11.375 -14.671875 C 11.375 -14.222656 11.660156 -14 12.234375 -14 Z M 12.234375 -14 "/></g></g></g><g fill="#ffffff" fill-opacity="1"><g transform="translate(290.318874, 228.336561)"><g><path d="M 3.328125 0 C 2.691406 0 2.375 -0.316406 2.375 -0.953125 L 2.375 -39.53125 C 2.375 -40.164062 2.691406 -40.484375 3.328125 -40.484375 L 7.578125 -40.484375 C 8.078125 -40.484375 8.457031 -40.273438 8.71875 -39.859375 L 27.4375 -10.375 C 27.625 -10.0625 27.828125 -9.90625 28.046875 -9.90625 C 28.398438 -9.90625 28.578125 -10.175781 28.578125 -10.71875 L 28.578125 -39.53125 C 28.578125 -40.164062 28.894531 -40.484375 29.53125 -40.484375 L 32.859375 -40.484375 C 33.492188 -40.484375 33.8125 -40.164062 33.8125 -39.53125 L 33.8125 -0.953125 C 33.8125 -0.316406 33.492188 0 32.859375 0 L 28.578125 0 C 28.066406 0 27.6875 -0.207031 27.4375 -0.625 L 8.765625 -30.09375 C 8.578125 -30.414062 8.367188 -30.578125 8.140625 -30.578125 C 7.796875 -30.578125 7.625 -30.304688 7.625 -29.765625 L 7.625 -0.953125 C 7.625 -0.316406 7.304688 0 6.671875 0 Z M 3.328125 0 "/></g></g></g><g fill="#004aad" fill-opacity="0.4"><g transform="translate(332.153764, 230.441908)"><g/></g></g><g fill="#ffffff" fill-opacity="1"><g transform="translate(330.04841, 228.336561)"><g/></g></g></svg>