<svg xmlns="http://www.w3.org/2000/svg" xmlns:xlink="http://www.w3.org/1999/xlink" width="500" zoomAndPan="magnify" viewBox="0 0 375 374.999991" height="500" preserveAspectRatio="xMidYMid meet" version="1.0"><defs><g/><clipPath id="a68696977f"><path d="M 108 123 L 368.582031 123 L 368.582031 264.644531 L 108 264.644531 Z M 108 123 " clip-rule="nonzero"/></clipPath><clipPath id="ea8d0140f4"><path d="M 108 110.242188 L 368.582031 110.242188 L 368.582031 252 L 108 252 Z M 108 110.242188 " clip-rule="nonzero"/></clipPath></defs><g clip-path="url(#a68696977f)"><path fill="#333333" d="M 117.019531 123.390625 L 359.136719 123.390625 C 359.722656 123.390625 360.304688 123.445312 360.882812 123.5625 C 361.460938 123.675781 362.019531 123.847656 362.5625 124.070312 C 363.109375 124.296875 363.625 124.570312 364.113281 124.898438 C 364.601562 125.226562 365.054688 125.597656 365.472656 126.011719 C 365.886719 126.429688 366.257812 126.882812 366.585938 127.371094 C 366.914062 127.859375 367.1875 128.378906 367.414062 128.921875 C 367.640625 129.464844 367.808594 130.023438 367.921875 130.601562 C 368.039062 131.179688 368.097656 131.761719 368.097656 132.351562 L 368.097656 255.757812 C 368.097656 256.347656 368.039062 256.929688 367.921875 257.507812 C 367.808594 258.085938 367.640625 258.644531 367.414062 259.1875 C 367.1875 259.730469 366.914062 260.25 366.585938 260.738281 C 366.257812 261.226562 365.886719 261.679688 365.472656 262.09375 C 365.054688 262.511719 364.601562 262.882812 364.113281 263.210938 C 363.625 263.535156 363.109375 263.8125 362.5625 264.039062 C 362.019531 264.261719 361.460938 264.433594 360.882812 264.546875 C 360.304688 264.664062 359.722656 264.71875 359.136719 264.71875 L 117.019531 264.71875 C 116.429688 264.71875 115.847656 264.664062 115.269531 264.546875 C 114.691406 264.433594 114.132812 264.261719 113.589844 264.039062 C 113.042969 263.8125 112.527344 263.535156 112.039062 263.210938 C 111.550781 262.882812 111.097656 262.511719 110.679688 262.09375 C 110.265625 261.679688 109.894531 261.226562 109.566406 260.738281 C 109.238281 260.25 108.964844 259.730469 108.738281 259.1875 C 108.511719 258.644531 108.34375 258.085938 108.230469 257.507812 C 108.113281 256.929688 108.054688 256.347656 108.054688 255.757812 L 108.054688 132.351562 C 108.054688 131.761719 108.113281 131.179688 108.230469 130.601562 C 108.34375 130.023438 108.511719 129.464844 108.738281 128.921875 C 108.964844 128.378906 109.238281 127.859375 109.566406 127.371094 C 109.894531 126.882812 110.265625 126.429688 110.679688 126.011719 C 111.097656 125.597656 111.550781 125.226562 112.039062 124.898438 C 112.527344 124.570312 113.042969 124.296875 113.589844 124.070312 C 114.132812 123.847656 114.691406 123.675781 115.269531 123.5625 C 115.847656 123.445312 116.429688 123.390625 117.019531 123.390625 Z M 117.019531 123.390625 " fill-opacity="1" fill-rule="nonzero"/></g><g clip-path="url(#ea8d0140f4)"><path fill="#2694e7" d="M 117.019531 110.230469 L 359.136719 110.230469 C 359.722656 110.230469 360.304688 110.289062 360.882812 110.402344 C 361.460938 110.519531 362.019531 110.6875 362.5625 110.914062 C 363.109375 111.140625 363.625 111.414062 364.113281 111.742188 C 364.601562 112.070312 365.054688 112.441406 365.472656 112.855469 C 365.886719 113.273438 366.257812 113.726562 366.585938 114.214844 C 366.914062 114.703125 367.1875 115.21875 367.414062 115.761719 C 367.640625 116.308594 367.808594 116.867188 367.921875 117.445312 C 368.039062 118.023438 368.097656 118.605469 368.097656 119.191406 L 368.097656 242.601562 C 368.097656 243.191406 368.039062 243.773438 367.921875 244.351562 C 367.808594 244.925781 367.640625 245.488281 367.414062 246.03125 C 367.1875 246.574219 366.914062 247.089844 366.585938 247.582031 C 366.257812 248.070312 365.886719 248.523438 365.472656 248.9375 C 365.054688 249.355469 364.601562 249.726562 364.113281 250.054688 C 363.625 250.378906 363.109375 250.65625 362.5625 250.882812 C 362.019531 251.105469 361.460938 251.277344 360.882812 251.390625 C 360.304688 251.503906 359.722656 251.5625 359.136719 251.5625 L 117.019531 251.5625 C 116.429688 251.5625 115.847656 251.503906 115.269531 251.390625 C 114.691406 251.277344 114.132812 251.105469 113.589844 250.882812 C 113.042969 250.65625 112.527344 250.378906 112.039062 250.054688 C 111.550781 249.726562 111.097656 249.355469 110.679688 248.9375 C 110.265625 248.523438 109.894531 248.070312 109.566406 247.582031 C 109.238281 247.089844 108.964844 246.574219 108.738281 246.03125 C 108.511719 245.488281 108.34375 244.925781 108.230469 244.351562 C 108.113281 243.773438 108.054688 243.191406 108.054688 242.601562 L 108.054688 119.191406 C 108.054688 118.605469 108.113281 118.023438 108.230469 117.445312 C 108.34375 116.867188 108.511719 116.308594 108.738281 115.761719 C 108.964844 115.21875 109.238281 114.703125 109.566406 114.214844 C 109.894531 113.726562 110.265625 113.273438 110.679688 112.855469 C 111.097656 112.441406 111.550781 112.070312 112.039062 111.742188 C 112.527344 111.414062 113.042969 111.140625 113.589844 110.914062 C 114.132812 110.6875 114.691406 110.519531 115.269531 110.402344 C 115.847656 110.289062 116.429688 110.230469 117.019531 110.230469 Z M 117.019531 110.230469 " fill-opacity="1" fill-rule="nonzero"/></g><path fill="#ffffff" d="M 353.222656 124.574219 L 353.222656 237.222656 L 122.933594 237.222656 L 122.933594 124.574219 L 353.222656 124.574219 M 354.234375 119.714844 L 121.9375 119.714844 C 121.429688 119.714844 120.9375 119.808594 120.464844 120.003906 C 119.992188 120.199219 119.578125 120.472656 119.214844 120.832031 C 118.855469 121.191406 118.574219 121.609375 118.378906 122.078125 C 118.179688 122.546875 118.082031 123.039062 118.082031 123.546875 L 118.082031 238.234375 C 118.082031 238.746094 118.179688 239.234375 118.375 239.707031 C 118.566406 240.175781 118.847656 240.59375 119.207031 240.953125 C 119.566406 241.3125 119.980469 241.589844 120.453125 241.785156 C 120.921875 241.980469 121.414062 242.078125 121.921875 242.078125 L 354.21875 242.078125 C 354.726562 242.078125 355.21875 241.980469 355.6875 241.785156 C 356.160156 241.589844 356.574219 241.3125 356.933594 240.953125 C 357.296875 240.59375 357.574219 240.175781 357.769531 239.707031 C 357.964844 239.234375 358.0625 238.746094 358.0625 238.234375 L 358.0625 123.546875 C 358.0625 123.039062 357.964844 122.546875 357.769531 122.078125 C 357.574219 121.605469 357.296875 121.191406 356.9375 120.828125 C 356.574219 120.46875 356.160156 120.191406 355.6875 119.996094 C 355.21875 119.800781 354.726562 119.703125 354.21875 119.703125 Z M 354.234375 119.714844 " fill-opacity="1" fill-rule="nonzero"/><path fill="#2694e7" d="M 12.609375 128.625 C 39.140625 120.710938 65.117188 111.265625 90.535156 100.285156 C 115.949219 111.265625 141.925781 120.710938 168.457031 128.625 C 168.457031 128.625 181.03125 244.855469 90.535156 274.882812 C 0.0351562 244.855469 12.609375 128.625 12.609375 128.625 Z M 12.609375 128.625 " fill-opacity="1" fill-rule="nonzero"/><path fill="#e7ffff" d="M 90.535156 260.011719 C 120.523438 248.503906 140.402344 224.25 149.65625 187.84375 C 153.578125 171.835938 155.355469 155.597656 154.996094 139.121094 C 124.039062 129.324219 100.808594 119.917969 90.535156 115.558594 C 80.257812 119.917969 57.027344 129.324219 26.070312 139.121094 C 25.710938 155.597656 27.492188 171.835938 31.410156 187.84375 C 40.664062 224.25 60.542969 248.503906 90.535156 260.011719 Z M 90.535156 260.011719 " fill-opacity="1" fill-rule="nonzero"/><path fill="#b5e0f8" d="M 90.535156 246.738281 L 90.535156 128.847656 C 79.5 133.398438 61.394531 140.472656 38.367188 148.035156 C 38.675781 160.476562 40.320312 172.738281 43.289062 184.824219 C 51.03125 215.277344 66.914062 236.078125 90.535156 246.738281 Z M 90.535156 246.738281 " fill-opacity="1" fill-rule="nonzero"/><path fill="#004aad" d="M 55.511719 171.824219 L 80.027344 171.824219 L 80.027344 147.308594 L 101.039062 147.308594 L 101.039062 171.824219 L 125.554688 171.824219 L 125.554688 192.835938 L 101.039062 192.835938 L 101.039062 217.351562 L 80.027344 217.351562 L 80.027344 192.835938 L 55.511719 192.835938 Z M 55.511719 171.824219 " fill-opacity="1" fill-rule="nonzero"/><g fill="#004aad" fill-opacity="0.4"><g transform="translate(188.565101, 168.420529)"><g><path d="M 3.96875 0 L 3.96875 -35.546875 L 18.015625 -35.546875 C 20.140625 -35.546875 21.960938 -35.082031 23.484375 -34.15625 C 25.003906 -33.226562 26.171875 -31.953125 26.984375 -30.328125 C 27.796875 -28.703125 28.164062 -26.847656 28.09375 -24.765625 C 28.0625 -23.441406 27.789062 -22.132812 27.28125 -20.84375 C 26.769531 -19.550781 25.953125 -18.523438 24.828125 -17.765625 C 25.984375 -16.972656 26.882812 -15.9375 27.53125 -14.65625 C 28.175781 -13.382812 28.5 -12.054688 28.5 -10.671875 C 28.5 -8.679688 28.023438 -6.882812 27.078125 -5.28125 C 26.140625 -3.675781 24.875 -2.394531 23.28125 -1.4375 C 21.695312 -0.476562 19.941406 0 18.015625 0 Z M 11.125 -28.4375 L 11.125 -21.296875 L 17.421875 -21.296875 C 18.453125 -21.296875 19.253906 -21.648438 19.828125 -22.359375 C 20.410156 -23.078125 20.703125 -23.914062 20.703125 -24.875 C 20.703125 -25.863281 20.410156 -26.703125 19.828125 -27.390625 C 19.253906 -28.085938 18.453125 -28.4375 17.421875 -28.4375 Z M 11.125 -14.203125 L 11.125 -7.09375 L 17.421875 -7.09375 C 18.453125 -7.09375 19.304688 -7.441406 19.984375 -8.140625 C 20.660156 -8.835938 21 -9.679688 21 -10.671875 C 21 -11.660156 20.660156 -12.492188 19.984375 -13.171875 C 19.304688 -13.859375 18.453125 -14.203125 17.421875 -14.203125 Z M 11.125 -14.203125 "/></g></g></g><g fill="#004aad" fill-opacity="0.4"><g transform="translate(223.057966, 168.420529)"><g><path d="M 29.4375 -12.359375 C 29.4375 -9.941406 28.972656 -7.875 28.046875 -6.15625 C 27.117188 -4.4375 25.894531 -3.0625 24.375 -2.03125 C 22.851562 -1.007812 21.179688 -0.328125 19.359375 0.015625 C 17.535156 0.367188 15.707031 0.367188 13.875 0.015625 C 12.039062 -0.328125 10.359375 -1.007812 8.828125 -2.03125 C 7.304688 -3.0625 6.082031 -4.4375 5.15625 -6.15625 C 4.226562 -7.875 3.765625 -9.941406 3.765625 -12.359375 L 3.765625 -35.5 L 10.875 -35.5 L 10.875 -12.40625 C 10.875 -10.914062 11.257812 -9.722656 12.03125 -8.828125 C 12.8125 -7.941406 13.769531 -7.347656 14.90625 -7.046875 C 16.050781 -6.753906 17.195312 -6.753906 18.34375 -7.046875 C 19.488281 -7.347656 20.445312 -7.941406 21.21875 -8.828125 C 22 -9.722656 22.390625 -10.914062 22.390625 -12.40625 L 22.390625 -35.5 L 29.4375 -35.5 Z M 29.4375 -12.359375 "/></g></g></g><g fill="#004aad" fill-opacity="0.4"><g transform="translate(260.032285, 168.420529)"><g><path d="M 22.34375 0 L 3.96875 0 L 3.96875 -35.5 L 21.75 -35.5 L 21.75 -28.390625 L 11.0625 -28.390625 L 11.0625 -21.296875 L 20.40625 -21.296875 L 20.40625 -14.203125 L 11.0625 -14.203125 L 11.0625 -7.09375 L 22.34375 -7.09375 Z M 22.34375 0 "/></g></g></g><g fill="#004aad" fill-opacity="0.4"><g transform="translate(288.718562, 168.420529)"><g><path d="M 11.0625 -19.3125 L 11.0625 0 L 3.96875 0 L 3.96875 -36.234375 L 5.859375 -36.234375 L 23.78125 -15.390625 L 23.78125 -35.4375 L 30.921875 -35.4375 L 30.921875 0.75 L 29.046875 0.75 Z M 11.0625 -19.3125 "/></g></g></g><g fill="#ffffff" fill-opacity="1"><g transform="translate(186.371357, 166.226795)"><g><path d="M 3.96875 0 L 3.96875 -35.546875 L 18.015625 -35.546875 C 20.140625 -35.546875 21.960938 -35.082031 23.484375 -34.15625 C 25.003906 -33.226562 26.171875 -31.953125 26.984375 -30.328125 C 27.796875 -28.703125 28.164062 -26.847656 28.09375 -24.765625 C 28.0625 -23.441406 27.789062 -22.132812 27.28125 -20.84375 C 26.769531 -19.550781 25.953125 -18.523438 24.828125 -17.765625 C 25.984375 -16.972656 26.882812 -15.9375 27.53125 -14.65625 C 28.175781 -13.382812 28.5 -12.054688 28.5 -10.671875 C 28.5 -8.679688 28.023438 -6.882812 27.078125 -5.28125 C 26.140625 -3.675781 24.875 -2.394531 23.28125 -1.4375 C 21.695312 -0.476562 19.941406 0 18.015625 0 Z M 11.125 -28.4375 L 11.125 -21.296875 L 17.421875 -21.296875 C 18.453125 -21.296875 19.253906 -21.648438 19.828125 -22.359375 C 20.410156 -23.078125 20.703125 -23.914062 20.703125 -24.875 C 20.703125 -25.863281 20.410156 -26.703125 19.828125 -27.390625 C 19.253906 -28.085938 18.453125 -28.4375 17.421875 -28.4375 Z M 11.125 -14.203125 L 11.125 -7.09375 L 17.421875 -7.09375 C 18.453125 -7.09375 19.304688 -7.441406 19.984375 -8.140625 C 20.660156 -8.835938 21 -9.679688 21 -10.671875 C 21 -11.660156 20.660156 -12.492188 19.984375 -13.171875 C 19.304688 -13.859375 18.453125 -14.203125 17.421875 -14.203125 Z M 11.125 -14.203125 "/></g></g></g><g fill="#ffffff" fill-opacity="1"><g transform="translate(220.864222, 166.226795)"><g><path d="M 29.4375 -12.359375 C 29.4375 -9.941406 28.972656 -7.875 28.046875 -6.15625 C 27.117188 -4.4375 25.894531 -3.0625 24.375 -2.03125 C 22.851562 -1.007812 21.179688 -0.328125 19.359375 0.015625 C 17.535156 0.367188 15.707031 0.367188 13.875 0.015625 C 12.039062 -0.328125 10.359375 -1.007812 8.828125 -2.03125 C 7.304688 -3.0625 6.082031 -4.4375 5.15625 -6.15625 C 4.226562 -7.875 3.765625 -9.941406 3.765625 -12.359375 L 3.765625 -35.5 L 10.875 -35.5 L 10.875 -12.40625 C 10.875 -10.914062 11.257812 -9.722656 12.03125 -8.828125 C 12.8125 -7.941406 13.769531 -7.347656 14.90625 -7.046875 C 16.050781 -6.753906 17.195312 -6.753906 18.34375 -7.046875 C 19.488281 -7.347656 20.445312 -7.941406 21.21875 -8.828125 C 22 -9.722656 22.390625 -10.914062 22.390625 -12.40625 L 22.390625 -35.5 L 29.4375 -35.5 Z M 29.4375 -12.359375 "/></g></g></g><g fill="#ffffff" fill-opacity="1"><g transform="translate(257.838541, 166.226795)"><g><path d="M 22.34375 0 L 3.96875 0 L 3.96875 -35.5 L 21.75 -35.5 L 21.75 -28.390625 L 11.0625 -28.390625 L 11.0625 -21.296875 L 20.40625 -21.296875 L 20.40625 -14.203125 L 11.0625 -14.203125 L 11.0625 -7.09375 L 22.34375 -7.09375 Z M 22.34375 0 "/></g></g></g><g fill="#ffffff" fill-opacity="1"><g transform="translate(286.524818, 166.226795)"><g><path d="M 11.0625 -19.3125 L 11.0625 0 L 3.96875 0 L 3.96875 -36.234375 L 5.859375 -36.234375 L 23.78125 -15.390625 L 23.78125 -35.4375 L 30.921875 -35.4375 L 30.921875 0.75 L 29.046875 0.75 Z M 11.0625 -19.3125 "/></g></g></g><g fill="#004aad" fill-opacity="0.4"><g transform="translate(327.342441, 168.420529)"><g/></g></g><g fill="#ffffff" fill-opacity="1"><g transform="translate(325.148697, 166.226795)"><g/></g></g><g fill="#004aad" fill-opacity="0.4"><g transform="translate(189.726684, 221.323197)"><g><path d="M 11.0625 0 L 3.96875 0 L 3.96875 -35.4375 L 17.921875 -35.4375 C 19.910156 -35.4375 21.609375 -35.039062 23.015625 -34.25 C 24.421875 -33.457031 25.535156 -32.414062 26.359375 -31.125 C 27.179688 -29.832031 27.734375 -28.398438 28.015625 -26.828125 C 28.296875 -25.253906 28.296875 -23.691406 28.015625 -22.140625 C 27.734375 -20.585938 27.171875 -19.164062 26.328125 -17.875 C 25.484375 -16.582031 24.359375 -15.535156 22.953125 -14.734375 C 21.546875 -13.941406 19.867188 -13.546875 17.921875 -13.546875 L 11.0625 -13.546875 Z M 11.0625 -20.453125 L 17.328125 -20.453125 C 18.285156 -20.453125 19.046875 -20.71875 19.609375 -21.25 C 20.171875 -21.78125 20.550781 -22.441406 20.75 -23.234375 C 20.945312 -24.023438 20.945312 -24.816406 20.75 -25.609375 C 20.550781 -26.410156 20.171875 -27.070312 19.609375 -27.59375 C 19.046875 -28.125 18.285156 -28.390625 17.328125 -28.390625 L 11.0625 -28.390625 Z M 11.0625 -20.453125 "/></g></g></g><g fill="#004aad" fill-opacity="0.4"><g transform="translate(223.326223, 221.323197)"><g><path d="M 3.96875 -35.5 L 11.0625 -35.5 L 11.0625 -7.09375 L 22.34375 -7.09375 L 22.34375 0 L 3.96875 0 Z M 3.96875 -35.5 "/></g></g></g><g fill="#004aad" fill-opacity="0.4"><g transform="translate(251.466577, 221.323197)"><g><path d="M 0.796875 0 L 15.734375 -36.78125 L 16.484375 -36.78125 L 31.421875 0 L 23.4375 0 L 21.984375 -3.828125 L 10.21875 -3.828125 L 8.84375 0 Z M 12.8125 -10.46875 L 19.359375 -10.46875 L 16.140625 -19.703125 Z M 12.8125 -10.46875 "/></g></g></g><g fill="#004aad" fill-opacity="0.4"><g transform="translate(287.547567, 221.323197)"><g><path d="M 11.0625 -19.3125 L 11.0625 0 L 3.96875 0 L 3.96875 -36.234375 L 5.859375 -36.234375 L 23.78125 -15.390625 L 23.78125 -35.4375 L 30.921875 -35.4375 L 30.921875 0.75 L 29.046875 0.75 Z M 11.0625 -19.3125 "/></g></g></g><g fill="#ffffff" fill-opacity="1"><g transform="translate(187.53294, 219.129463)"><g><path d="M 11.0625 0 L 3.96875 0 L 3.96875 -35.4375 L 17.921875 -35.4375 C 19.910156 -35.4375 21.609375 -35.039062 23.015625 -34.25 C 24.421875 -33.457031 25.535156 -32.414062 26.359375 -31.125 C 27.179688 -29.832031 27.734375 -28.398438 28.015625 -26.828125 C 28.296875 -25.253906 28.296875 -23.691406 28.015625 -22.140625 C 27.734375 -20.585938 27.171875 -19.164062 26.328125 -17.875 C 25.484375 -16.582031 24.359375 -15.535156 22.953125 -14.734375 C 21.546875 -13.941406 19.867188 -13.546875 17.921875 -13.546875 L 11.0625 -13.546875 Z M 11.0625 -20.453125 L 17.328125 -20.453125 C 18.285156 -20.453125 19.046875 -20.71875 19.609375 -21.25 C 20.171875 -21.78125 20.550781 -22.441406 20.75 -23.234375 C 20.945312 -24.023438 20.945312 -24.816406 20.75 -25.609375 C 20.550781 -26.410156 20.171875 -27.070312 19.609375 -27.59375 C 19.046875 -28.125 18.285156 -28.390625 17.328125 -28.390625 L 11.0625 -28.390625 Z M 11.0625 -20.453125 "/></g></g></g><g fill="#ffffff" fill-opacity="1"><g transform="translate(221.132479, 219.129463)"><g><path d="M 3.96875 -35.5 L 11.0625 -35.5 L 11.0625 -7.09375 L 22.34375 -7.09375 L 22.34375 0 L 3.96875 0 Z M 3.96875 -35.5 "/></g></g></g><g fill="#ffffff" fill-opacity="1"><g transform="translate(249.272833, 219.129463)"><g><path d="M 0.796875 0 L 15.734375 -36.78125 L 16.484375 -36.78125 L 31.421875 0 L 23.4375 0 L 21.984375 -3.828125 L 10.21875 -3.828125 L 8.84375 0 Z M 12.8125 -10.46875 L 19.359375 -10.46875 L 16.140625 -19.703125 Z M 12.8125 -10.46875 "/></g></g></g><g fill="#ffffff" fill-opacity="1"><g transform="translate(285.353823, 219.129463)"><g><path d="M 11.0625 -19.3125 L 11.0625 0 L 3.96875 0 L 3.96875 -36.234375 L 5.859375 -36.234375 L 23.78125 -15.390625 L 23.78125 -35.4375 L 30.921875 -35.4375 L 30.921875 0.75 L 29.046875 0.75 Z M 11.0625 -19.3125 "/></g></g></g><g fill="#004aad" fill-opacity="0.4"><g transform="translate(326.168093, 221.323197)"><g/></g></g><g fill="#ffffff" fill-opacity="1"><g transform="translate(323.974349, 219.129463)"><g/></g></g></svg>