<svg xmlns="http://www.w3.org/2000/svg" xmlns:xlink="http://www.w3.org/1999/xlink" width="1080" zoomAndPan="magnify" viewBox="0 0 810 374.999991" height="500" preserveAspectRatio="xMidYMid meet" version="1.0"><defs><clipPath id="690cf2094c"><path d="M 220 37.5 L 224 37.5 L 224 146 L 220 146 Z M 220 37.5 " clip-rule="nonzero"/></clipPath><clipPath id="d8563deaee"><path d="M 252 37.5 L 361 37.5 L 361 147 L 252 147 Z M 252 37.5 " clip-rule="nonzero"/></clipPath><clipPath id="c798b7e66c"><path d="M 145 163.652344 L 665 163.652344 L 665 366.152344 L 145 366.152344 Z M 145 163.652344 " clip-rule="nonzero"/></clipPath></defs><rect x="-81" width="972" fill="#ffffff" y="-37.499999" height="449.999989" fill-opacity="1"/><rect x="-81" width="972" fill="#ffffff" y="-37.499999" height="449.999989" fill-opacity="1"/><path fill="#b71c1c" d="M 147.597656 72.496094 C 147.597656 73.390625 147.511719 74.277344 147.335938 75.15625 C 147.160156 76.035156 146.902344 76.886719 146.558594 77.714844 C 146.214844 78.539062 145.796875 79.328125 145.296875 80.070312 C 144.800781 80.816406 144.234375 81.503906 143.597656 82.136719 C 142.964844 82.769531 142.277344 83.335938 141.53125 83.832031 C 140.785156 84.328125 139.996094 84.75 139.167969 85.089844 C 138.339844 85.433594 137.488281 85.691406 136.609375 85.867188 C 135.730469 86.042969 134.839844 86.128906 133.945312 86.128906 C 133.046875 86.128906 132.160156 86.042969 131.28125 85.867188 C 130.402344 85.691406 129.546875 85.433594 128.71875 85.089844 C 127.890625 84.75 127.105469 84.328125 126.359375 83.832031 C 125.613281 83.335938 124.925781 82.769531 124.289062 82.136719 C 123.65625 81.503906 123.089844 80.816406 122.59375 80.070312 C 122.09375 79.328125 121.671875 78.539062 121.332031 77.714844 C 120.988281 76.886719 120.726562 76.035156 120.554688 75.15625 C 120.378906 74.277344 120.292969 73.390625 120.292969 72.496094 C 120.292969 71.601562 120.378906 70.714844 120.554688 69.839844 C 120.726562 68.960938 120.988281 68.109375 121.332031 67.28125 C 121.671875 66.453125 122.09375 65.667969 122.59375 64.925781 C 123.089844 64.179688 123.65625 63.492188 124.289062 62.859375 C 124.925781 62.226562 125.613281 61.660156 126.359375 61.164062 C 127.105469 60.664062 127.890625 60.246094 128.71875 59.902344 C 129.546875 59.5625 130.402344 59.300781 131.28125 59.128906 C 132.160156 58.953125 133.046875 58.867188 133.945312 58.867188 C 134.839844 58.867188 135.730469 58.953125 136.609375 59.128906 C 137.488281 59.300781 138.339844 59.5625 139.167969 59.902344 C 139.996094 60.246094 140.785156 60.664062 141.53125 61.164062 C 142.277344 61.660156 142.964844 62.226562 143.597656 62.859375 C 144.234375 63.492188 144.800781 64.179688 145.296875 64.925781 C 145.796875 65.667969 146.214844 66.453125 146.558594 67.28125 C 146.902344 68.109375 147.160156 68.960938 147.335938 69.839844 C 147.511719 70.714844 147.597656 71.601562 147.597656 72.496094 Z M 147.597656 72.496094 " fill-opacity="1" fill-rule="nonzero"/><path fill="#489fd1" d="M 188.554688 109.980469 C 188.554688 110.875 188.46875 111.761719 188.292969 112.640625 C 188.117188 113.519531 187.859375 114.371094 187.515625 115.199219 C 187.171875 116.023438 186.753906 116.808594 186.253906 117.554688 C 185.757812 118.296875 185.191406 118.988281 184.558594 119.621094 C 183.921875 120.253906 183.234375 120.816406 182.488281 121.316406 C 181.742188 121.8125 180.957031 122.230469 180.128906 122.574219 C 179.300781 122.917969 178.445312 123.175781 177.566406 123.351562 C 176.6875 123.523438 175.800781 123.613281 174.902344 123.613281 C 174.003906 123.613281 173.117188 123.523438 172.238281 123.351562 C 171.359375 123.175781 170.503906 122.917969 169.675781 122.574219 C 168.847656 122.230469 168.0625 121.8125 167.316406 121.316406 C 166.570312 120.816406 165.882812 120.253906 165.246094 119.621094 C 164.613281 118.988281 164.046875 118.296875 163.550781 117.554688 C 163.050781 116.808594 162.632812 116.023438 162.289062 115.199219 C 161.945312 114.371094 161.6875 113.519531 161.511719 112.640625 C 161.335938 111.761719 161.25 110.875 161.25 109.980469 C 161.25 109.085938 161.335938 108.199219 161.511719 107.320312 C 161.6875 106.445312 161.945312 105.589844 162.289062 104.765625 C 162.632812 103.9375 163.050781 103.152344 163.550781 102.40625 C 164.046875 101.664062 164.613281 100.976562 165.246094 100.34375 C 165.882812 99.710938 166.570312 99.144531 167.316406 98.648438 C 168.0625 98.148438 168.847656 97.730469 169.675781 97.386719 C 170.503906 97.042969 171.359375 96.785156 172.238281 96.613281 C 173.117188 96.4375 174.003906 96.347656 174.902344 96.347656 C 175.800781 96.347656 176.6875 96.4375 177.566406 96.613281 C 178.445312 96.785156 179.300781 97.042969 180.128906 97.386719 C 180.957031 97.730469 181.742188 98.148438 182.488281 98.648438 C 183.234375 99.144531 183.921875 99.710938 184.558594 100.34375 C 185.191406 100.976562 185.757812 101.664062 186.253906 102.40625 C 186.753906 103.152344 187.171875 103.9375 187.515625 104.765625 C 187.859375 105.589844 188.117188 106.445312 188.292969 107.320312 C 188.46875 108.199219 188.554688 109.085938 188.554688 109.980469 Z M 188.554688 109.980469 " fill-opacity="1" fill-rule="nonzero"/><path fill="#7cb342" d="M 188.554688 72.496094 C 188.554688 73.390625 188.46875 74.277344 188.292969 75.15625 C 188.117188 76.035156 187.859375 76.886719 187.515625 77.714844 C 187.171875 78.539062 186.753906 79.328125 186.253906 80.070312 C 185.757812 80.816406 185.191406 81.503906 184.558594 82.136719 C 183.921875 82.769531 183.234375 83.335938 182.488281 83.832031 C 181.742188 84.328125 180.957031 84.75 180.128906 85.089844 C 179.300781 85.433594 178.445312 85.691406 177.566406 85.867188 C 176.6875 86.042969 175.800781 86.128906 174.902344 86.128906 C 174.003906 86.128906 173.117188 86.042969 172.238281 85.867188 C 171.359375 85.691406 170.503906 85.433594 169.675781 85.089844 C 168.847656 84.75 168.0625 84.328125 167.316406 83.832031 C 166.570312 83.335938 165.882812 82.769531 165.246094 82.136719 C 164.613281 81.503906 164.046875 80.816406 163.550781 80.070312 C 163.050781 79.328125 162.632812 78.539062 162.289062 77.714844 C 161.945312 76.886719 161.6875 76.035156 161.511719 75.15625 C 161.335938 74.277344 161.25 73.390625 161.25 72.496094 C 161.25 71.601562 161.335938 70.714844 161.511719 69.839844 C 161.6875 68.960938 161.945312 68.109375 162.289062 67.28125 C 162.632812 66.453125 163.050781 65.667969 163.550781 64.925781 C 164.046875 64.179688 164.613281 63.492188 165.246094 62.859375 C 165.882812 62.226562 166.570312 61.660156 167.316406 61.164062 C 168.0625 60.664062 168.847656 60.246094 169.675781 59.902344 C 170.503906 59.5625 171.359375 59.300781 172.238281 59.128906 C 173.117188 58.953125 174.003906 58.867188 174.902344 58.867188 C 175.800781 58.867188 176.6875 58.953125 177.566406 59.128906 C 178.445312 59.300781 179.300781 59.5625 180.128906 59.902344 C 180.957031 60.246094 181.742188 60.664062 182.488281 61.164062 C 183.234375 61.660156 183.921875 62.226562 184.558594 62.859375 C 185.191406 63.492188 185.757812 64.179688 186.253906 64.925781 C 186.753906 65.667969 187.171875 66.453125 187.515625 67.28125 C 187.859375 68.109375 188.117188 68.960938 188.292969 69.839844 C 188.46875 70.714844 188.554688 71.601562 188.554688 72.496094 Z M 188.554688 72.496094 " fill-opacity="1" fill-rule="nonzero"/><path fill="#5143d5" d="M 147.597656 109.980469 C 147.597656 110.875 147.511719 111.761719 147.335938 112.640625 C 147.160156 113.519531 146.902344 114.371094 146.558594 115.199219 C 146.214844 116.023438 145.796875 116.808594 145.296875 117.554688 C 144.800781 118.296875 144.234375 118.988281 143.597656 119.621094 C 142.964844 120.253906 142.277344 120.816406 141.53125 121.316406 C 140.785156 121.8125 139.996094 122.230469 139.167969 122.574219 C 138.339844 122.917969 137.488281 123.175781 136.609375 123.351562 C 135.730469 123.523438 134.839844 123.613281 133.945312 123.613281 C 133.046875 123.613281 132.160156 123.523438 131.28125 123.351562 C 130.402344 123.175781 129.546875 122.917969 128.71875 122.574219 C 127.890625 122.230469 127.105469 121.8125 126.359375 121.316406 C 125.613281 120.816406 124.925781 120.253906 124.289062 119.621094 C 123.65625 118.988281 123.089844 118.296875 122.59375 117.554688 C 122.09375 116.808594 121.671875 116.023438 121.332031 115.199219 C 120.988281 114.371094 120.726562 113.519531 120.554688 112.640625 C 120.378906 111.761719 120.292969 110.875 120.292969 109.980469 C 120.292969 109.085938 120.378906 108.199219 120.554688 107.320312 C 120.726562 106.445312 120.988281 105.589844 121.332031 104.765625 C 121.671875 103.9375 122.09375 103.152344 122.59375 102.40625 C 123.089844 101.664062 123.65625 100.976562 124.289062 100.34375 C 124.925781 99.710938 125.613281 99.144531 126.359375 98.648438 C 127.105469 98.148438 127.890625 97.730469 128.71875 97.386719 C 129.546875 97.042969 130.402344 96.785156 131.28125 96.613281 C 132.160156 96.4375 133.046875 96.347656 133.945312 96.347656 C 134.839844 96.347656 135.730469 96.4375 136.609375 96.613281 C 137.488281 96.785156 138.339844 97.042969 139.167969 97.386719 C 139.996094 97.730469 140.785156 98.148438 141.53125 98.648438 C 142.277344 99.144531 142.964844 99.710938 143.597656 100.34375 C 144.234375 100.976562 144.800781 101.664062 145.296875 102.40625 C 145.796875 103.152344 146.214844 103.9375 146.558594 104.765625 C 146.902344 105.589844 147.160156 106.445312 147.335938 107.320312 C 147.511719 108.199219 147.597656 109.085938 147.597656 109.980469 Z M 147.597656 109.980469 " fill-opacity="1" fill-rule="nonzero"/><g clip-path="url(#690cf2094c)"><path stroke-linecap="butt" transform="matrix(2.67505, 0, 0, 2.670732, 120.291199, 37.499998)" fill="none" stroke-linejoin="miter" d="M 38.018349 0.000000922032 L 38.018349 39.999575 " stroke="#f2f5f9" stroke-width="1" stroke-opacity="1" stroke-miterlimit="4"/></g><g clip-path="url(#d8563deaee)"><path fill="#01a49a" d="M 334.011719 65.699219 C 333.347656 65.699219 332.667969 65.730469 332.027344 65.785156 C 325.964844 66.230469 320.210938 68.792969 315.789062 73.023438 C 315.660156 73.15625 315.515625 73.285156 315.363281 73.429688 C 312.207031 76.589844 309.925781 80.472656 308.714844 84.703125 L 297.925781 73.625 L 297.9375 73.625 L 297.445312 73.132812 C 294.507812 70.277344 293.113281 66.285156 293.59375 62.199219 C 294.289062 56.265625 299.117188 51.488281 305.078125 50.847656 C 311.671875 50.125 317.765625 54.410156 319.261719 60.824219 C 319.359375 61.238281 319.820312 61.464844 320.199219 61.28125 C 323.769531 59.636719 327.570312 58.632812 331.511719 58.316406 C 331.925781 58.28125 332.210938 57.890625 332.113281 57.488281 C 329.207031 45.722656 318.703125 37.5 306.550781 37.5 C 292.019531 37.5 280.207031 49.296875 280.207031 63.800781 C 280.207031 64.464844 280.226562 65.109375 280.28125 65.742188 C 279.890625 65.71875 279.484375 65.707031 279.09375 65.707031 C 264.570312 65.707031 252.757812 77.515625 252.757812 92.019531 C 252.757812 106.523438 264.570312 118.320312 279.09375 118.320312 C 279.757812 118.320312 280.425781 118.285156 281.078125 118.230469 C 288.527344 117.6875 295.414062 113.96875 299.96875 108.039062 C 300.175781 107.777344 300.152344 107.394531 299.914062 107.152344 L 291.429688 98.453125 C 291.125 98.136719 290.589844 98.203125 290.359375 98.582031 C 289.78125 99.566406 289.09375 100.449219 288.308594 101.234375 C 285.839844 103.699219 282.5625 105.027344 279.046875 105.050781 C 272.179688 105.039062 266.339844 99.464844 266.035156 92.628906 C 265.859375 88.714844 267.375 85.03125 270.292969 82.371094 C 272.3125 80.527344 274.886719 79.359375 277.605469 79.066406 C 281.550781 78.640625 285.371094 79.949219 288.175781 82.675781 C 288.371094 82.859375 288.558594 83.054688 288.734375 83.242188 L 314.5 109.707031 L 316.203125 111.484375 C 316.457031 111.746094 316.707031 112.050781 316.945312 112.367188 C 319.011719 115.082031 319.917969 118.472656 319.492188 121.90625 C 318.757812 127.796875 313.945312 132.550781 308.039062 133.191406 C 301.496094 133.910156 295.40625 129.671875 293.863281 123.324219 C 293.765625 122.910156 293.320312 122.691406 292.925781 122.867188 C 289.355469 124.46875 285.542969 125.441406 281.582031 125.734375 C 281.167969 125.765625 280.871094 126.160156 280.980469 126.5625 C 283.929688 138.503906 294.53125 146.539062 306.574219 146.539062 C 307.9375 146.539062 309.316406 146.441406 310.710938 146.222656 C 324.109375 144.183594 333.914062 131.730469 332.832031 118.296875 C 333.226562 118.320312 333.628906 118.332031 334.023438 118.332031 L 339.59375 118.332031 C 339.984375 118.332031 340.300781 118.015625 340.300781 117.621094 L 340.300781 105.757812 C 340.300781 105.367188 339.984375 105.050781 339.59375 105.050781 L 334.023438 105.050781 C 330.59375 105.050781 327.351562 103.730469 324.917969 101.363281 L 324.359375 100.785156 C 322.175781 98.375 320.964844 95.269531 320.964844 92.019531 C 320.964844 88.53125 322.320312 85.257812 324.785156 82.792969 C 327.253906 80.339844 330.519531 78.988281 333.992188 78.976562 C 341.1875 78.96875 347.082031 85.0625 347.082031 92.25 L 347.082031 100.511719 C 347.082031 107.46875 352.726562 113.105469 359.691406 113.105469 L 360.371094 113.105469 L 360.371094 92.019531 C 360.371094 77.507812 348.554688 65.707031 334.035156 65.707031 Z M 334.011719 65.699219 " fill-opacity="1" fill-rule="nonzero"/></g><path fill="#01a49a" d="M 403.203125 127.9375 L 386.074219 127.9375 C 385.886719 127.9375 385.710938 128.054688 385.660156 128.230469 L 383.015625 136.027344 C 382.949219 136.203125 382.785156 136.320312 382.601562 136.320312 L 371.269531 136.320312 C 371.027344 136.320312 370.863281 136.082031 370.941406 135.863281 L 387.882812 89.074219 C 387.953125 88.898438 388.113281 88.78125 388.300781 88.78125 L 401.105469 88.78125 C 401.292969 88.78125 401.457031 88.898438 401.523438 89.074219 L 418.46875 135.863281 C 418.546875 136.09375 418.378906 136.320312 418.140625 136.320312 L 406.675781 136.320312 C 406.492188 136.320312 406.316406 136.203125 406.261719 136.027344 L 403.617188 128.230469 C 403.554688 128.054688 403.390625 127.9375 403.203125 127.9375 Z M 394.394531 102.335938 L 388.921875 118.644531 C 388.867188 118.820312 388.988281 118.996094 389.175781 118.996094 L 400.167969 118.996094 C 400.355469 118.996094 400.476562 118.820312 400.417969 118.644531 L 394.894531 102.335938 C 394.816406 102.09375 394.46875 102.09375 394.394531 102.335938 Z M 394.394531 102.335938 " fill-opacity="1" fill-rule="nonzero"/><path fill="#01a49a" d="M 424.539062 86.230469 L 435.445312 86.230469 C 435.632812 86.230469 435.792969 86.382812 435.792969 86.578125 L 435.792969 135.996094 C 435.792969 136.179688 435.640625 136.34375 435.445312 136.34375 L 424.539062 136.34375 C 424.351562 136.34375 424.1875 136.191406 424.1875 135.996094 L 424.1875 86.566406 C 424.1875 86.382812 424.34375 86.21875 424.539062 86.21875 Z M 424.539062 86.230469 " fill-opacity="1" fill-rule="nonzero"/><path fill="#01a49a" d="M 461.34375 136.878906 C 450.230469 136.878906 442.226562 129.429688 442.226562 117.445312 C 442.226562 105.464844 450.085938 98.015625 461.34375 98.015625 C 472.601562 98.015625 480.191406 105.332031 480.191406 116.835938 C 480.191406 117.828125 480.136719 118.863281 480.027344 119.910156 C 480.003906 120.085938 479.863281 120.214844 479.675781 120.214844 L 454.125 120.214844 C 453.921875 120.214844 453.757812 120.402344 453.777344 120.597656 C 454.3125 125.277344 457.292969 127.457031 460.929688 127.457031 C 464.085938 127.457031 465.898438 125.929688 466.871094 123.988281 C 466.925781 123.867188 467.042969 123.804688 467.175781 123.804688 L 478.847656 123.804688 C 479.078125 123.804688 479.238281 124.023438 479.1875 124.238281 C 477.199219 131.402344 470.570312 136.878906 461.332031 136.878906 Z M 454.238281 113.78125 L 467.972656 113.78125 C 468.167969 113.78125 468.332031 113.621094 468.324219 113.421875 C 468.136719 109.507812 464.957031 107.273438 461.214844 107.273438 C 457.46875 107.273438 454.695312 109.421875 453.898438 113.367188 C 453.855469 113.574219 454.019531 113.78125 454.238281 113.78125 Z M 454.238281 113.78125 " fill-opacity="1" fill-rule="nonzero"/><path fill="#01a49a" d="M 538.769531 115.820312 C 538.769531 110.882812 535.917969 108.167969 531.519531 108.167969 C 527.117188 108.167969 524.257812 110.871094 524.257812 115.820312 L 524.257812 135.996094 C 524.257812 136.179688 524.101562 136.34375 523.90625 136.34375 L 513.066406 136.34375 C 512.882812 136.34375 512.714844 136.191406 512.714844 135.996094 L 512.714844 115.820312 C 512.714844 110.882812 509.867188 108.167969 505.464844 108.167969 C 501.066406 108.167969 498.207031 110.871094 498.207031 115.820312 L 498.207031 135.996094 C 498.207031 136.179688 498.054688 136.34375 497.855469 136.34375 L 486.949219 136.34375 C 486.761719 136.34375 486.597656 136.191406 486.597656 135.996094 L 486.597656 98.898438 C 486.597656 98.714844 486.75 98.550781 486.949219 98.550781 L 497.855469 98.550781 C 498.042969 98.550781 498.207031 98.703125 498.207031 98.898438 L 498.207031 102.324219 C 498.207031 102.640625 498.597656 102.78125 498.804688 102.542969 C 501.097656 99.902344 504.726562 98.148438 509.253906 98.148438 C 514.75 98.148438 519.234375 100.480469 521.855469 104.722656 C 521.988281 104.941406 522.292969 104.941406 522.433594 104.734375 C 525.011719 100.960938 529.609375 98.148438 534.882812 98.148438 C 544.238281 98.148438 550.277344 104.101562 550.277344 114.261719 L 550.277344 135.996094 C 550.277344 136.179688 550.125 136.34375 549.929688 136.34375 L 539.082031 136.34375 C 538.898438 136.34375 538.734375 136.191406 538.734375 135.996094 L 538.734375 115.820312 Z M 538.769531 115.820312 " fill-opacity="1" fill-rule="nonzero"/><path fill="#01a49a" d="M 573.128906 98.007812 C 578.238281 98.007812 581.992188 100.121094 584.179688 103 C 584.375 103.261719 584.789062 103.132812 584.789062 102.792969 L 584.789062 98.890625 C 584.789062 98.703125 584.941406 98.539062 585.140625 98.539062 L 596.046875 98.539062 C 596.234375 98.539062 596.398438 98.691406 596.398438 98.890625 L 596.398438 135.984375 C 596.398438 136.167969 596.242188 136.332031 596.046875 136.332031 L 585.140625 136.332031 C 584.953125 136.332031 584.789062 136.179688 584.789062 135.984375 L 584.789062 132.058594 C 584.789062 131.730469 584.375 131.589844 584.179688 131.851562 C 581.953125 134.742188 578.183594 136.867188 573.0625 136.867188 C 563.835938 136.867188 556.457031 129.277344 556.457031 117.371094 C 556.457031 105.464844 563.847656 98.007812 573.140625 98.007812 Z M 576.511719 108.09375 C 572.179688 108.09375 568.238281 111.339844 568.238281 117.371094 C 568.238281 123.402344 572.167969 126.78125 576.511719 126.78125 C 580.859375 126.78125 584.789062 123.464844 584.789062 117.4375 C 584.789062 111.40625 580.925781 108.09375 576.511719 108.09375 Z M 576.511719 108.09375 " fill-opacity="1" fill-rule="nonzero"/><path fill="#01a49a" d="M 631.226562 115.820312 C 631.226562 110.675781 628.375 107.828125 623.976562 107.828125 C 619.574219 107.828125 616.714844 110.675781 616.714844 115.820312 L 616.714844 135.996094 C 616.714844 136.179688 616.5625 136.34375 616.367188 136.34375 L 605.460938 136.34375 C 605.273438 136.34375 605.109375 136.191406 605.109375 135.996094 L 605.109375 98.898438 C 605.109375 98.714844 605.261719 98.550781 605.460938 98.550781 L 616.367188 98.550781 C 616.554688 98.550781 616.714844 98.703125 616.714844 98.898438 L 616.714844 102.585938 C 616.714844 102.902344 617.109375 103.054688 617.316406 102.804688 C 619.695312 100.035156 623.507812 98.148438 628.179688 98.148438 C 636.925781 98.148438 642.757812 104.101562 642.757812 114.261719 L 642.757812 135.996094 C 642.757812 136.179688 642.605469 136.34375 642.40625 136.34375 L 631.566406 136.34375 C 631.382812 136.34375 631.214844 136.191406 631.214844 135.996094 L 631.214844 115.820312 Z M 631.226562 115.820312 " fill-opacity="1" fill-rule="nonzero"/><path fill="#01a49a" d="M 665.523438 98.007812 C 670.632812 98.007812 674.398438 100.121094 676.570312 103 C 676.769531 103.261719 677.183594 103.132812 677.183594 102.792969 L 677.183594 98.890625 C 677.183594 98.703125 677.335938 98.539062 677.535156 98.539062 L 688.441406 98.539062 C 688.628906 98.539062 688.789062 98.691406 688.789062 98.890625 L 688.789062 135.984375 C 688.789062 136.167969 688.636719 136.332031 688.441406 136.332031 L 677.535156 136.332031 C 677.347656 136.332031 677.183594 136.179688 677.183594 135.984375 L 677.183594 132.058594 C 677.183594 131.730469 676.769531 131.589844 676.570312 131.851562 C 674.34375 134.742188 670.578125 136.867188 665.457031 136.867188 C 656.230469 136.867188 648.847656 129.277344 648.847656 117.371094 C 648.847656 105.464844 656.238281 98.007812 665.535156 98.007812 Z M 668.90625 108.09375 C 664.574219 108.09375 660.628906 111.339844 660.628906 117.371094 C 660.628906 123.402344 664.5625 126.78125 668.90625 126.78125 C 673.253906 126.78125 677.183594 123.464844 677.183594 117.4375 C 677.183594 111.40625 673.316406 108.09375 668.90625 108.09375 Z M 668.90625 108.09375 " fill-opacity="1" fill-rule="nonzero"/><path fill="#01a49a" d="M 504.789062 55.851562 C 507.28125 55.851562 509.113281 56.886719 510.171875 58.28125 C 510.269531 58.414062 510.480469 58.347656 510.480469 58.183594 L 510.480469 56.285156 C 510.480469 56.199219 510.554688 56.125 510.640625 56.125 L 515.957031 56.125 C 516.046875 56.125 516.125 56.199219 516.125 56.285156 L 516.125 74.375 C 516.125 74.464844 516.046875 74.539062 515.957031 74.539062 L 510.640625 74.539062 C 510.554688 74.539062 510.480469 74.464844 510.480469 74.375 L 510.480469 72.46875 C 510.480469 72.304688 510.28125 72.238281 510.183594 72.371094 C 509.101562 73.777344 507.257812 74.8125 504.769531 74.8125 C 500.269531 74.8125 496.664062 71.117188 496.664062 65.304688 C 496.664062 59.492188 500.269531 55.863281 504.800781 55.863281 Z M 506.4375 60.769531 C 504.320312 60.769531 502.410156 62.347656 502.410156 65.292969 C 502.410156 68.238281 504.332031 69.882812 506.4375 69.882812 C 508.546875 69.882812 510.464844 68.269531 510.464844 65.328125 C 510.464844 62.382812 508.578125 60.769531 506.4375 60.769531 Z M 506.4375 60.769531 " fill-opacity="1" fill-rule="nonzero"/><path fill="#01a49a" d="M 447.96875 64.53125 C 447.96875 62.023438 446.582031 60.636719 444.433594 60.636719 C 442.28125 60.636719 440.894531 62.023438 440.894531 64.53125 L 440.894531 74.367188 C 440.894531 74.453125 440.820312 74.527344 440.730469 74.527344 L 435.410156 74.527344 C 435.328125 74.527344 435.25 74.453125 435.25 74.367188 L 435.25 56.285156 C 435.25 56.199219 435.328125 56.125 435.410156 56.125 L 440.730469 56.125 C 440.820312 56.125 440.894531 56.199219 440.894531 56.285156 L 440.894531 58.085938 C 440.894531 58.238281 441.089844 58.316406 441.191406 58.195312 C 442.347656 56.84375 444.203125 55.925781 446.484375 55.925781 C 450.753906 55.925781 453.589844 58.828125 453.589844 63.789062 L 453.589844 74.386719 C 453.589844 74.476562 453.515625 74.550781 453.429688 74.550781 L 448.144531 74.550781 C 448.058594 74.550781 447.980469 74.476562 447.980469 74.386719 L 447.980469 64.550781 Z M 447.96875 64.53125 " fill-opacity="1" fill-rule="nonzero"/><path fill="#01a49a" d="M 389.882812 51.097656 C 395.308594 51.097656 399.425781 54.09375 400.824219 58.957031 C 400.855469 59.089844 400.757812 59.21875 400.625 59.21875 L 394.808594 59.21875 C 394.730469 59.21875 394.65625 59.175781 394.621094 59.101562 C 393.648438 57.203125 391.921875 56.242188 389.820312 56.242188 C 386.34375 56.242188 383.964844 58.816406 383.964844 62.917969 C 383.964844 67.015625 386.34375 69.589844 389.820312 69.589844 C 391.921875 69.589844 393.648438 68.640625 394.621094 66.734375 C 394.65625 66.65625 394.730469 66.613281 394.808594 66.613281 L 400.625 66.613281 C 400.757812 66.613281 400.855469 66.742188 400.824219 66.875 C 399.425781 71.738281 395.308594 74.703125 389.882812 74.703125 C 383.035156 74.703125 378.210938 69.851562 378.210938 62.917969 C 378.210938 55.980469 383.035156 51.097656 389.882812 51.097656 Z M 389.882812 51.097656 " fill-opacity="1" fill-rule="nonzero"/><path fill="#01a49a" d="M 408.074219 50.105469 L 413.3125 50.105469 C 413.421875 50.105469 413.523438 50.191406 413.523438 50.3125 L 413.523438 74.332031 C 413.523438 74.441406 413.433594 74.539062 413.3125 74.539062 L 408.074219 74.539062 C 407.964844 74.539062 407.863281 74.453125 407.863281 74.332031 L 407.863281 50.3125 C 407.863281 50.203125 407.953125 50.105469 408.074219 50.105469 Z M 408.074219 50.105469 " fill-opacity="1" fill-rule="nonzero"/><path fill="#01a49a" d="M 426.992188 56.113281 L 421.753906 56.113281 C 421.636719 56.113281 421.546875 56.203125 421.546875 56.320312 L 421.546875 74.320312 C 421.546875 74.4375 421.636719 74.527344 421.753906 74.527344 L 426.992188 74.527344 C 427.109375 74.527344 427.203125 74.4375 427.203125 74.320312 L 427.203125 56.320312 C 427.203125 56.203125 427.109375 56.113281 426.992188 56.113281 Z M 426.992188 56.113281 " fill-opacity="1" fill-rule="nonzero"/><path fill="#01a49a" d="M 460.492188 51.164062 C 460.492188 49.449219 461.847656 48.085938 463.867188 48.085938 C 465.886719 48.085938 467.207031 49.441406 467.207031 51.164062 C 467.207031 52.886719 465.855469 54.203125 463.867188 54.203125 C 461.878906 54.203125 460.492188 52.851562 460.492188 51.164062 Z M 461.222656 56.113281 L 466.464844 56.113281 C 466.574219 56.113281 466.671875 56.199219 466.671875 56.320312 L 466.671875 74.332031 C 466.671875 74.441406 466.585938 74.539062 466.464844 74.539062 L 461.222656 74.539062 C 461.117188 74.539062 461.019531 74.453125 461.019531 74.332031 L 461.019531 56.320312 C 461.019531 56.210938 461.105469 56.113281 461.222656 56.113281 Z M 461.222656 56.113281 " fill-opacity="1" fill-rule="nonzero"/><path fill="#01a49a" d="M 482.417969 55.851562 C 486.960938 55.851562 490.191406 58.292969 491.21875 62.535156 C 491.25 62.664062 491.152344 62.785156 491.019531 62.785156 L 485.398438 62.785156 C 485.324219 62.785156 485.246094 62.730469 485.214844 62.65625 C 484.730469 61.445312 483.8125 60.671875 482.320312 60.671875 C 480.300781 60.671875 478.914062 62.25 478.914062 65.328125 C 478.914062 68.402344 480.300781 69.980469 482.320312 69.980469 C 483.824219 69.980469 484.710938 69.273438 485.214844 67.996094 C 485.246094 67.921875 485.3125 67.867188 485.398438 67.867188 L 491.019531 67.867188 C 491.152344 67.867188 491.25 67.996094 491.21875 68.117188 C 490.191406 72.230469 486.949219 74.800781 482.417969 74.800781 C 476.992188 74.800781 473.160156 71.171875 473.160156 65.328125 C 473.160156 59.480469 476.992188 55.851562 482.417969 55.851562 Z M 482.417969 55.851562 " fill-opacity="1" fill-rule="nonzero"/><path fill="#01a49a" d="M 421.546875 50.476562 L 421.546875 54.019531 C 421.546875 54.160156 421.699219 54.257812 421.832031 54.203125 L 428.097656 51.578125 C 428.171875 51.542969 428.230469 51.46875 428.230469 51.390625 L 428.230469 47.464844 C 428.230469 47.3125 428.078125 47.214844 427.933594 47.28125 L 421.667969 50.289062 C 421.601562 50.324219 421.546875 50.398438 421.546875 50.476562 Z M 421.546875 50.476562 " fill-opacity="1" fill-rule="nonzero"/><g clip-path="url(#c798b7e66c)"><path fill="#ffffff" d="M 612.519531 366.152344 L 163.058594 366.152344 C 153.144531 366.152344 145.109375 358.125 145.109375 348.226562 L 145.109375 215.953125 C 145.109375 187.070312 168.550781 163.652344 197.472656 163.652344 L 646.9375 163.652344 C 656.847656 163.652344 664.886719 171.679688 664.886719 181.582031 L 664.886719 313.847656 C 664.886719 342.734375 641.441406 366.152344 612.519531 366.152344 " fill-opacity="1" fill-rule="nonzero"/></g><path fill="#575956" d="M 518.632812 245.753906 L 528.6875 245.753906 L 528.6875 288.332031 L 518.632812 288.332031 Z M 518.632812 245.753906 " fill-opacity="1" fill-rule="nonzero"/><path fill="#575956" d="M 436.074219 240.558594 C 436.082031 240.542969 442.601562 232.058594 442.601562 232.058594 L 452.832031 232.019531 C 452.832031 232.019531 443.824219 240.523438 443.75 240.527344 C 442.257812 240.558594 440.761719 240.566406 439.246094 240.566406 Z M 436.074219 240.558594 " fill-opacity="1" fill-rule="nonzero"/><path fill="#575956" d="M 581.179688 253.605469 C 580.304688 253.605469 579.40625 253.664062 578.515625 253.769531 C 574.0625 254.300781 570.972656 256.839844 569.578125 261.105469 C 568.417969 264.660156 568.308594 268.394531 569.253906 272.210938 C 570.539062 277.410156 574.089844 280.050781 579.796875 280.050781 C 585.449219 279.996094 589.160156 277.0625 590.167969 272.003906 C 590.558594 270.042969 590.640625 268.015625 590.726562 266.054688 C 590.761719 265.171875 590.796875 264.292969 590.859375 263.417969 L 590.902344 262.832031 L 590.855469 262.832031 C 590.859375 262.75 590.859375 262.652344 590.863281 262.554688 C 590.894531 261.234375 590.949219 258.773438 590.683594 257.296875 C 590.730469 256.347656 590.316406 255.707031 589.304688 255.273438 C 586.734375 254.167969 584 253.605469 581.179688 253.605469 M 577.046875 288.789062 C 576.535156 288.789062 576.015625 288.773438 575.492188 288.738281 C 569.300781 288.355469 564.792969 286.035156 561.710938 281.644531 C 559.578125 278.609375 558.371094 274.953125 558.015625 270.46875 C 557.574219 264.800781 558.207031 260.359375 560.007812 256.492188 C 562.960938 250.152344 568.242188 246.421875 575.707031 245.394531 C 577.039062 245.210938 578.375 245.117188 579.671875 245.117188 C 583.90625 245.117188 587.984375 246.113281 591.789062 248.070312 C 591.90625 248.128906 592.039062 248.175781 592.179688 248.226562 L 592.65625 248.390625 L 593.066406 248.019531 C 593.210938 247.773438 593.335938 247.492188 593.457031 247.207031 C 593.625 246.816406 593.859375 246.273438 594.0625 246.1875 C 594.332031 246.074219 594.679688 246.019531 595.15625 246.019531 C 595.421875 246.019531 595.691406 246.035156 595.964844 246.050781 C 596.253906 246.0625 596.546875 246.078125 596.828125 246.078125 L 596.839844 246.078125 C 598.214844 246.078125 599.417969 246.097656 600.621094 246.117188 L 600.929688 246.121094 L 600.929688 274.25 C 600.929688 274.753906 600.933594 275.261719 600.953125 275.765625 C 601.050781 278.097656 602.253906 279.675781 604.136719 280.003906 L 604.136719 288.402344 C 603.125 288.644531 602.089844 288.765625 601.054688 288.765625 C 596.484375 288.765625 592.90625 286.449219 591.488281 282.566406 L 591.453125 282.46875 L 591.289062 282.246094 L 590.921875 281.816406 L 590.398438 282.070312 C 590.257812 282.164062 590.117188 282.253906 590.011719 282.40625 C 587.027344 286.699219 582.789062 288.789062 577.046875 288.789062 " fill-opacity="1" fill-rule="nonzero"/><path fill="#575956" d="M 480.972656 288.332031 L 464.566406 245.769531 L 477.34375 245.769531 L 489.09375 281.199219 L 500.890625 245.769531 L 513.667969 245.769531 L 497.261719 288.332031 Z M 480.972656 288.332031 " fill-opacity="1" fill-rule="nonzero"/><path fill="#575956" d="M 411.101562 245.730469 C 406.558594 237.179688 398.984375 232.53125 388.585938 231.902344 C 384.351562 231.648438 380.136719 231.617188 376.933594 231.617188 C 375.238281 231.617188 364.515625 231.671875 364.515625 231.671875 L 364.515625 241.113281 C 364.515625 241.113281 381.527344 241.078125 382.347656 241.078125 C 384.191406 241.078125 386.375 241.109375 388.609375 241.351562 C 396.132812 242.183594 400.820312 246.421875 402.539062 253.949219 C 403.617188 258.675781 403.464844 263.308594 402.074219 267.71875 C 400.046875 274.179688 395.398438 277.949219 388.648438 278.617188 C 387.210938 278.761719 385.667969 278.828125 383.792969 278.828125 L 383.789062 278.828125 C 382.484375 278.828125 381.175781 278.796875 379.851562 278.765625 C 378.515625 278.730469 377.164062 278.695312 375.804688 278.695312 L 375.210938 278.695312 L 375.210938 249.953125 L 364.515625 249.953125 L 364.515625 288.253906 L 372.261719 288.269531 C 374.089844 288.269531 375.90625 288.261719 377.726562 288.242188 C 378.441406 288.234375 381.773438 288.234375 381.773438 288.234375 C 384.488281 288.234375 387.375 288.210938 390.164062 287.914062 C 398.03125 287.085938 404.285156 283.726562 408.757812 277.945312 C 411.835938 273.960938 413.65625 269.125 414.175781 263.566406 C 414.816406 256.664062 413.8125 250.828125 411.101562 245.730469 " fill-opacity="1" fill-rule="nonzero"/><path fill="#575956" d="M 529.078125 234.949219 C 529.078125 231.957031 526.652344 229.535156 523.660156 229.535156 C 520.664062 229.535156 518.238281 231.957031 518.238281 234.949219 C 518.238281 237.941406 520.664062 240.363281 523.660156 240.363281 C 526.652344 240.363281 529.078125 237.941406 529.078125 234.949219 " fill-opacity="1" fill-rule="nonzero"/><path fill="#575956" d="M 554.832031 278.503906 C 554.828125 278.507812 554.816406 278.515625 554.808594 278.519531 C 554.195312 278.890625 553.609375 279.242188 552.964844 279.496094 C 552.21875 279.789062 551.496094 279.9375 550.820312 279.9375 C 548.515625 279.9375 547.019531 278.273438 546.917969 275.597656 C 546.894531 275.066406 546.894531 274.539062 546.894531 273.933594 L 546.894531 229.535156 L 536.644531 229.535156 C 536.644531 229.535156 536.644531 264.992188 536.65625 276.601562 C 536.65625 277.484375 536.707031 278.433594 536.820312 279.429688 C 537.289062 283.726562 539.160156 286.476562 542.546875 287.839844 C 544.109375 288.46875 545.675781 288.789062 547.207031 288.789062 C 549.632812 288.789062 552.027344 287.988281 554.324219 286.417969 C 554.550781 286.261719 554.789062 285.828125 554.796875 285.558594 C 554.847656 283.589844 554.84375 281.628906 554.835938 279.59375 Z M 554.832031 278.503906 " fill-opacity="1" fill-rule="nonzero"/><path fill="#575956" d="M 441.046875 253.605469 C 440.175781 253.605469 439.277344 253.664062 438.382812 253.769531 C 433.933594 254.300781 430.84375 256.839844 429.449219 261.105469 C 428.285156 264.660156 428.179688 268.394531 429.125 272.210938 C 430.410156 277.410156 433.957031 280.050781 439.667969 280.050781 C 445.320312 279.996094 449.027344 277.0625 450.039062 272.003906 C 450.425781 270.042969 450.511719 268.015625 450.59375 266.054688 C 450.628906 265.171875 450.667969 264.292969 450.730469 263.417969 L 450.773438 262.832031 L 450.726562 262.832031 C 450.726562 262.75 450.730469 262.652344 450.730469 262.554688 C 450.761719 261.234375 450.816406 258.773438 450.554688 257.296875 C 450.601562 256.347656 450.1875 255.707031 449.171875 255.273438 C 446.601562 254.167969 443.867188 253.605469 441.046875 253.605469 M 436.917969 288.789062 C 436.402344 288.789062 435.886719 288.773438 435.359375 288.738281 C 429.171875 288.355469 424.660156 286.035156 421.578125 281.644531 C 419.445312 278.609375 418.238281 274.953125 417.886719 270.46875 C 417.445312 264.800781 418.078125 260.359375 419.875 256.492188 C 422.832031 250.152344 428.113281 246.421875 435.574219 245.394531 C 436.910156 245.210938 438.242188 245.117188 439.539062 245.117188 C 443.777344 245.117188 447.855469 246.113281 451.65625 248.070312 C 451.777344 248.128906 451.910156 248.175781 452.050781 248.226562 L 452.523438 248.390625 L 452.9375 248.019531 C 453.078125 247.773438 453.203125 247.492188 453.324219 247.207031 C 453.492188 246.816406 453.730469 246.273438 453.933594 246.1875 C 454.199219 246.074219 454.546875 246.019531 455.027344 246.019531 C 455.292969 246.019531 455.5625 246.035156 455.832031 246.050781 C 456.125 246.0625 456.414062 246.078125 456.695312 246.078125 L 456.710938 246.078125 C 458.082031 246.078125 459.289062 246.097656 460.492188 246.117188 L 460.796875 246.121094 L 460.800781 274.25 C 460.800781 274.753906 460.800781 275.261719 460.820312 275.765625 C 460.917969 278.097656 462.125 279.675781 464.003906 280.003906 L 464.003906 288.402344 C 462.996094 288.644531 461.960938 288.765625 460.921875 288.765625 C 456.351562 288.765625 452.777344 286.449219 451.359375 282.566406 L 451.324219 282.46875 L 451.160156 282.246094 L 450.792969 281.816406 L 450.269531 282.070312 C 450.125 282.164062 449.984375 282.253906 449.878906 282.40625 C 446.894531 286.699219 442.660156 288.789062 436.917969 288.789062 " fill-opacity="1" fill-rule="nonzero"/><path fill="#f28b00" d="M 267.582031 197.238281 C 256.609375 197.238281 247.679688 206.15625 247.679688 217.117188 L 247.679688 221.769531 L 262.609375 221.769531 L 262.609375 219.558594 C 262.609375 215.472656 265.9375 212.144531 270.027344 212.144531 L 282.160156 212.144531 L 282.160156 253.929688 L 297.089844 253.929688 L 297.089844 197.238281 Z M 267.582031 197.238281 " fill-opacity="1" fill-rule="nonzero"/><path fill="#a91c8e" d="M 282.160156 305.574219 L 282.160156 307.796875 C 282.160156 311.886719 278.832031 315.210938 274.742188 315.210938 L 262.609375 315.210938 L 262.609375 273.429688 L 247.679688 273.429688 L 247.679688 330.117188 L 277.1875 330.117188 C 288.160156 330.117188 297.089844 321.199219 297.089844 310.242188 L 297.089844 305.574219 Z M 282.160156 305.574219 " fill-opacity="1" fill-rule="nonzero"/><path fill="#00afab" d="M 319.03125 238.996094 L 313.457031 238.996094 L 313.457031 253.910156 L 316.585938 253.910156 C 320.675781 253.910156 324.003906 257.234375 324.003906 261.320312 L 324.003906 273.433594 L 282.65625 273.433594 L 282.65625 288.347656 L 338.933594 288.347656 L 338.933594 258.875 C 338.933594 247.914062 330.003906 238.996094 319.03125 238.996094 " fill-opacity="1" fill-rule="nonzero"/><path fill="#ff5a5a" d="M 263.179688 253.910156 L 263.179688 238.996094 L 205.855469 238.996094 L 205.855469 268.46875 C 205.855469 279.429688 214.78125 288.347656 225.757812 288.347656 L 230.4375 288.347656 L 230.4375 273.433594 L 228.203125 273.433594 C 224.109375 273.433594 220.78125 270.109375 220.78125 266.023438 L 220.78125 253.910156 Z M 263.179688 253.910156 " fill-opacity="1" fill-rule="nonzero"/></svg>