<svg xmlns="http://www.w3.org/2000/svg" xmlns:xlink="http://www.w3.org/1999/xlink" width="500" zoomAndPan="magnify" viewBox="0 0 375 374.999991" height="500" preserveAspectRatio="xMidYMid meet" version="1.0"><defs><clipPath id="4027149c83"><path d="M 45.574219 10.035156 L 262 10.035156 L 262 226 L 45.574219 226 Z M 45.574219 10.035156 " clip-rule="nonzero"/></clipPath><clipPath id="8097c50873"><path d="M 135 171 L 345.574219 171 L 345.574219 364.785156 L 135 364.785156 Z M 135 171 " clip-rule="nonzero"/></clipPath><clipPath id="89f7d899a2"><path d="M 113.464844 76.441406 L 195.964844 76.441406 L 195.964844 158.941406 L 113.464844 158.941406 Z M 113.464844 76.441406 " clip-rule="nonzero"/></clipPath><clipPath id="161d29ca49"><path d="M 285.15625 197.816406 L 318.90625 197.816406 L 318.90625 231.566406 L 285.15625 231.566406 Z M 285.15625 197.816406 " clip-rule="nonzero"/></clipPath><clipPath id="8f6908b667"><path d="M 169.414062 290.011719 L 212 290.011719 L 212 332.761719 L 169.414062 332.761719 Z M 169.414062 290.011719 " clip-rule="nonzero"/></clipPath></defs><g clip-path="url(#4027149c83)"><path fill="#edb3a1" d="M 249.457031 76.09375 L 195.4375 76.09375 L 195.4375 22.074219 C 195.4375 15.507812 190.121094 10.191406 183.554688 10.191406 L 123.359375 10.191406 C 116.792969 10.191406 111.476562 15.507812 111.476562 22.074219 L 111.476562 76.09375 L 57.457031 76.09375 C 50.890625 76.09375 45.574219 81.410156 45.574219 87.976562 L 45.574219 148.171875 C 45.574219 154.742188 50.890625 160.054688 57.457031 160.054688 L 111.476562 160.054688 L 111.476562 214.074219 C 111.476562 220.644531 116.792969 225.957031 123.359375 225.957031 L 183.554688 225.957031 C 190.121094 225.957031 195.4375 220.644531 195.4375 214.074219 L 195.4375 160.054688 L 249.457031 160.054688 C 256.023438 160.054688 261.339844 154.742188 261.339844 148.171875 L 261.339844 87.976562 C 261.339844 81.410156 256.023438 76.09375 249.457031 76.09375 Z M 249.457031 76.09375 " fill-opacity="1" fill-rule="nonzero"/></g><g clip-path="url(#8097c50873)"><path fill="#f7d7ca" d="M 243.75 295.769531 L 243.75 325.867188 C 243.75 329.152344 241.089844 331.808594 237.808594 331.808594 L 210.757812 331.808594 L 210.757812 358.859375 C 210.757812 362.140625 208.101562 364.800781 204.816406 364.800781 L 174.71875 364.800781 C 171.4375 364.800781 168.777344 362.140625 168.777344 358.859375 L 168.777344 331.808594 L 141.730469 331.808594 C 138.445312 331.808594 135.789062 329.152344 135.789062 325.867188 L 135.789062 295.769531 C 135.789062 292.484375 138.445312 289.828125 141.730469 289.828125 L 168.777344 289.828125 L 168.777344 262.78125 C 168.777344 259.496094 171.4375 256.839844 174.71875 256.839844 L 204.816406 256.839844 C 208.101562 256.839844 210.757812 259.496094 210.757812 262.78125 L 210.757812 289.828125 L 237.808594 289.828125 C 241.011719 289.828125 243.75 292.484375 243.75 295.769531 Z M 341 198.050781 L 318.875 198.050781 L 318.875 175.925781 C 318.875 173.269531 316.6875 171.078125 314.03125 171.078125 L 289.402344 171.078125 C 286.746094 171.078125 284.558594 173.269531 284.558594 175.925781 L 284.558594 198.050781 L 262.433594 198.050781 C 259.773438 198.050781 257.585938 200.238281 257.585938 202.898438 L 257.585938 227.523438 C 257.585938 230.179688 259.773438 232.367188 262.433594 232.367188 L 284.558594 232.367188 L 284.558594 254.492188 C 284.558594 257.152344 286.746094 259.339844 289.402344 259.339844 L 314.03125 259.339844 C 316.6875 259.339844 318.875 257.152344 318.875 254.492188 L 318.875 232.367188 L 341 232.367188 C 343.65625 232.367188 345.847656 230.179688 345.847656 227.523438 L 345.847656 202.898438 C 345.925781 200.238281 343.734375 198.050781 341 198.050781 Z M 341 198.050781 " fill-opacity="1" fill-rule="nonzero"/></g><g clip-path="url(#89f7d899a2)"><path fill="#edb3a1" d="M 195.753906 117.585938 C 195.753906 140.3125 177.335938 158.730469 154.609375 158.730469 C 131.878906 158.730469 113.464844 140.3125 113.464844 117.585938 C 113.464844 94.855469 131.878906 76.441406 154.609375 76.441406 C 177.335938 76.441406 195.753906 94.855469 195.753906 117.585938 Z M 195.753906 117.585938 " fill-opacity="1" fill-rule="nonzero"/></g><path fill="#ffffff" d="M 180.59375 112.550781 C 180.59375 127.210938 159.761719 139.390625 155.398438 141.792969 C 154.90625 142.074219 154.296875 142.074219 153.800781 141.792969 C 149.441406 139.40625 128.605469 127.230469 128.605469 112.550781 C 128.605469 112.449219 128.605469 112.335938 128.605469 112.234375 C 128.605469 112.171875 128.605469 112.089844 128.605469 112.023438 C 128.605469 111.644531 128.621094 111.265625 128.636719 110.886719 C 129.164062 103.464844 134.761719 97.621094 141.589844 97.621094 C 148.765625 97.621094 154.59375 104.074219 154.59375 112.023438 C 154.59375 104.074219 160.417969 97.621094 167.59375 97.621094 C 174.488281 97.621094 180.132812 103.5625 180.5625 111.085938 C 180.578125 111.398438 180.59375 111.710938 180.59375 112.023438 L 180.59375 112.039062 C 180.59375 112.21875 180.59375 112.382812 180.59375 112.550781 Z M 180.59375 112.550781 " fill-opacity="1" fill-rule="nonzero"/><g clip-path="url(#161d29ca49)"><path fill="#f7d7ca" d="M 319.257812 214.867188 C 319.257812 224.285156 311.628906 231.917969 302.207031 231.917969 C 292.789062 231.917969 285.15625 224.285156 285.15625 214.867188 C 285.15625 205.449219 292.789062 197.816406 302.207031 197.816406 C 311.628906 197.816406 319.257812 205.449219 319.257812 214.867188 Z M 319.257812 214.867188 " fill-opacity="1" fill-rule="nonzero"/></g><path fill="#ffffff" d="M 312.976562 212.78125 C 312.976562 218.859375 304.34375 223.90625 302.535156 224.902344 C 302.332031 225.015625 302.078125 225.015625 301.875 224.902344 C 300.066406 223.910156 291.433594 218.863281 291.433594 212.78125 C 291.433594 212.738281 291.433594 212.691406 291.433594 212.652344 C 291.433594 212.625 291.433594 212.589844 291.433594 212.5625 C 291.433594 212.40625 291.4375 212.25 291.445312 212.09375 C 291.664062 209.015625 293.984375 206.59375 296.8125 206.59375 C 299.789062 206.59375 302.203125 209.269531 302.203125 212.5625 C 302.203125 209.269531 304.617188 206.59375 307.589844 206.59375 C 310.449219 206.59375 312.785156 209.058594 312.964844 212.171875 C 312.972656 212.304688 312.976562 212.433594 312.976562 212.5625 L 312.976562 212.570312 C 312.976562 212.644531 312.976562 212.710938 312.976562 212.78125 Z M 312.976562 212.78125 " fill-opacity="1" fill-rule="nonzero"/><g clip-path="url(#8f6908b667)"><path fill="#f7d7ca" d="M 211.988281 311.296875 C 211.988281 323.058594 202.460938 332.585938 190.703125 332.585938 C 178.941406 332.585938 169.414062 323.058594 169.414062 311.296875 C 169.414062 299.539062 178.941406 290.011719 190.703125 290.011719 C 202.460938 290.011719 211.988281 299.539062 211.988281 311.296875 Z M 211.988281 311.296875 " fill-opacity="1" fill-rule="nonzero"/></g><path fill="#ffffff" d="M 204.144531 308.691406 C 204.144531 316.277344 193.367188 322.582031 191.109375 323.824219 C 190.855469 323.96875 190.539062 323.96875 190.285156 323.824219 C 188.027344 322.589844 177.25 316.289062 177.25 308.691406 C 177.25 308.640625 177.25 308.582031 177.25 308.53125 C 177.25 308.496094 177.25 308.453125 177.25 308.421875 C 177.25 308.222656 177.257812 308.027344 177.265625 307.832031 C 177.539062 303.992188 180.433594 300.96875 183.964844 300.96875 C 187.679688 300.96875 190.691406 304.308594 190.691406 308.421875 C 190.691406 304.308594 193.707031 300.96875 197.417969 300.96875 C 200.988281 300.96875 203.90625 304.042969 204.128906 307.933594 C 204.136719 308.097656 204.144531 308.257812 204.144531 308.421875 L 204.144531 308.429688 C 204.144531 308.523438 204.144531 308.605469 204.144531 308.691406 Z M 204.144531 308.691406 " fill-opacity="1" fill-rule="nonzero"/></svg>