<?xml version="1.0" encoding="UTF-8"?>
<svg xmlns:xlink="http://www.w3.org/1999/xlink"  id="Capa_1" data-name="Capa 1" xmlns="http://www.w3.org/2000/svg" viewBox="0 0 225 90.38">
  <defs>
    <style>
      .cls-1 {
        fill: #404041;
      }

      .cls-2 {
        fill: #e4363a;
      }

      .cls-3 {
        fill: #0073ba;
      }
    </style>
  </defs>
  <g>
    <path class="cls-1" d="m0,26.92c1.09,1.22,2.66,3,6.86,3s6.47-1.78,6.47-4c0-5.78-11.24-2-11.24-5.95,0-1.64,1.84-2.31,4.42-2.31,3.52,0,4.75,1.65,5.29,2.25l1.12-.91c-.87-1.25-3-2.65-6.37-2.65s-6,1.12-6,3.86c0,5.24,11.23,1.81,11.23,5.71,0,2-2.71,2.56-4.69,2.56-3.87,0-5.11-1.62-5.85-2.61l-1.24,1.05Z"/>
    <path class="cls-1" d="m29.12,16.68h-1.57v7.6c0,2.95-1.89,4.29-5.06,4.29s-5.07-1.34-5.07-4.29v-7.6h-1.56v7.6c0,4.65,3.63,5.61,6.63,5.61s6.63-1,6.63-5.61v-7.6Z"/>
    <path class="cls-1" d="m32.54,29.57h1.55v-5.5h6c2.6,0,5-.73,5-3.69s-2.37-3.7-5-3.7h-7.55v12.89Zm1.55-11.5h5.59c2.59,0,3.89.55,3.89,2.32s-1.3,2.3-3.89,2.3h-5.59v-4.62Z"/>
    <polygon class="cls-1" points="47.28 29.57 58.97 29.57 58.97 28.19 48.84 28.19 48.84 23.56 57.12 23.56 57.12 22.18 48.84 22.18 48.84 18.07 58.75 18.07 58.75 16.68 47.28 16.68 47.28 29.57"/>
    <path class="cls-1" d="m62.6,18.07h5.53c2.26,0,3.94.32,3.94,2.2s-1.68,2.21-3.94,2.21h-5.53v-4.41Zm-1.55,11.5h1.55v-5.7h5.08l4.14,5.7h1.94l-4.25-5.74c1.56-.07,4-.85,4-3.54,0-3.16-3-3.61-5.06-3.61h-7.4v12.89Z"/>
    <rect class="cls-1" x="76.79" y="16.68" width="1.55" height="12.89"/>
    <polygon class="cls-1" points="81.71 29.57 83.21 29.57 83.21 18.07 93.52 29.57 95.08 29.57 95.08 16.68 93.52 16.68 93.52 27.29 83.92 16.68 81.71 16.68 81.71 29.57"/>
    <polygon class="cls-1" points="103.35 29.57 104.91 29.57 104.91 18.07 111.13 18.07 111.13 16.68 97.12 16.68 97.12 18.07 103.35 18.07 103.35 29.57"/>
    <polygon class="cls-1" points="113.18 29.57 124.87 29.57 124.87 28.19 114.73 28.19 114.73 23.56 123.04 23.56 123.04 22.18 114.73 22.18 114.73 18.07 124.66 18.07 124.66 16.68 113.18 16.68 113.18 29.57"/>
    <polygon class="cls-1" points="126.96 29.57 128.44 29.57 128.44 18.07 138.76 29.57 140.32 29.57 140.32 16.68 138.76 16.68 138.76 27.29 129.17 16.68 126.96 16.68 126.96 29.57"/>
    <path class="cls-1" d="m143.68,29.57h5.86c3.4,0,7.4-1.3,7.4-6.55,0-4.22-2.9-6.34-6.9-6.34h-6.36v12.89Zm1.56-11.5h4.76c2.62,0,5.29,1.12,5.29,4.89,0,5.07-4.26,5.23-5.53,5.23h-4.56l.04-10.12Z"/>
    <polygon class="cls-1" points="159.41 29.57 171.12 29.57 171.12 28.19 160.98 28.19 160.98 23.56 169.28 23.56 169.28 22.18 160.98 22.18 160.98 18.07 170.9 18.07 170.9 16.68 159.41 16.68 159.41 29.57"/>
    <polygon class="cls-1" points="173.2 29.57 174.68 29.57 174.68 18.07 185.01 29.57 186.57 29.57 186.57 16.68 185.01 16.68 185.01 27.29 175.42 16.68 173.2 16.68 173.2 29.57"/>
    <path class="cls-1" d="m202,25.47c-1.05,1.98-3.17,3.15-5.41,3-3.89,0-5.89-2.19-5.89-5.14,0-3.68,2.08-5.68,5.77-5.68,2.45,0,4.46.88,5.36,3l1.35-.62c-1.16-2.63-4-3.69-6.74-3.69-4.34,0-7.33,2.36-7.33,6.79,0,3.73,2.35,6.73,7.36,6.73,3.13,0,5.53-1.07,6.9-3.74l-1.37-.65Z"/>
    <rect class="cls-1" x="205.67" y="16.68" width="1.55" height="12.89"/>
    <path class="cls-1" d="m213.35,24.84l3.44-6.94,3.47,6.94h-6.91Zm-4.14,4.73h1.79l1.67-3.35h8.31l1.66,3.35h1.75l-6.59-12.89h-1.92l-6.67,12.89Z"/>
    <path class="cls-1" d="m.3,59.66h12c6.93,0,15.06-2.67,15.06-13.38,0-8.59-5.88-12.9-14-12.9H.3v26.28Zm3.19-23.46h9.8c5.35,0,10.81,2.28,10.81,10,0,10.33-8.71,10.66-11.33,10.66H3.49v-20.66Z"/>
    <polygon class="cls-1" points="32.44 59.66 56.28 59.66 56.28 56.84 35.6 56.84 35.6 47.41 52.52 47.41 52.52 44.59 35.6 44.59 35.6 36.2 55.85 36.2 55.85 33.38 32.44 33.38 32.44 59.66"/>
    <path class="cls-1" d="m71.37,54.24c2.23,2.49,5.42,6.08,14,6.08s13.19-3.66,13.19-8.07c0-11.79-22.92-4.18-22.92-12.15,0-3.32,3.74-4.7,9-4.7,7.17,0,9.7,3.36,10.78,4.6l2.31-1.89c-1.8-2.53-6.07-5.37-13-5.37s-12.34,2.27-12.34,7.87c0,10.68,22.92,3.64,22.92,11.64,0,4.08-5.53,5.24-9.57,5.24-7.88,0-10.41-3.32-11.93-5.33l-2.44,2.08Z"/>
    <path class="cls-1" d="m109.23,50l7.06-14.14,7,14.14h-14.06Zm-8.42,9.65h3.55l3.43-6.84h16.95l3.4,6.84h3.58l-13.49-26.27h-3.9l-13.52,26.27Z"/>
    <polygon class="cls-1" points="135.75 59.66 159.68 59.66 159.68 56.84 138.92 56.84 138.92 33.38 135.75 33.38 135.75 59.66"/>
    <path class="cls-1" d="m191,33.38h-3.16v15.48c0,6-3.87,8.77-10.34,8.77s-10.34-2.74-10.34-8.77v-15.48h-3.16v15.48c0,9.49,7.39,11.46,13.51,11.46s13.5-2,13.5-11.46v-15.48Z"/>
    <path class="cls-1" d="m198,59.66h12c6.87,0,15-2.66,15-13.38,0-8.59-5.89-12.9-14.05-12.9h-12.95v26.28Zm3.18-23.46h9.82c5.34,0,10.8,2.28,10.8,10,0,10.33-8.72,10.66-11.31,10.66h-9.3v-20.66Z"/>
  </g>
  <g>
    <rect class="cls-3" width="91.96" height="7.2"/>
    <rect class="cls-2" x="91.96" width="133.04" height="7.2"/>
  </g>
</svg>