<svg xmlns="http://www.w3.org/2000/svg" xmlns:xlink="http://www.w3.org/1999/xlink" width="500" zoomAndPan="magnify" viewBox="0 0 375 374.999991" height="500" preserveAspectRatio="xMidYMid meet" version="1.0"><defs><clipPath id="b363acbd50"><path d="M 76 73 L 101 73 L 101 83 L 76 83 Z M 76 73 " clip-rule="nonzero"/></clipPath><clipPath id="3aa5475852"><path d="M 62.195312 81.445312 L 104.253906 37.609375 L 128.066406 60.457031 L 86.007812 104.292969 Z M 62.195312 81.445312 " clip-rule="nonzero"/></clipPath><clipPath id="58159c856f"><path d="M 62.195312 81.445312 L 104.253906 37.609375 L 128.066406 60.457031 L 86.007812 104.292969 Z M 62.195312 81.445312 " clip-rule="nonzero"/></clipPath><clipPath id="fd8350b444"><path d="M 85 58 L 101 58 L 101 74 L 85 74 Z M 85 58 " clip-rule="nonzero"/></clipPath><clipPath id="262696e108"><path d="M 62.195312 81.445312 L 104.253906 37.609375 L 128.066406 60.457031 L 86.007812 104.292969 Z M 62.195312 81.445312 " clip-rule="nonzero"/></clipPath><clipPath id="8aa551195c"><path d="M 62.195312 81.445312 L 104.253906 37.609375 L 128.066406 60.457031 L 86.007812 104.292969 Z M 62.195312 81.445312 " clip-rule="nonzero"/></clipPath><clipPath id="90caa73c98"><path d="M 78 89 L 98 89 L 98 95 L 78 95 Z M 78 89 " clip-rule="nonzero"/></clipPath><clipPath id="8ecf91b8bf"><path d="M 62.195312 81.445312 L 104.253906 37.609375 L 128.066406 60.457031 L 86.007812 104.292969 Z M 62.195312 81.445312 " clip-rule="nonzero"/></clipPath><clipPath id="5d375d018c"><path d="M 62.195312 81.445312 L 104.253906 37.609375 L 128.066406 60.457031 L 86.007812 104.292969 Z M 62.195312 81.445312 " clip-rule="nonzero"/></clipPath><clipPath id="8c3f693b6e"><path d="M 101 51 L 110 51 L 110 69 L 101 69 Z M 101 51 " clip-rule="nonzero"/></clipPath><clipPath id="d7ae4f0110"><path d="M 62.195312 81.445312 L 104.253906 37.609375 L 128.066406 60.457031 L 86.007812 104.292969 Z M 62.195312 81.445312 " clip-rule="nonzero"/></clipPath><clipPath id="46f1c37e9f"><path d="M 62.195312 81.445312 L 104.253906 37.609375 L 128.066406 60.457031 L 86.007812 104.292969 Z M 62.195312 81.445312 " clip-rule="nonzero"/></clipPath><clipPath id="2ce0db985f"><path d="M 115 51 L 119 51 L 119 70 L 115 70 Z M 115 51 " clip-rule="nonzero"/></clipPath><clipPath id="49b6f49c40"><path d="M 62.195312 81.445312 L 104.253906 37.609375 L 128.066406 60.457031 L 86.007812 104.292969 Z M 62.195312 81.445312 " clip-rule="nonzero"/></clipPath><clipPath id="8e0b489bbd"><path d="M 62.195312 81.445312 L 104.253906 37.609375 L 128.066406 60.457031 L 86.007812 104.292969 Z M 62.195312 81.445312 " clip-rule="nonzero"/></clipPath><clipPath id="d746e6143e"><path d="M 269 51 L 276 51 L 276 76 L 269 76 Z M 269 51 " clip-rule="nonzero"/></clipPath><clipPath id="6eeed85290"><path d="M 266.585938 37.5 L 314.621094 74.691406 L 294.417969 100.785156 L 246.382812 63.59375 Z M 266.585938 37.5 " clip-rule="nonzero"/></clipPath><clipPath id="0ea1f0ae31"><path d="M 266.585938 37.5 L 314.621094 74.691406 L 294.417969 100.785156 L 246.382812 63.59375 Z M 266.585938 37.5 " clip-rule="nonzero"/></clipPath><clipPath id="e44550fa82"><path d="M 278 58 L 292 58 L 292 75 L 278 75 Z M 278 58 " clip-rule="nonzero"/></clipPath><clipPath id="ec7c317325"><path d="M 266.585938 37.5 L 314.621094 74.691406 L 294.417969 100.785156 L 246.382812 63.59375 Z M 266.585938 37.5 " clip-rule="nonzero"/></clipPath><clipPath id="86edac073a"><path d="M 266.585938 37.5 L 314.621094 74.691406 L 294.417969 100.785156 L 246.382812 63.59375 Z M 266.585938 37.5 " clip-rule="nonzero"/></clipPath><clipPath id="b1342fd55b"><path d="M 256 54 L 263 54 L 263 74 L 256 74 Z M 256 54 " clip-rule="nonzero"/></clipPath><clipPath id="3bd84b1c14"><path d="M 266.585938 37.5 L 314.621094 74.691406 L 294.417969 100.785156 L 246.382812 63.59375 Z M 266.585938 37.5 " clip-rule="nonzero"/></clipPath><clipPath id="e1d27d5aa3"><path d="M 266.585938 37.5 L 314.621094 74.691406 L 294.417969 100.785156 L 246.382812 63.59375 Z M 266.585938 37.5 " clip-rule="nonzero"/></clipPath><clipPath id="5e8a943302"><path d="M 284 73 L 301 73 L 301 83 L 284 83 Z M 284 73 " clip-rule="nonzero"/></clipPath><clipPath id="7824c08c41"><path d="M 266.585938 37.5 L 314.621094 74.691406 L 294.417969 100.785156 L 246.382812 63.59375 Z M 266.585938 37.5 " clip-rule="nonzero"/></clipPath><clipPath id="b6295c8c29"><path d="M 266.585938 37.5 L 314.621094 74.691406 L 294.417969 100.785156 L 246.382812 63.59375 Z M 266.585938 37.5 " clip-rule="nonzero"/></clipPath><clipPath id="696960d3a6"><path d="M 283 87 L 303 87 L 303 92 L 283 92 Z M 283 87 " clip-rule="nonzero"/></clipPath><clipPath id="5364ff572e"><path d="M 266.585938 37.5 L 314.621094 74.691406 L 294.417969 100.785156 L 246.382812 63.59375 Z M 266.585938 37.5 " clip-rule="nonzero"/></clipPath><clipPath id="94537e89a3"><path d="M 266.585938 37.5 L 314.621094 74.691406 L 294.417969 100.785156 L 246.382812 63.59375 Z M 266.585938 37.5 " clip-rule="nonzero"/></clipPath><clipPath id="45431ae158"><path d="M 94 305 L 105 305 L 105 330 L 94 330 Z M 94 305 " clip-rule="nonzero"/></clipPath><clipPath id="ac63530e0a"><path d="M 102.28125 343.675781 L 59.324219 300.71875 L 82.660156 277.382812 L 125.617188 320.339844 Z M 102.28125 343.675781 " clip-rule="nonzero"/></clipPath><clipPath id="c583294591"><path d="M 102.28125 343.675781 L 59.324219 300.71875 L 82.660156 277.382812 L 125.617188 320.339844 Z M 102.28125 343.675781 " clip-rule="nonzero"/></clipPath><clipPath id="fc7c579cd1"><path d="M 80 305 L 96 305 L 96 321 L 80 321 Z M 80 305 " clip-rule="nonzero"/></clipPath><clipPath id="8a76f1abc7"><path d="M 102.28125 343.675781 L 59.324219 300.71875 L 82.660156 277.382812 L 125.617188 320.339844 Z M 102.28125 343.675781 " clip-rule="nonzero"/></clipPath><clipPath id="d0e5fd93f8"><path d="M 102.28125 343.675781 L 59.324219 300.71875 L 82.660156 277.382812 L 125.617188 320.339844 Z M 102.28125 343.675781 " clip-rule="nonzero"/></clipPath><clipPath id="988ad14dfb"><path d="M 110 308 L 116 308 L 116 328 L 110 328 Z M 110 308 " clip-rule="nonzero"/></clipPath><clipPath id="114f4cd918"><path d="M 102.28125 343.675781 L 59.324219 300.71875 L 82.660156 277.382812 L 125.617188 320.339844 Z M 102.28125 343.675781 " clip-rule="nonzero"/></clipPath><clipPath id="5d8670e2e4"><path d="M 102.28125 343.675781 L 59.324219 300.71875 L 82.660156 277.382812 L 125.617188 320.339844 Z M 102.28125 343.675781 " clip-rule="nonzero"/></clipPath><clipPath id="396ecc10d7"><path d="M 73 296 L 91 296 L 91 304 L 73 304 Z M 73 296 " clip-rule="nonzero"/></clipPath><clipPath id="c45afdb7ce"><path d="M 102.28125 343.675781 L 59.324219 300.71875 L 82.660156 277.382812 L 125.617188 320.339844 Z M 102.28125 343.675781 " clip-rule="nonzero"/></clipPath><clipPath id="1853954f7f"><path d="M 102.28125 343.675781 L 59.324219 300.71875 L 82.660156 277.382812 L 125.617188 320.339844 Z M 102.28125 343.675781 " clip-rule="nonzero"/></clipPath><clipPath id="8f8e6f8fd6"><path d="M 73 286 L 92 286 L 92 290 L 73 290 Z M 73 286 " clip-rule="nonzero"/></clipPath><clipPath id="391f078e3e"><path d="M 102.28125 343.675781 L 59.324219 300.71875 L 82.660156 277.382812 L 125.617188 320.339844 Z M 102.28125 343.675781 " clip-rule="nonzero"/></clipPath><clipPath id="343ebbb00d"><path d="M 102.28125 343.675781 L 59.324219 300.71875 L 82.660156 277.382812 L 125.617188 320.339844 Z M 102.28125 343.675781 " clip-rule="nonzero"/></clipPath><clipPath id="102fb3650c"><path d="M 279 300 L 302 300 L 302 312 L 279 312 Z M 279 300 " clip-rule="nonzero"/></clipPath><clipPath id="dc387f02cb"><path d="M 316.992188 305.320312 L 270.417969 344.328125 L 249.226562 319.027344 L 295.800781 280.023438 Z M 316.992188 305.320312 " clip-rule="nonzero"/></clipPath><clipPath id="876e92a528"><path d="M 316.992188 305.320312 L 270.417969 344.328125 L 249.226562 319.027344 L 295.800781 280.023438 Z M 316.992188 305.320312 " clip-rule="nonzero"/></clipPath><clipPath id="a678f97f9d"><path d="M 278 308 L 292 308 L 292 326 L 278 326 Z M 278 308 " clip-rule="nonzero"/></clipPath><clipPath id="00ba48da9f"><path d="M 316.992188 305.320312 L 270.417969 344.328125 L 249.226562 319.027344 L 295.800781 280.023438 Z M 316.992188 305.320312 " clip-rule="nonzero"/></clipPath><clipPath id="80a34af7c5"><path d="M 316.992188 305.320312 L 270.417969 344.328125 L 249.226562 319.027344 L 295.800781 280.023438 Z M 316.992188 305.320312 " clip-rule="nonzero"/></clipPath><clipPath id="3782dd82e2"><path d="M 282 290 L 303 290 L 303 295 L 282 295 Z M 282 290 " clip-rule="nonzero"/></clipPath><clipPath id="7f95b46610"><path d="M 316.992188 305.320312 L 270.417969 344.328125 L 249.226562 319.027344 L 295.800781 280.023438 Z M 316.992188 305.320312 " clip-rule="nonzero"/></clipPath><clipPath id="14ca32a4b9"><path d="M 316.992188 305.320312 L 270.417969 344.328125 L 249.226562 319.027344 L 295.800781 280.023438 Z M 316.992188 305.320312 " clip-rule="nonzero"/></clipPath><clipPath id="7e7ae27f46"><path d="M 268 312 L 275 312 L 275 331 L 268 331 Z M 268 312 " clip-rule="nonzero"/></clipPath><clipPath id="e4782f17ae"><path d="M 316.992188 305.320312 L 270.417969 344.328125 L 249.226562 319.027344 L 295.800781 280.023438 Z M 316.992188 305.320312 " clip-rule="nonzero"/></clipPath><clipPath id="a81b6663f9"><path d="M 316.992188 305.320312 L 270.417969 344.328125 L 249.226562 319.027344 L 295.800781 280.023438 Z M 316.992188 305.320312 " clip-rule="nonzero"/></clipPath><clipPath id="9b8d382aae"><path d="M 257 310 L 262 310 L 262 330 L 257 330 Z M 257 310 " clip-rule="nonzero"/></clipPath><clipPath id="d14a2df822"><path d="M 316.992188 305.320312 L 270.417969 344.328125 L 249.226562 319.027344 L 295.800781 280.023438 Z M 316.992188 305.320312 " clip-rule="nonzero"/></clipPath><clipPath id="5a95ca2931"><path d="M 316.992188 305.320312 L 270.417969 344.328125 L 249.226562 319.027344 L 295.800781 280.023438 Z M 316.992188 305.320312 " clip-rule="nonzero"/></clipPath></defs><path fill="#2694e7" d="M 270.617188 88.679688 C 263.960938 70.5 112.371094 70.800781 108.933594 80.617188 C 96.554688 115.957031 87.828125 301.371094 102.398438 302.921875 C 142.636719 307.207031 275.210938 314.839844 275.101562 297.210938 C 275 281.535156 287.210938 133.976562 270.617188 88.679688 Z M 270.617188 88.679688 " fill-opacity="1" fill-rule="nonzero"/><path fill="#414370" d="M 275.855469 281.363281 C 275.832031 281.363281 275.804688 281.363281 275.78125 281.363281 C 275.066406 281.324219 274.515625 280.710938 274.554688 279.996094 L 274.726562 276.800781 C 277.164062 231.648438 282.871094 125.90625 269.398438 89.125 C 268.804688 87.507812 265.785156 84.351562 252.222656 81.382812 C 251.519531 81.230469 251.078125 80.539062 251.230469 79.839844 C 251.382812 79.136719 252.074219 78.691406 252.777344 78.847656 C 264.207031 81.34375 270.441406 84.414062 271.839844 88.230469 C 285.496094 125.511719 279.769531 231.628906 277.324219 276.941406 L 277.148438 280.136719 C 277.113281 280.828125 276.539062 281.363281 275.855469 281.363281 Z M 275.855469 281.363281 " fill-opacity="1" fill-rule="nonzero"/><path fill="#ffffff" d="M 255.59375 98.800781 C 250.136719 82.417969 125.800781 82.691406 122.980469 91.535156 C 112.828125 123.382812 105.671875 290.476562 117.621094 291.875 C 150.625 295.738281 259.363281 302.617188 259.269531 286.726562 C 259.1875 272.601562 269.207031 139.625 255.59375 98.800781 Z M 255.59375 98.800781 " fill-opacity="1" fill-rule="nonzero"/><path fill="#414370" d="M 176.484375 297.414062 C 176.46875 297.414062 176.449219 297.414062 176.433594 297.414062 C 152.730469 296.472656 129.738281 294.601562 117.46875 293.164062 C 116.65625 293.070312 115.929688 292.609375 115.300781 291.792969 C 106.179688 279.941406 110.222656 163.53125 117.78125 110.953125 C 117.882812 110.242188 118.542969 109.753906 119.25 109.851562 C 119.960938 109.953125 120.453125 110.613281 120.351562 111.324219 C 112.53125 165.710938 109.46875 279.953125 117.359375 290.207031 C 117.589844 290.507812 117.742188 290.582031 117.773438 290.585938 C 129.992188 292.015625 152.902344 293.878906 176.535156 294.816406 C 177.253906 294.84375 177.808594 295.449219 177.78125 296.167969 C 177.753906 296.867188 177.179688 297.414062 176.484375 297.414062 Z M 176.484375 297.414062 " fill-opacity="1" fill-rule="nonzero"/><path fill="#f2b8a6" d="M 157.769531 149.320312 C 157.734375 143.96875 157.921875 138.601562 157.539062 133.273438 C 157.300781 130.007812 157.355469 126.714844 156.96875 123.484375 C 156.753906 121.691406 156.476562 120.515625 151.996094 120.921875 L 152.003906 120.921875 C 151.101562 120.925781 148.707031 120.960938 147.910156 120.972656 C 143.910156 121.035156 143.605469 121.578125 143.019531 124.714844 C 141.5625 132.523438 142.304688 140.503906 142.027344 148.386719 C 141.929688 151.242188 142.371094 158.128906 142.359375 160.832031 C 142.351562 163.875 154.003906 162.558594 157.542969 161.816406 C 158.824219 161.550781 157.800781 153.535156 157.769531 149.320312 Z M 157.769531 149.320312 " fill-opacity="1" fill-rule="nonzero"/><path fill="#f2b8a6" d="M 156.738281 134.125 C 152.019531 134.160156 147.285156 133.972656 142.585938 134.355469 C 139.707031 134.589844 136.800781 134.539062 133.953125 134.925781 C 132.371094 135.140625 131.332031 135.417969 131.691406 139.898438 L 131.691406 139.890625 C 131.691406 140.792969 131.726562 143.1875 131.734375 143.984375 C 131.792969 147.984375 132.269531 148.289062 135.035156 148.875 C 141.925781 150.332031 148.964844 149.589844 155.914062 149.863281 C 158.433594 149.960938 164.511719 149.523438 166.894531 149.53125 C 169.578125 149.542969 168.417969 137.886719 167.765625 134.351562 C 167.53125 133.070312 160.460938 134.097656 156.738281 134.125 Z M 156.738281 134.125 " fill-opacity="1" fill-rule="nonzero"/><path fill="#f2b8a6" d="M 226.277344 130.054688 C 217.144531 130.066406 207.980469 130.003906 198.882812 130.132812 C 193.308594 130.210938 187.6875 130.191406 182.171875 130.320312 C 179.109375 130.390625 177.101562 130.484375 177.792969 131.960938 C 177.796875 132.257812 177.863281 133.050781 177.882812 133.3125 C 177.992188 134.632812 178.914062 134.734375 184.265625 134.929688 C 197.601562 135.410156 211.226562 135.164062 224.679688 135.257812 C 229.554688 135.289062 241.320312 135.144531 245.933594 135.148438 C 251.125 135.152344 248.875 131.296875 247.613281 130.128906 C 247.160156 129.707031 233.476562 130.046875 226.277344 130.054688 Z M 226.277344 130.054688 " fill-opacity="1" fill-rule="nonzero"/><path fill="#f2b8a6" d="M 226.277344 147.34375 C 217.144531 147.355469 207.980469 147.292969 198.882812 147.417969 C 193.308594 147.496094 187.6875 147.480469 182.171875 147.609375 C 179.109375 147.679688 177.101562 147.769531 177.792969 149.25 C 177.796875 149.546875 177.863281 150.339844 177.882812 150.601562 C 177.992188 151.921875 178.914062 152.027344 184.265625 152.21875 C 197.601562 152.703125 211.226562 152.453125 224.679688 152.546875 C 229.554688 152.578125 241.320312 152.433594 245.933594 152.4375 C 251.125 152.441406 248.875 148.585938 247.613281 147.417969 C 247.160156 146.996094 233.476562 147.332031 226.277344 147.34375 Z M 226.277344 147.34375 " fill-opacity="1" fill-rule="nonzero"/><path fill="#f2b8a6" d="M 226.277344 164.632812 C 217.144531 164.644531 207.980469 164.582031 198.882812 164.707031 C 193.308594 164.785156 187.6875 164.769531 182.171875 164.898438 C 179.109375 164.96875 177.101562 165.058594 177.792969 166.539062 C 177.796875 166.835938 177.863281 167.628906 177.882812 167.890625 C 177.992188 169.210938 178.914062 169.3125 184.265625 169.507812 C 197.601562 169.988281 211.226562 169.742188 224.679688 169.835938 C 229.554688 169.867188 241.320312 169.722656 245.933594 169.726562 C 251.125 169.730469 248.875 165.878906 247.613281 164.707031 C 247.160156 164.285156 233.476562 164.621094 226.277344 164.632812 Z M 226.277344 164.632812 " fill-opacity="1" fill-rule="nonzero"/><path fill="#f2b8a6" d="M 209.835938 181.921875 C 194.152344 181.933594 178.421875 181.871094 162.800781 181.996094 C 153.226562 182.074219 143.574219 182.058594 134.105469 182.1875 C 128.84375 182.257812 125.394531 182.347656 126.582031 183.828125 L 126.585938 183.828125 C 126.59375 184.125 126.703125 184.917969 126.742188 185.179688 C 126.925781 186.5 128.511719 186.601562 137.703125 186.796875 C 160.601562 187.277344 183.996094 187.03125 207.101562 187.121094 C 215.472656 187.15625 235.667969 187.011719 243.59375 187.011719 C 252.507812 187.015625 248.648438 183.164062 246.480469 181.996094 C 245.699219 181.574219 222.203125 181.910156 209.835938 181.921875 Z M 209.835938 181.921875 " fill-opacity="1" fill-rule="nonzero"/><path fill="#f2b8a6" d="M 209.835938 199.210938 C 194.152344 199.222656 178.421875 199.160156 162.800781 199.285156 C 153.226562 199.363281 143.574219 199.347656 134.105469 199.476562 C 128.84375 199.546875 125.394531 199.636719 126.582031 201.117188 L 126.585938 201.117188 C 126.59375 201.414062 126.703125 202.207031 126.742188 202.46875 C 126.925781 203.789062 128.511719 203.890625 137.703125 204.085938 C 160.601562 204.566406 183.996094 204.320312 207.101562 204.410156 C 215.472656 204.445312 235.667969 204.300781 243.59375 204.300781 C 252.507812 204.304688 248.648438 200.453125 246.480469 199.285156 C 245.699219 198.863281 222.203125 199.199219 209.835938 199.210938 Z M 209.835938 199.210938 " fill-opacity="1" fill-rule="nonzero"/><path fill="#f2b8a6" d="M 209.835938 216.5 C 194.152344 216.511719 178.421875 216.449219 162.800781 216.574219 C 153.226562 216.652344 143.574219 216.636719 134.105469 216.761719 C 128.84375 216.835938 125.394531 216.925781 126.582031 218.40625 L 126.585938 218.40625 C 126.59375 218.703125 126.703125 219.492188 126.742188 219.757812 C 126.925781 221.078125 128.511719 221.179688 137.703125 221.371094 C 160.601562 221.855469 183.996094 221.609375 207.101562 221.699219 C 215.472656 221.734375 235.667969 221.589844 243.59375 221.589844 C 252.507812 221.59375 248.648438 217.742188 246.480469 216.574219 C 245.699219 216.148438 222.203125 216.488281 209.835938 216.5 Z M 209.835938 216.5 " fill-opacity="1" fill-rule="nonzero"/><path fill="#f2b8a6" d="M 209.835938 233.789062 C 194.152344 233.800781 178.421875 233.738281 162.800781 233.863281 C 153.226562 233.941406 143.574219 233.925781 134.105469 234.050781 C 128.84375 234.125 125.394531 234.214844 126.582031 235.695312 L 126.585938 235.691406 C 126.59375 235.992188 126.703125 236.78125 126.742188 237.046875 C 126.925781 238.367188 128.511719 238.46875 137.703125 238.660156 C 160.601562 239.144531 183.996094 238.898438 207.101562 238.988281 C 215.472656 239.019531 235.667969 238.875 243.59375 238.878906 C 252.507812 238.882812 248.648438 235.03125 246.480469 233.859375 C 245.699219 233.441406 222.203125 233.777344 209.835938 233.789062 Z M 209.835938 233.789062 " fill-opacity="1" fill-rule="nonzero"/><path fill="#f2b8a6" d="M 209.835938 251.078125 C 194.152344 251.089844 178.421875 251.027344 162.800781 251.152344 C 153.226562 251.230469 143.574219 251.214844 134.105469 251.34375 C 128.84375 251.414062 125.394531 251.503906 126.582031 252.984375 L 126.585938 252.984375 C 126.59375 253.28125 126.703125 254.074219 126.742188 254.335938 C 126.925781 255.65625 128.511719 255.757812 137.703125 255.953125 C 160.601562 256.433594 183.996094 256.1875 207.101562 256.277344 C 215.472656 256.3125 235.667969 256.167969 243.59375 256.167969 C 252.507812 256.171875 248.648438 252.320312 246.480469 251.152344 C 245.699219 250.726562 222.203125 251.066406 209.835938 251.078125 Z M 209.835938 251.078125 " fill-opacity="1" fill-rule="nonzero"/><path fill="#e7e7e7" d="M 237.664062 95.238281 C 248.183594 95.238281 250.015625 71.359375 244.910156 69.570312 C 226.527344 63.128906 130.089844 58.589844 129.285156 66.171875 C 127.054688 87.101562 123.085938 93.535156 132.253906 93.472656 C 140.40625 93.421875 216.648438 95.238281 237.664062 95.238281 Z M 237.664062 95.238281 " fill-opacity="1" fill-rule="nonzero"/><path fill="#e7e7e7" d="M 210.570312 56.523438 C 208.898438 48.582031 199.421875 41.820312 190.886719 39.539062 C 183.957031 37.6875 175.910156 38.941406 170.460938 43.929688 C 155.5625 57.570312 164.527344 84.085938 184.847656 85.636719 C 200.980469 86.867188 213.851562 72.136719 210.570312 56.523438 Z M 210.570312 56.523438 " fill-opacity="1" fill-rule="nonzero"/><path fill="#ffffff" d="M 195.945312 60.066406 C 195.3125 57.066406 191.734375 54.511719 188.507812 53.652344 C 185.890625 52.953125 182.851562 53.425781 180.792969 55.308594 C 175.164062 60.464844 178.550781 70.480469 186.226562 71.066406 C 192.320312 71.527344 197.1875 65.964844 195.945312 60.066406 Z M 195.945312 60.066406 " fill-opacity="1" fill-rule="nonzero"/><g clip-path="url(#b363acbd50)"><g clip-path="url(#3aa5475852)"><g clip-path="url(#58159c856f)"><path fill="#ffde59" d="M 84.796875 78.9375 C 98.78125 82.972656 100.179688 83.027344 100 81.945312 C 99.835938 80.957031 74.511719 69.765625 76.875 75.332031 C 76.90625 75.253906 76.265625 76.476562 84.796875 78.9375 Z M 84.796875 78.9375 " fill-opacity="1" fill-rule="nonzero"/></g></g></g><g clip-path="url(#fd8350b444)"><g clip-path="url(#262696e108)"><g clip-path="url(#8aa551195c)"><path fill="#ffde59" d="M 85.265625 59.667969 C 85.25 62.421875 98.433594 73.023438 98.902344 73.332031 C 100.027344 74.078125 101.015625 73.589844 99.851562 71.898438 C 99.671875 71.644531 87.085938 55.511719 85.265625 59.667969 Z M 85.265625 59.667969 " fill-opacity="1" fill-rule="nonzero"/></g></g></g><g clip-path="url(#90caa73c98)"><g clip-path="url(#8ecf91b8bf)"><g clip-path="url(#5d375d018c)"><path fill="#ffde59" d="M 78.292969 92.359375 C 78.242188 96.847656 97.140625 90.878906 97.402344 90.289062 C 98.351562 88.117188 80.253906 90.722656 80.234375 90.726562 C 78.203125 91.21875 78.3125 92.304688 78.292969 92.359375 Z M 78.292969 92.359375 " fill-opacity="1" fill-rule="nonzero"/></g></g></g><g clip-path="url(#8c3f693b6e)"><g clip-path="url(#d7ae4f0110)"><g clip-path="url(#46f1c37e9f)"><path fill="#ffde59" d="M 107.949219 67.988281 C 111.34375 72.132812 107.1875 58.503906 104.855469 53.6875 C 104.148438 52.230469 103.195312 51.605469 102.273438 51.988281 C 99.148438 53.289062 107.71875 67.707031 107.949219 67.988281 Z M 107.949219 67.988281 " fill-opacity="1" fill-rule="nonzero"/></g></g></g><g clip-path="url(#2ce0db985f)"><g clip-path="url(#49b6f49c40)"><g clip-path="url(#8e0b489bbd)"><path fill="#ffde59" d="M 117.40625 69.921875 C 118.832031 69.683594 119.085938 54.058594 118.6875 52.300781 C 118.375 50.949219 116.269531 50.300781 115.890625 53.101562 C 115.890625 53.089844 115.59375 70.226562 117.40625 69.921875 Z M 117.40625 69.921875 " fill-opacity="1" fill-rule="nonzero"/></g></g></g><g clip-path="url(#d746e6143e)"><g clip-path="url(#6eeed85290)"><g clip-path="url(#0ea1f0ae31)"><path fill="#ffde59" d="M 271.464844 59.714844 C 268.933594 74.042969 269.027344 75.4375 270.085938 75.148438 C 271.050781 74.882812 279.503906 48.511719 274.214844 51.453125 C 274.292969 51.476562 273.011719 50.96875 271.464844 59.714844 Z M 271.464844 59.714844 " fill-opacity="1" fill-rule="nonzero"/></g></g></g><g clip-path="url(#e44550fa82)"><g clip-path="url(#ec7c317325)"><g clip-path="url(#86edac073a)"><path fill="#ffde59" d="M 290.675781 58.140625 C 287.9375 58.417969 278.792969 72.648438 278.535156 73.144531 C 277.910156 74.34375 278.5 75.277344 280.058594 73.9375 C 280.292969 73.734375 295.003906 59.511719 290.675781 58.140625 Z M 290.675781 58.140625 " fill-opacity="1" fill-rule="nonzero"/></g></g></g><g clip-path="url(#b1342fd55b)"><g clip-path="url(#3bd84b1c14)"><g clip-path="url(#e1d27d5aa3)"><path fill="#ffde59" d="M 257.433594 54.660156 C 252.96875 55.089844 260.898438 73.246094 261.511719 73.445312 C 263.773438 74.160156 259.269531 56.441406 259.261719 56.421875 C 258.558594 54.453125 257.492188 54.675781 257.433594 54.660156 Z M 257.433594 54.660156 " fill-opacity="1" fill-rule="nonzero"/></g></g></g><g clip-path="url(#5e8a943302)"><g clip-path="url(#7824c08c41)"><g clip-path="url(#b6295c8c29)"><path fill="#ffde59" d="M 284.800781 81.578125 C 281.039062 85.386719 294.152344 79.816406 298.695312 76.984375 C 300.070312 76.128906 300.59375 75.117188 300.113281 74.238281 C 298.488281 71.269531 285.058594 81.316406 284.800781 81.578125 Z M 284.800781 81.578125 " fill-opacity="1" fill-rule="nonzero"/></g></g></g><g clip-path="url(#696960d3a6)"><g clip-path="url(#5364ff572e)"><g clip-path="url(#94537e89a3)"><path fill="#ffde59" d="M 283.878906 91.1875 C 284.269531 92.578125 299.832031 91.179688 301.539062 90.59375 C 302.851562 90.144531 303.273438 87.980469 300.445312 87.898438 C 300.457031 87.898438 283.386719 89.414062 283.878906 91.1875 Z M 283.878906 91.1875 " fill-opacity="1" fill-rule="nonzero"/></g></g></g><g clip-path="url(#45431ae158)"><g clip-path="url(#ac63530e0a)"><g clip-path="url(#c583294591)"><path fill="#ffde59" d="M 100.242188 321.023438 C 104.566406 307.128906 104.648438 305.730469 103.5625 305.886719 C 102.570312 306.03125 90.859375 331.121094 96.472656 328.871094 C 96.398438 328.839844 97.605469 329.503906 100.242188 321.023438 Z M 100.242188 321.023438 " fill-opacity="1" fill-rule="nonzero"/></g></g></g><g clip-path="url(#fc7c579cd1)"><g clip-path="url(#8a76f1abc7)"><g clip-path="url(#d0e5fd93f8)"><path fill="#ffde59" d="M 80.988281 320.160156 C 83.738281 320.230469 94.609375 307.269531 94.925781 306.808594 C 95.699219 305.699219 95.230469 304.699219 93.515625 305.832031 C 93.257812 306.003906 76.867188 318.253906 80.988281 320.160156 Z M 80.988281 320.160156 " fill-opacity="1" fill-rule="nonzero"/></g></g></g><g clip-path="url(#988ad14dfb)"><g clip-path="url(#114f4cd918)"><g clip-path="url(#5d8670e2e4)"><path fill="#ffde59" d="M 113.527344 327.808594 C 118.011719 327.949219 112.4375 308.933594 111.851562 308.660156 C 109.699219 307.664062 111.929688 325.8125 111.933594 325.832031 C 112.382812 327.871094 113.46875 327.785156 113.527344 327.808594 Z M 113.527344 327.808594 " fill-opacity="1" fill-rule="nonzero"/></g></g></g><g clip-path="url(#396ecc10d7)"><g clip-path="url(#c45afdb7ce)"><g clip-path="url(#1853954f7f)"><path fill="#ffde59" d="M 89.773438 297.652344 C 93.988281 294.347656 80.277344 298.21875 75.410156 300.453125 C 73.941406 301.128906 73.292969 302.066406 73.660156 303 C 74.894531 306.148438 89.484375 297.878906 89.773438 297.652344 Z M 89.773438 297.652344 " fill-opacity="1" fill-rule="nonzero"/></g></g></g><g clip-path="url(#8f8e6f8fd6)"><g clip-path="url(#391f078e3e)"><g clip-path="url(#343ebbb00d)"><path fill="#ffde59" d="M 91.902344 288.238281 C 91.691406 286.804688 76.074219 286.230469 74.3125 286.59375 C 72.949219 286.875 72.257812 288.96875 75.054688 289.40625 C 75.042969 289.402344 92.167969 290.054688 91.902344 288.238281 Z M 91.902344 288.238281 " fill-opacity="1" fill-rule="nonzero"/></g></g></g><g clip-path="url(#102fb3650c)"><g clip-path="url(#dc387f02cb)"><g clip-path="url(#876e92a528)"><path fill="#ffde59" d="M 294.246094 305.359375 C 280.789062 299.828125 279.402344 299.625 279.464844 300.71875 C 279.515625 301.71875 303.476562 315.597656 301.730469 309.804688 C 301.691406 309.878906 302.460938 308.730469 294.246094 305.359375 Z M 294.246094 305.359375 " fill-opacity="1" fill-rule="nonzero"/></g></g></g><g clip-path="url(#a678f97f9d)"><g clip-path="url(#00ba48da9f)"><g clip-path="url(#80a34af7c5)"><path fill="#ffde59" d="M 291.691406 324.460938 C 292.003906 321.726562 280.050781 309.757812 279.621094 309.402344 C 278.582031 308.535156 277.542969 308.914062 278.519531 310.71875 C 278.667969 310.992188 289.425781 328.398438 291.691406 324.460938 Z M 291.691406 324.460938 " fill-opacity="1" fill-rule="nonzero"/></g></g></g><g clip-path="url(#3782dd82e2)"><g clip-path="url(#7f95b46610)"><g clip-path="url(#14ca32a4b9)"><path fill="#ffde59" d="M 302.175781 292.722656 C 302.710938 288.269531 283.277344 292.144531 282.953125 292.707031 C 281.773438 294.761719 300.046875 294.136719 300.066406 294.136719 C 302.136719 293.867188 302.144531 292.777344 302.175781 292.722656 Z M 302.175781 292.722656 " fill-opacity="1" fill-rule="nonzero"/></g></g></g><g clip-path="url(#7e7ae27f46)"><g clip-path="url(#e4782f17ae)"><g clip-path="url(#a81b6663f9)"><path fill="#ffde59" d="M 270.042969 313.726562 C 267.121094 309.238281 269.769531 323.238281 271.570312 328.28125 C 272.113281 329.804688 272.992188 330.53125 273.949219 330.25 C 277.195312 329.296875 270.242188 314.035156 270.042969 313.726562 Z M 270.042969 313.726562 " fill-opacity="1" fill-rule="nonzero"/></g></g></g><g clip-path="url(#9b8d382aae)"><g clip-path="url(#d14a2df822)"><g clip-path="url(#5a95ca2931)"><path fill="#ffde59" d="M 260.851562 310.777344 C 259.410156 310.859375 257.460938 326.367188 257.667969 328.15625 C 257.828125 329.535156 259.851562 330.410156 260.53125 327.664062 C 260.53125 327.675781 262.6875 310.675781 260.851562 310.777344 Z M 260.851562 310.777344 " fill-opacity="1" fill-rule="nonzero"/></g></g></g></svg>