<svg xmlns="http://www.w3.org/2000/svg" xmlns:xlink="http://www.w3.org/1999/xlink" width="1080" zoomAndPan="magnify" viewBox="0 0 810 719.999996" height="960" preserveAspectRatio="xMidYMid meet" version="1.0"><defs><filter x="0%" y="0%" width="100%" height="100%" id="ae018d3ab0"><feColorMatrix values="0 0 0 0 1 0 0 0 0 1 0 0 0 0 1 0 0 0 1 0" color-interpolation-filters="sRGB"/></filter><mask id="fd57c6c563"><g filter="url(#ae018d3ab0)"><rect x="-81" width="972" fill="#000000" y="-72" height="863.999995" fill-opacity="0.28"/></g></mask><clipPath id="53a0c7e04f"><path d="M 0 0 L 319 0 L 319 275 L 0 275 Z M 0 0 " clip-rule="nonzero"/></clipPath><clipPath id="e548d1f231"><path d="M -229.398438 -26.011719 L 294.6875 -124.457031 L 359.902344 222.71875 L -164.179688 321.167969 Z M -229.398438 -26.011719 " clip-rule="nonzero"/></clipPath><clipPath id="5bd5ebd5e6"><path d="M -229.398438 -26.011719 L 294.6875 -124.457031 L 359.902344 222.71875 L -164.179688 321.167969 Z M -229.398438 -26.011719 " clip-rule="nonzero"/></clipPath><clipPath id="c6fdc7834f"><rect x="0" width="360" y="0" height="320"/></clipPath><mask id="dc120783ad"><g filter="url(#ae018d3ab0)"><rect x="-81" width="972" fill="#000000" y="-72" height="863.999995" fill-opacity="0.28"/></g></mask><clipPath id="1d645a75b4"><path d="M 36 25 L 404 25 L 404 241 L 36 241 Z M 36 25 " clip-rule="nonzero"/></clipPath><clipPath id="8ba5e407b4"><path d="M -1 84.640625 L 449.375 0.0390625 L 505.453125 298.566406 L 55.078125 383.167969 Z M -1 84.640625 " clip-rule="nonzero"/></clipPath><clipPath id="b80521d52b"><path d="M -1 84.640625 L 449.375 0.0390625 L 505.453125 298.566406 L 55.078125 383.167969 Z M -1 84.640625 " clip-rule="nonzero"/></clipPath><clipPath id="3f7879cb4c"><rect x="0" width="404" y="0" height="241"/></clipPath><clipPath id="a9c3f44c4d"><path d="M 622 436 L 800 436 L 800 720 L 622 720 Z M 622 436 " clip-rule="nonzero"/></clipPath><clipPath id="e695e21f88"><path d="M 866.097656 655.359375 L 731.769531 752.460938 L 563.050781 519.054688 L 697.382812 421.953125 Z M 866.097656 655.359375 " clip-rule="nonzero"/></clipPath><clipPath id="648881805b"><path d="M 866.097656 655.359375 L 731.769531 752.460938 L 563.050781 519.054688 L 697.382812 421.953125 Z M 866.097656 655.359375 " clip-rule="nonzero"/></clipPath><clipPath id="24587bec5c"><path d="M 0 6 L 241 6 L 241 185 L 0 185 Z M 0 6 " clip-rule="nonzero"/></clipPath><clipPath id="1fd005cb2d"><path d="M 49.601562 248.25 L -55.34375 130.8125 L 148.777344 -51.597656 L 253.726562 65.84375 Z M 49.601562 248.25 " clip-rule="nonzero"/></clipPath><clipPath id="9f178ee1df"><path d="M 49.601562 248.25 L -55.34375 130.8125 L 148.777344 -51.597656 L 253.726562 65.84375 Z M 49.601562 248.25 " clip-rule="nonzero"/></clipPath></defs><g mask="url(#fd57c6c563)"><g transform="matrix(1, 0, 0, 1, -0, -0.000000000000023324)"><g clip-path="url(#c6fdc7834f)"><g clip-path="url(#53a0c7e04f)"><g clip-path="url(#e548d1f231)"><g clip-path="url(#5bd5ebd5e6)"><path fill="#fabcbc" d="M -98.484375 104.160156 C -89.15625 102.289062 -79.679688 101.21875 -70.167969 100.964844 C -55.507812 100.453125 -41.03125 97.734375 -27.164062 93.003906 C -14.441406 88.492188 -2.804688 81.9375 8.449219 74.628906 C 16.65625 69.3125 21.207031 61.492188 23.519531 52.441406 C 26.429688 40.917969 28.863281 29.367188 31.160156 17.722656 C 33.308594 7.167969 34.480469 -3.554688 38.128906 -13.683594 C 43.003906 -27.933594 51.457031 -40.734375 62.65625 -50.863281 C 70.953125 -58.207031 78.984375 -65.734375 87.261719 -73.191406 C 93.214844 -78.558594 100.3125 -82.253906 107.652344 -85.285156 C 125.621094 -92.671875 144.089844 -96.140625 163.65625 -94.386719 C 186.703125 -92.34375 209.519531 -88.367188 231.996094 -82.4375 C 248.644531 -78.011719 263.539062 -69.714844 277.738281 -60.109375 C 285.546875 -54.964844 292.710938 -48.875 298.976562 -41.910156 C 306.007812 -34.023438 311.195312 -24.613281 313.828125 -14.367188 C 316.726562 -3.34375 319.144531 7.652344 317.875 19.101562 C 315.453125 41.394531 306.671875 60.628906 288.605469 74.410156 C 281.808594 79.699219 273.980469 83.882812 266.222656 87.820312 C 249.101562 96.582031 233.542969 108.003906 220.070312 121.746094 C 209.851562 132.046875 202.109375 144.242188 194.660156 156.734375 C 186.605469 170.40625 178.933594 184.238281 170.203125 197.445312 C 157.605469 216.453125 143.222656 234.144531 125.535156 248.679688 C 115.402344 256.957031 104.738281 264.269531 92.492188 268.816406 C 71.195312 276.710938 50.082031 276.78125 29.640625 265.984375 C 18.132812 260.003906 6.992188 253.480469 -4.3125 247.339844 C -14.460938 241.695312 -24.589844 236.160156 -35.90625 233.09375 C -48.648438 229.347656 -62.15625 229.054688 -75.046875 232.066406 C -84.746094 234.476562 -94.355469 237.347656 -103.894531 239.964844 C -114.578125 242.796875 -125.40625 244.832031 -136.574219 244.449219 C -156.382812 243.921875 -170.054688 233.980469 -178.839844 216.746094 C -186.773438 200.886719 -187.441406 184.132812 -184.148438 167.109375 C -182.527344 158.777344 -179.542969 150.78125 -175.363281 143.503906 C -169.558594 133.5625 -160.90625 126.863281 -150.945312 121.449219 C -139.910156 115.480469 -128.101562 111.730469 -116.054688 108.640625 Z M -98.484375 104.160156 " fill-opacity="1" fill-rule="nonzero"/></g></g></g></g></g></g><g mask="url(#dc120783ad)"><g transform="matrix(1, 0, 0, 1, 406, 479)"><g clip-path="url(#3f7879cb4c)"><g clip-path="url(#1d645a75b4)"><g clip-path="url(#8ba5e407b4)"><g clip-path="url(#b80521d52b)"><path fill="#fabcbc" d="M 111.585938 196.582031 C 119.605469 194.976562 127.753906 194.054688 135.9375 193.835938 C 148.542969 193.398438 160.992188 191.058594 172.917969 186.992188 C 183.859375 183.109375 193.863281 177.472656 203.546875 171.1875 C 210.601562 166.613281 214.515625 159.890625 216.507812 152.109375 C 219.007812 142.199219 221.101562 132.265625 223.078125 122.25 C 224.925781 113.171875 225.933594 103.949219 229.066406 95.242188 C 233.261719 82.984375 240.53125 71.976562 250.160156 63.265625 C 257.300781 56.949219 264.203125 50.476562 271.320312 44.066406 C 276.441406 39.449219 282.546875 36.273438 288.855469 33.664062 C 304.308594 27.3125 320.191406 24.328125 337.019531 25.835938 C 356.839844 27.59375 376.460938 31.011719 395.792969 36.113281 C 410.109375 39.917969 422.917969 47.054688 435.128906 55.316406 C 441.847656 59.738281 448.007812 64.976562 453.394531 70.96875 C 459.441406 77.75 463.902344 85.84375 466.167969 94.652344 C 468.660156 104.132812 470.738281 113.585938 469.644531 123.4375 C 467.5625 142.605469 460.011719 159.148438 444.476562 170.996094 C 438.628906 175.546875 431.898438 179.144531 425.226562 182.53125 C 410.5 190.066406 397.121094 199.890625 385.539062 211.707031 C 376.746094 220.566406 370.089844 231.054688 363.683594 241.796875 C 356.753906 253.554688 350.160156 265.449219 342.652344 276.808594 C 331.816406 293.15625 319.449219 308.371094 304.238281 320.871094 C 295.523438 327.988281 286.351562 334.277344 275.820312 338.183594 C 257.503906 344.972656 239.347656 345.035156 221.769531 335.75 C 211.871094 330.605469 202.292969 324.996094 192.570312 319.71875 C 183.84375 314.863281 175.132812 310.101562 165.402344 307.464844 C 154.441406 304.246094 142.824219 303.992188 131.738281 306.582031 C 123.398438 308.65625 115.132812 311.121094 106.929688 313.375 C 97.742188 315.808594 88.429688 317.558594 78.828125 317.230469 C 61.792969 316.777344 50.035156 308.226562 42.480469 293.40625 C 35.65625 279.765625 35.082031 265.359375 37.914062 250.71875 C 39.308594 243.554688 41.871094 236.679688 45.46875 230.421875 C 50.460938 221.871094 57.902344 216.105469 66.46875 211.453125 C 75.957031 206.320312 86.113281 203.09375 96.472656 200.4375 Z M 111.585938 196.582031 " fill-opacity="1" fill-rule="nonzero"/></g></g></g></g></g></g><g clip-path="url(#a9c3f44c4d)"><g clip-path="url(#e695e21f88)"><g clip-path="url(#648881805b)"><path fill="#e49b9b" d="M 725.789062 621.28125 C 720.292969 611.535156 723.308594 604.21875 723.308594 604.21875 C 723.308594 604.21875 729.90625 607.117188 736.410156 617.476562 C 742.910156 627.832031 739.914062 636.828125 739.914062 636.828125 C 734.167969 632.675781 729.34375 627.367188 725.789062 621.28125 Z M 650.339844 608.203125 C 659.988281 606.855469 667.257812 601.53125 670.488281 598.703125 C 680.109375 606.949219 686.546875 610.597656 691.816406 612.628906 C 690.449219 612.984375 688.824219 613.457031 686.898438 614.003906 C 677.359375 616.675781 669.304688 630.449219 669.304688 630.449219 C 669.304688 630.449219 675.003906 639.699219 690.886719 630.328125 C 700.003906 624.933594 703.515625 619.863281 704.828125 616.519531 C 706.996094 617.277344 709.292969 618.21875 711.949219 619.75 C 722.382812 625.714844 733.253906 632.773438 743.855469 643.546875 C 740.703125 641.8125 736.085938 640.292969 729.886719 640.765625 C 716.453125 641.75 710.257812 649.535156 710.257812 649.535156 C 710.257812 649.535156 717.546875 658.058594 728.554688 657.421875 C 738.773438 656.859375 745.578125 651.867188 748.589844 648.636719 C 749.796875 650.015625 750.960938 651.425781 752.1875 652.929688 C 757.355469 659.398438 759.929688 671.820312 761.1875 684.070312 C 758.714844 678.609375 754.519531 671.441406 748.488281 668.058594 C 738.175781 662.359375 726.480469 664.96875 726.480469 664.96875 C 726.480469 664.96875 728.722656 676.929688 737.515625 683.449219 C 745.613281 689.488281 753.835938 692.691406 761.777344 691.3125 C 762.675781 704.527344 762.253906 716.015625 762.191406 717.679688 C 752.40625 733.832031 740.074219 742.957031 739.890625 743.089844 L 739.425781 743.421875 L 740.09375 744.347656 L 740.558594 744.011719 C 740.609375 744.960938 766.050781 727.203125 773.160156 692.652344 C 774.140625 688.074219 775.058594 683.890625 775.917969 679.824219 C 776.402344 677.574219 776.921875 675.371094 777.347656 673.234375 C 778.554688 673.347656 779.164062 673.117188 779.164062 673.117188 C 779.164062 673.117188 791 667.304688 796.476562 656.871094 C 799.699219 650.8125 799.964844 643.585938 797.175781 637.296875 C 797.175781 637.296875 785.75 642.320312 783.125 648.230469 C 782.234375 650.210938 781.34375 652.964844 780.527344 655.734375 C 782.019531 644.171875 781.441406 634.316406 776.726562 623.023438 C 776.570312 622.710938 776.460938 622.367188 776.308594 622.058594 C 776.402344 621.988281 776.460938 621.875 776.585938 621.855469 C 778.773438 620.695312 784.539062 616.601562 790.070312 604.300781 C 797.109375 588.726562 794.671875 581.269531 794.671875 581.269531 C 788.105469 582.992188 782.375 587.132812 778.683594 592.828125 C 774.429688 599.210938 772.21875 606.859375 771.949219 612.328125 C 769.003906 606.015625 765.625 599.101562 762.15625 591.96875 C 760.011719 587.539062 757.832031 583.0625 755.683594 578.632812 C 756.53125 578.445312 757.003906 578.316406 757.003906 578.316406 C 757.003906 578.316406 764.136719 579.421875 770.433594 561.078125 C 776.828125 542.664062 773.960938 535.097656 773.960938 535.097656 C 773.960938 535.097656 758.09375 537.773438 755.121094 546.605469 C 752.148438 555.4375 754.957031 575.289062 754.957031 575.289062 C 754.957031 575.289062 754.441406 574.675781 753.457031 573.703125 C 749.070312 564.417969 745.175781 555.625 742.621094 548.394531 C 742.054688 546.832031 741.523438 545.316406 740.957031 543.753906 C 739.609375 539.945312 738.296875 536.179688 736.96875 532.496094 C 737.015625 532.460938 737.0625 532.429688 737.0625 532.429688 C 736.875 531.296875 736.539062 530.34375 736.050781 529.570312 C 736.695312 529.386719 737.28125 529.035156 737.703125 528.449219 C 740.269531 525.183594 743.59375 519.757812 746.058594 511.78125 C 749.257812 501.308594 745.195312 490.242188 742.578125 484.675781 C 742.40625 484.238281 742.089844 483.902344 741.730469 483.601562 C 740.359375 482.480469 738.371094 482.652344 737.21875 483.976562 C 735.496094 486.066406 733.113281 489.6875 730.234375 495.921875 C 728.144531 500.527344 727.796875 505.984375 728.296875 511.253906 C 725.371094 505.0625 722.171875 499.566406 718.554688 495.144531 C 712.859375 488.144531 705.015625 480.308594 699.429688 474.914062 C 700.203125 474.917969 700.972656 474.714844 701.632812 474.167969 C 701.863281 474 702.0625 473.789062 702.226562 473.527344 C 705.40625 468.976562 710.183594 460.105469 707.980469 450.441406 C 706.628906 444.382812 704.199219 440.4375 701.871094 437.898438 C 700.335938 436.265625 697.738281 436.171875 696.070312 437.660156 C 695.398438 438.285156 694.984375 439.078125 694.796875 439.988281 C 694.207031 443.648438 693.457031 448.0625 692.894531 450.789062 C 692.257812 453.996094 689.644531 457.292969 690.714844 462.570312 C 687.925781 459.589844 684.589844 456.722656 681.0625 455.054688 C 672.066406 450.789062 665.480469 447.808594 658.691406 450.679688 C 657.722656 451.09375 657.257812 452.203125 657.628906 453.203125 C 658.988281 456.933594 662.738281 465.625 668.066406 466.765625 C 673.285156 467.851562 688.398438 471.140625 695.417969 472.679688 C 699.246094 476.316406 705.535156 482.390625 711.3125 488.628906 C 708.152344 486.691406 702.394531 484.664062 692.335938 485.742188 C 678.921875 487.136719 673.070312 495.589844 671.070312 499.636719 C 670.964844 499.78125 670.941406 499.941406 670.914062 500.101562 C 670.761719 501.058594 671.382812 502.015625 672.417969 502.179688 C 677.113281 502.9375 688.0625 504.453125 695 502.957031 C 702.066406 501.4375 710.097656 495.417969 713.292969 492.828125 C 713.382812 492.761719 713.429688 492.730469 713.488281 492.617188 C 713.792969 492.253906 713.984375 491.835938 713.96875 491.425781 C 715.242188 492.898438 716.515625 494.367188 717.675781 495.78125 C 721.875 500.90625 725.464844 507.53125 728.835938 515.015625 C 729.515625 519.167969 730.65625 522.984375 731.644531 526.003906 C 726.792969 524.160156 719.550781 524.75 712.847656 524.53125 C 705.859375 524.304688 700.117188 527.261719 696.933594 529.28125 C 696.792969 529.382812 696.65625 529.480469 696.515625 529.582031 C 695.402344 530.667969 695.40625 532.425781 696.457031 533.492188 C 699.988281 537.207031 707.5 543.804688 715.605469 543.433594 C 724.707031 542.980469 733.25 535.816406 736.03125 533.242188 C 737.304688 536.757812 738.566406 540.347656 739.859375 543.988281 C 740.425781 545.546875 740.957031 547.0625 741.523438 548.625 C 743.859375 555.167969 747.222656 562.9375 751.082031 571.195312 C 746.808594 567.035156 739.675781 560.867188 733.8125 559.472656 C 724.695312 557.269531 706.269531 561.371094 706.269531 561.371094 C 706.269531 561.371094 715.484375 574.414062 728.566406 578.394531 C 738.445312 581.457031 749.824219 579.773438 754.726562 578.765625 C 756.859375 583.273438 759.105469 587.84375 761.285156 592.316406 C 765.179688 600.335938 768.957031 608.089844 772.132812 615.015625 C 772.253906 616.542969 772.632812 617.75 773.199219 618.535156 C 775.804688 622.140625 766.511719 611.617188 759.253906 608.492188 C 752.800781 605.695312 741.171875 605.378906 738.605469 605.332031 C 738.402344 605.339844 738.296875 605.488281 738.269531 605.644531 C 738.257812 605.726562 738.257812 605.726562 738.292969 605.773438 C 739.234375 608.046875 743.652344 618.152344 751.046875 623.21875 C 758.144531 628.078125 772.882812 627.347656 777.222656 627.023438 C 781.652344 639.863281 780.628906 651.300781 777.648438 666.542969 C 777.191406 664.550781 774.609375 654.457031 769.445312 647.210938 C 763.757812 639.152344 754.222656 635.699219 754.222656 635.699219 C 754.222656 635.699219 750.800781 655.199219 764.203125 666.339844 C 769.789062 670.957031 773.824219 672.542969 776.324219 672.988281 C 775.867188 675.078125 775.441406 677.214844 774.921875 679.417969 C 774.0625 683.488281 773.097656 687.703125 772.199219 692.292969 C 770.421875 701.035156 767.140625 708.757812 763.40625 715.464844 C 763.617188 707.292969 763.464844 699.097656 762.9375 690.96875 C 763.234375 690.894531 763.53125 690.820312 763.78125 690.777344 C 763.78125 690.777344 763.417969 689.492188 762.632812 687.527344 C 761.167969 670.222656 757.933594 658.347656 753.011719 652.125 C 739.867188 635.59375 725.757812 626.300781 712.492188 618.652344 C 709.757812 617.109375 707.425781 616.121094 705.226562 615.320312 C 705.761719 613.527344 705.574219 612.394531 705.574219 612.394531 C 705.574219 612.394531 708.898438 605.699219 706.890625 595.328125 C 703.429688 577.496094 690.179688 566.175781 690.179688 566.175781 C 687.292969 572.695312 686.21875 579.875 687.167969 586.929688 C 688.804688 598.34375 697.921875 610.957031 697.921875 610.957031 C 697.921875 610.957031 697.203125 611.128906 693.707031 612.035156 C 688.289062 610.183594 681.730469 606.761719 671.359375 597.863281 C 671.988281 597.269531 672.335938 596.878906 672.335938 596.878906 C 672.492188 585.507812 670.304688 574.210938 665.996094 563.675781 C 661.9375 553.875 658.820312 550.144531 656.851562 548.683594 C 655.679688 547.84375 654.082031 547.871094 652.945312 548.832031 C 649.910156 551.449219 645.085938 559.371094 651.730469 573.140625 C 654.449219 578.847656 657 583.546875 659.214844 587.292969 C 651.628906 580.886719 646.101562 576.648438 643.917969 574.988281 C 644.488281 569.933594 645.121094 558.640625 641.40625 550.488281 C 636.488281 539.691406 629.867188 530.828125 625.835938 531.769531 C 621.773438 532.667969 621.40625 548.128906 626.382812 557.832031 C 630.253906 565.234375 638.367188 572.953125 641.859375 576.128906 C 642.316406 576.570312 643.058594 576.527344 643.535156 576.113281 C 646.113281 578.121094 652.4375 582.976562 661.023438 590.277344 C 664.261719 595.539062 666.289062 598.152344 666.289062 598.152344 C 666.289062 598.152344 657.589844 592.832031 643.652344 593.40625 C 629.714844 593.980469 623.421875 596.277344 623.207031 598.898438 C 622.929688 601.628906 637.097656 610.035156 650.339844 608.203125 Z M 650.339844 608.203125 " fill-opacity="1" fill-rule="nonzero"/></g></g></g><g clip-path="url(#24587bec5c)"><g clip-path="url(#1fd005cb2d)"><g clip-path="url(#9f178ee1df)"><path fill="#e49b9b" d="M 68.066406 112.183594 C 76.746094 106.027344 83.960938 108.160156 83.960938 108.160156 C 83.960938 108.160156 81.867188 114.6875 72.707031 121.855469 C 63.546875 129.023438 54.746094 127.066406 54.746094 127.066406 C 58.109375 121.226562 62.660156 116.144531 68.066406 112.183594 Z M 73.03125 39.527344 C 75.253906 48.523438 81.003906 54.875 83.996094 57.65625 C 77.140625 67.566406 74.320312 74.011719 72.914062 79.195312 C 72.449219 77.941406 71.839844 76.445312 71.132812 74.679688 C 67.667969 65.917969 53.847656 59.648438 53.847656 59.648438 C 53.847656 59.648438 45.660156 65.949219 56.082031 80.054688 C 62.082031 88.152344 67.222656 90.972656 70.511719 91.890625 C 70.007812 94.011719 69.34375 96.277344 68.15625 98.9375 C 63.535156 109.394531 57.925781 120.371094 48.777344 131.457031 C 50.105469 128.304688 51.089844 123.789062 50.035156 117.96875 C 47.785156 105.359375 39.8125 100.265625 39.8125 100.265625 C 39.8125 100.265625 32.464844 107.996094 34.152344 118.34375 C 35.683594 127.957031 41.074219 133.90625 44.425781 136.4375 C 43.242188 137.714844 42.019531 138.949219 40.71875 140.261719 C 35.105469 145.785156 23.609375 149.4375 12.144531 151.828125 C 17.070312 148.957031 23.4375 144.28125 26.042969 138.246094 C 30.425781 127.929688 26.808594 117.125 26.808594 117.125 C 26.808594 117.125 15.714844 120.421875 10.410156 129.378906 C 5.492188 137.628906 3.269531 145.722656 5.351562 153.097656 C -7.058594 155.246094 -17.96875 155.976562 -19.550781 156.078125 C -35.789062 148.40625 -45.628906 137.636719 -45.773438 137.476562 L -46.136719 137.070312 L -46.945312 137.792969 L -46.582031 138.199219 C -47.476562 138.339844 -28.179688 160.664062 5.199219 164 C 9.628906 164.476562 13.675781 164.9375 17.605469 165.347656 C 19.785156 165.585938 21.917969 165.859375 23.980469 166.050781 C 23.992188 167.207031 24.269531 167.757812 24.269531 167.757812 C 24.269531 167.757812 30.933594 178.386719 41.335938 182.542969 C 47.382812 184.996094 54.246094 184.535156 59.921875 181.285156 C 59.921875 181.285156 54.046875 170.96875 48.203125 169.066406 C 46.242188 168.417969 43.546875 167.84375 40.847656 167.34375 C 51.929688 167.621094 61.195312 166.105469 71.417969 160.535156 C 71.695312 160.359375 72.011719 160.222656 72.289062 160.046875 C 72.363281 160.128906 72.476562 160.171875 72.507812 160.289062 C 73.820312 162.246094 78.257812 167.296875 90.4375 171.320312 C 105.859375 176.453125 112.675781 173.414062 112.675781 173.414062 C 110.402344 167.375 105.921875 162.359375 100.171875 159.425781 C 93.71875 156.027344 86.265625 154.6875 81.0625 154.972656 C 86.746094 151.566406 92.957031 147.6875 99.363281 143.707031 C 103.34375 141.242188 107.363281 138.742188 111.34375 136.277344 C 111.605469 137.058594 111.773438 137.492188 111.773438 137.492188 C 111.773438 137.492188 111.425781 144.347656 129.398438 148.507812 C 147.441406 152.746094 154.320312 149.292969 154.320312 149.292969 C 154.320312 149.292969 150.230469 134.542969 141.585938 132.597656 C 132.9375 130.652344 114.433594 135.261719 114.433594 135.261719 C 114.433594 135.261719 114.964844 134.714844 115.789062 133.683594 C 124.140625 128.625 132.078125 124.078125 138.667969 120.953125 C 140.085938 120.261719 141.46875 119.609375 142.890625 118.921875 C 146.363281 117.273438 149.792969 115.660156 153.148438 114.042969 C 153.1875 114.085938 153.222656 114.125 153.222656 114.125 C 154.277344 113.839844 155.144531 113.425781 155.828125 112.890625 C 156.0625 113.480469 156.457031 114 157.050781 114.339844 C 160.390625 116.449219 165.851562 119.058594 173.636719 120.609375 C 183.855469 122.605469 193.925781 117.679688 198.9375 114.65625 C 199.332031 114.449219 199.621094 114.121094 199.871094 113.75 C 200.792969 112.34375 200.4375 110.480469 199.070312 109.519531 C 196.925781 108.09375 193.265625 106.195312 187.085938 104.082031 C 182.523438 102.558594 177.328125 102.765625 172.394531 103.757812 C 177.960938 100.382812 182.847656 96.816406 186.675781 92.960938 C 192.738281 86.886719 199.382812 78.695312 203.933594 72.882812 C 204.007812 73.617188 204.273438 74.324219 204.855469 74.894531 C 205.039062 75.09375 205.257812 75.261719 205.519531 75.390625 C 210.140625 77.953125 219 81.601562 227.925781 78.570312 C 233.523438 76.695312 237.015625 74.011719 239.1875 71.558594 C 240.585938 69.949219 240.417969 67.480469 238.847656 66.046875 C 238.1875 65.472656 237.398438 65.160156 236.519531 65.070312 C 232.996094 64.875 228.75 64.597656 226.113281 64.335938 C 223.019531 64.046875 219.644531 61.898438 214.757812 63.425781 C 217.304688 60.496094 219.6875 57.058594 220.917969 53.558594 C 224.070312 44.632812 226.242188 38.109375 222.863281 31.964844 C 222.375 31.09375 221.277344 30.761719 220.371094 31.210938 C 216.972656 32.863281 209.121094 37.261719 208.5625 42.414062 C 208.050781 47.457031 206.421875 62.074219 205.65625 68.871094 C 202.589844 72.84375 197.460938 79.394531 192.125 85.46875 C 193.648438 82.289062 195.003906 76.644531 192.996094 67.234375 C 190.359375 54.683594 181.792969 49.976562 177.765625 48.484375 C 177.617188 48.398438 177.464844 48.390625 177.308594 48.378906 C 176.390625 48.328125 175.546875 49.011719 175.492188 50.007812 C 175.238281 54.523438 174.878906 65.027344 176.976562 71.445312 C 179.105469 77.976562 185.585938 84.988281 188.347656 87.753906 C 188.421875 87.835938 188.457031 87.875 188.570312 87.921875 C 188.941406 88.171875 189.355469 88.308594 189.742188 88.253906 C 188.476562 89.605469 187.210938 90.953125 185.988281 92.191406 C 181.550781 96.667969 175.636719 100.714844 168.886719 104.636719 C 165.027344 105.6875 161.527344 107.140625 158.769531 108.367188 C 160.035156 103.601562 158.765625 96.808594 158.316406 90.445312 C 157.84375 83.8125 154.484375 78.667969 152.261719 75.855469 C 152.152344 75.734375 152.042969 75.613281 151.9375 75.492188 C 150.796875 74.542969 149.136719 74.71875 148.230469 75.820312 C 145.066406 79.523438 139.558594 87.277344 140.707031 94.910156 C 142.03125 103.472656 149.640625 110.851562 152.351562 113.230469 C 149.152344 114.78125 145.878906 116.324219 142.5625 117.90625 C 141.140625 118.59375 139.761719 119.246094 138.339844 119.933594 C 132.378906 122.789062 125.359375 126.734375 117.925781 131.195312 C 121.441406 126.742188 126.578125 119.390625 127.320312 113.707031 C 128.507812 104.863281 122.820312 87.835938 122.820312 87.835938 C 122.820312 87.835938 111.390625 97.832031 108.90625 110.597656 C 106.980469 120.246094 109.6875 130.847656 111.125 135.382812 C 107.066406 137.84375 102.96875 140.414062 98.949219 142.917969 C 91.746094 147.390625 84.78125 151.722656 78.542969 155.40625 C 77.105469 155.671875 76.003906 156.144531 75.316406 156.761719 C 72.164062 159.578125 81.203125 149.753906 83.449219 142.585938 C 85.460938 136.207031 84.621094 125.175781 84.410156 122.742188 C 84.382812 122.550781 84.234375 122.464844 84.082031 122.457031 C 84.003906 122.453125 84.003906 122.453125 83.964844 122.488281 C 81.90625 123.601562 72.78125 128.773438 68.710938 136.265625 C 64.8125 143.457031 66.953125 157.328125 67.683594 161.402344 C 55.96875 166.851562 45.054688 167.003906 30.339844 165.679688 C 32.179688 165.054688 41.476562 161.621094 47.820312 156.023438 C 54.886719 149.851562 57.21875 140.496094 57.21875 140.496094 C 57.21875 140.496094 38.433594 139.171875 29.210938 152.941406 C 25.394531 158.679688 24.289062 162.652344 24.113281 165.0625 C 22.089844 164.832031 20.027344 164.640625 17.894531 164.367188 C 13.960938 163.953125 9.878906 163.453125 5.445312 163.050781 C -2.996094 162.230469 -10.621094 159.882812 -17.335938 157.011719 C -9.582031 156.410156 -1.847656 155.460938 5.792969 154.160156 C 5.890625 154.4375 5.992188 154.710938 6.054688 154.945312 C 6.054688 154.945312 7.234375 154.472656 9.015625 153.535156 C 25.242188 150.453125 36.15625 146.226562 41.5625 140.960938 C 55.910156 126.902344 63.316406 112.648438 69.25 99.34375 C 70.4375 96.609375 71.144531 94.304688 71.6875 92.148438 C 73.4375 92.476562 74.488281 92.1875 74.488281 92.1875 C 74.488281 92.1875 81.148438 94.675781 90.761719 91.757812 C 107.289062 86.734375 116.695312 73.089844 116.695312 73.089844 C 110.246094 71 103.351562 70.6875 96.769531 72.277344 C 86.136719 74.945312 75.097656 84.808594 75.097656 84.808594 C 75.097656 84.808594 74.863281 84.144531 73.664062 80.925781 C 74.882812 75.617188 77.476562 69.082031 84.875 58.398438 C 85.5 58.929688 85.90625 59.222656 85.90625 59.222656 C 96.675781 58.253906 107.148438 55.078125 116.691406 49.96875 C 125.5625 45.167969 128.785156 41.851562 129.972656 39.84375 C 130.652344 38.652344 130.46875 37.144531 129.449219 36.167969 C 126.675781 33.550781 118.707031 29.761719 106.335938 37.402344 C 101.203125 40.53125 97.007812 43.410156 93.683594 45.871094 C 99 38.066406 102.464844 32.421875 103.820312 30.195312 C 108.65625 30.234375 119.402344 29.726562 126.75 25.414062 C 136.480469 19.699219 144.21875 12.570312 142.929688 8.847656 C 141.679688 5.089844 127.019531 6.265625 118.328125 11.921875 C 111.707031 16.3125 105.203125 24.742188 102.542969 28.355469 C 102.167969 28.835938 102.28125 29.53125 102.722656 29.941406 C 101.074219 32.574219 97.101562 39.035156 91.035156 47.875 C 86.378906 51.453125 84.105469 53.628906 84.105469 53.628906 C 84.105469 53.628906 88.285156 44.878906 86.371094 31.75 C 84.460938 18.621094 81.671875 12.894531 79.171875 12.949219 C 76.558594 12.953125 70 27.179688 73.03125 39.527344 Z M 73.03125 39.527344 " fill-opacity="1" fill-rule="nonzero"/></g></g></g></svg>